%TF.GenerationSoftware,KiCad,Pcbnew,(5.1.10)-1*%
%TF.CreationDate,2021-09-20T09:52:30-07:00*%
%TF.ProjectId,BumbasiRylan_ElectronicSpeedController,42756d62-6173-4695-9279-6c616e5f456c,rev?*%
%TF.SameCoordinates,Original*%
%TF.FileFunction,Copper,L1,Top*%
%TF.FilePolarity,Positive*%
%FSLAX46Y46*%
G04 Gerber Fmt 4.6, Leading zero omitted, Abs format (unit mm)*
G04 Created by KiCad (PCBNEW (5.1.10)-1) date 2021-09-20 09:52:30*
%MOMM*%
%LPD*%
G01*
G04 APERTURE LIST*
%TA.AperFunction,ComponentPad*%
%ADD10O,1.600000X1.600000*%
%TD*%
%TA.AperFunction,ComponentPad*%
%ADD11C,1.600000*%
%TD*%
%TA.AperFunction,ComponentPad*%
%ADD12C,1.800000*%
%TD*%
%TA.AperFunction,ComponentPad*%
%ADD13R,1.800000X1.800000*%
%TD*%
%TA.AperFunction,ComponentPad*%
%ADD14R,1.600000X1.600000*%
%TD*%
%TA.AperFunction,ComponentPad*%
%ADD15O,1.700000X1.700000*%
%TD*%
%TA.AperFunction,ComponentPad*%
%ADD16R,1.700000X1.700000*%
%TD*%
%TA.AperFunction,Conductor*%
%ADD17C,0.250000*%
%TD*%
%TA.AperFunction,Conductor*%
%ADD18C,0.254000*%
%TD*%
%TA.AperFunction,Conductor*%
%ADD19C,0.100000*%
%TD*%
G04 APERTURE END LIST*
D10*
%TO.P,R3,2*%
%TO.N,Net-(LED3-Pad2)*%
X116840000Y-106680000D03*
D11*
%TO.P,R3,1*%
%TO.N,/D4*%
X127000000Y-106680000D03*
%TD*%
D10*
%TO.P,R2,2*%
%TO.N,Net-(LED2-Pad2)*%
X116840000Y-101600000D03*
D11*
%TO.P,R2,1*%
%TO.N,/D3*%
X127000000Y-101600000D03*
%TD*%
D10*
%TO.P,R1,2*%
%TO.N,Net-(LED1-Pad2)*%
X116840000Y-96520000D03*
D11*
%TO.P,R1,1*%
%TO.N,/D2*%
X127000000Y-96520000D03*
%TD*%
D12*
%TO.P,LED3,2*%
%TO.N,Net-(LED3-Pad2)*%
X111440000Y-116130000D03*
D13*
%TO.P,LED3,1*%
%TO.N,GND*%
X108900000Y-116130000D03*
%TD*%
D12*
%TO.P,LED2,2*%
%TO.N,Net-(LED2-Pad2)*%
X111540000Y-106220000D03*
D13*
%TO.P,LED2,1*%
%TO.N,GND*%
X109000000Y-106220000D03*
%TD*%
D12*
%TO.P,LED1,2*%
%TO.N,Net-(LED1-Pad2)*%
X111540000Y-96520000D03*
D13*
%TO.P,LED1,1*%
%TO.N,GND*%
X109000000Y-96520000D03*
%TD*%
D10*
%TO.P,ArduinoNano1,16*%
%TO.N,Net-(ArduinoNano1-Pad16)*%
X150145001Y-118385001D03*
%TO.P,ArduinoNano1,15*%
%TO.N,Net-(ArduinoNano1-Pad15)*%
X134905001Y-118385001D03*
%TO.P,ArduinoNano1,30*%
%TO.N,Net-(ArduinoNano1-Pad30)*%
X150145001Y-82825001D03*
%TO.P,ArduinoNano1,14*%
%TO.N,Net-(ArduinoNano1-Pad14)*%
X134905001Y-115845001D03*
%TO.P,ArduinoNano1,29*%
%TO.N,GND*%
X150145001Y-85365001D03*
%TO.P,ArduinoNano1,13*%
%TO.N,/D10(PWM)*%
X134905001Y-113305001D03*
%TO.P,ArduinoNano1,28*%
%TO.N,Net-(ArduinoNano1-Pad28)*%
X150145001Y-87905001D03*
%TO.P,ArduinoNano1,12*%
%TO.N,Net-(ArduinoNano1-Pad12)*%
X134905001Y-110765001D03*
%TO.P,ArduinoNano1,27*%
%TO.N,/5V*%
X150145001Y-90445001D03*
%TO.P,ArduinoNano1,11*%
%TO.N,Net-(ArduinoNano1-Pad11)*%
X134905001Y-108225001D03*
%TO.P,ArduinoNano1,26*%
%TO.N,Net-(ArduinoNano1-Pad26)*%
X150145001Y-92985001D03*
%TO.P,ArduinoNano1,10*%
%TO.N,Net-(ArduinoNano1-Pad10)*%
X134905001Y-105685001D03*
%TO.P,ArduinoNano1,25*%
%TO.N,Net-(ArduinoNano1-Pad25)*%
X150145001Y-95525001D03*
%TO.P,ArduinoNano1,9*%
%TO.N,Net-(ArduinoNano1-Pad9)*%
X134905001Y-103145001D03*
%TO.P,ArduinoNano1,24*%
%TO.N,Net-(ArduinoNano1-Pad24)*%
X150145001Y-98065001D03*
%TO.P,ArduinoNano1,8*%
%TO.N,Net-(ArduinoNano1-Pad8)*%
X134905001Y-100605001D03*
%TO.P,ArduinoNano1,23*%
%TO.N,Net-(ArduinoNano1-Pad23)*%
X150145001Y-100605001D03*
%TO.P,ArduinoNano1,7*%
%TO.N,/D4*%
X134905001Y-98065001D03*
%TO.P,ArduinoNano1,22*%
%TO.N,Net-(ArduinoNano1-Pad22)*%
X150145001Y-103145001D03*
%TO.P,ArduinoNano1,6*%
%TO.N,/D3*%
X134905001Y-95525001D03*
%TO.P,ArduinoNano1,21*%
%TO.N,Net-(ArduinoNano1-Pad21)*%
X150145001Y-105685001D03*
%TO.P,ArduinoNano1,5*%
%TO.N,/D2*%
X134905001Y-92985001D03*
%TO.P,ArduinoNano1,20*%
%TO.N,Net-(ArduinoNano1-Pad20)*%
X150145001Y-108225001D03*
%TO.P,ArduinoNano1,4*%
%TO.N,GND*%
X134905001Y-90445001D03*
%TO.P,ArduinoNano1,19*%
%TO.N,/A0*%
X150145001Y-110765001D03*
%TO.P,ArduinoNano1,3*%
%TO.N,Net-(ArduinoNano1-Pad3)*%
X134905001Y-87905001D03*
%TO.P,ArduinoNano1,18*%
%TO.N,Net-(ArduinoNano1-Pad18)*%
X150145001Y-113305001D03*
%TO.P,ArduinoNano1,2*%
%TO.N,Net-(ArduinoNano1-Pad2)*%
X134905001Y-85365001D03*
%TO.P,ArduinoNano1,17*%
%TO.N,Net-(ArduinoNano1-Pad17)*%
X150145001Y-115845001D03*
D14*
%TO.P,ArduinoNano1,1*%
%TO.N,Net-(ArduinoNano1-Pad1)*%
X134905001Y-82825001D03*
%TD*%
D15*
%TO.P,ESC1,3*%
%TO.N,GND*%
X120380000Y-113060000D03*
%TO.P,ESC1,2*%
%TO.N,Net-(ESC1-Pad2)*%
X120380000Y-115600000D03*
D16*
%TO.P,ESC1,1*%
%TO.N,/D10(PWM)*%
X120380000Y-118140000D03*
%TD*%
D12*
%TO.P,POT1,1*%
%TO.N,/5V*%
X158750000Y-104140000D03*
%TO.P,POT1,2*%
%TO.N,/A0*%
X158750000Y-101640000D03*
%TO.P,POT1,3*%
%TO.N,GND*%
X158750000Y-99140000D03*
%TD*%
D17*
%TO.N,Net-(LED1-Pad2)*%
X111540000Y-96520000D02*
X116840000Y-96520000D01*
%TO.N,Net-(LED2-Pad2)*%
X116160000Y-101600000D02*
X116840000Y-101600000D01*
X111540000Y-106220000D02*
X116160000Y-101600000D01*
%TO.N,Net-(LED3-Pad2)*%
X111440000Y-112080000D02*
X116840000Y-106680000D01*
X111440000Y-116130000D02*
X111440000Y-112080000D01*
%TO.N,/5V*%
X158750000Y-104140000D02*
X156210000Y-104140000D01*
X156210000Y-104140000D02*
X154940000Y-102870000D01*
X154940000Y-95240000D02*
X150145001Y-90445001D01*
X154940000Y-102870000D02*
X154940000Y-95240000D01*
%TO.N,/D2*%
X127020000Y-96520000D02*
X127000000Y-96520000D01*
X134714999Y-92985001D02*
X134905001Y-92985001D01*
X131180000Y-96520000D02*
X134714999Y-92985001D01*
X127000000Y-96520000D02*
X131180000Y-96520000D01*
%TO.N,/D3*%
X128830002Y-101600000D02*
X134905001Y-95525001D01*
X127000000Y-101600000D02*
X128830002Y-101600000D01*
%TO.N,/D4*%
X127000000Y-106680000D02*
X127000000Y-104900000D01*
X133834999Y-98065001D02*
X134905001Y-98065001D01*
X127000000Y-104900000D02*
X133834999Y-98065001D01*
%TO.N,/D10(PWM)*%
X130070002Y-118140000D02*
X134905001Y-113305001D01*
X120380000Y-118140000D02*
X130070002Y-118140000D01*
%TD*%
D18*
%TO.N,GND*%
X162433000Y-126873000D02*
X104267000Y-126873000D01*
X104267000Y-117030000D01*
X107361928Y-117030000D01*
X107374188Y-117154482D01*
X107410498Y-117274180D01*
X107469463Y-117384494D01*
X107548815Y-117481185D01*
X107645506Y-117560537D01*
X107755820Y-117619502D01*
X107875518Y-117655812D01*
X108000000Y-117668072D01*
X108614250Y-117665000D01*
X108773000Y-117506250D01*
X108773000Y-116257000D01*
X107523750Y-116257000D01*
X107365000Y-116415750D01*
X107361928Y-117030000D01*
X104267000Y-117030000D01*
X104267000Y-115230000D01*
X107361928Y-115230000D01*
X107365000Y-115844250D01*
X107523750Y-116003000D01*
X108773000Y-116003000D01*
X108773000Y-114753750D01*
X109027000Y-114753750D01*
X109027000Y-116003000D01*
X109047000Y-116003000D01*
X109047000Y-116257000D01*
X109027000Y-116257000D01*
X109027000Y-117506250D01*
X109185750Y-117665000D01*
X109800000Y-117668072D01*
X109924482Y-117655812D01*
X110044180Y-117619502D01*
X110154494Y-117560537D01*
X110251185Y-117481185D01*
X110330537Y-117384494D01*
X110389502Y-117274180D01*
X110395056Y-117255873D01*
X110461495Y-117322312D01*
X110712905Y-117490299D01*
X110992257Y-117606011D01*
X111288816Y-117665000D01*
X111591184Y-117665000D01*
X111887743Y-117606011D01*
X112167095Y-117490299D01*
X112418505Y-117322312D01*
X112450817Y-117290000D01*
X118891928Y-117290000D01*
X118891928Y-118990000D01*
X118904188Y-119114482D01*
X118940498Y-119234180D01*
X118999463Y-119344494D01*
X119078815Y-119441185D01*
X119175506Y-119520537D01*
X119285820Y-119579502D01*
X119405518Y-119615812D01*
X119530000Y-119628072D01*
X121230000Y-119628072D01*
X121354482Y-119615812D01*
X121474180Y-119579502D01*
X121584494Y-119520537D01*
X121681185Y-119441185D01*
X121760537Y-119344494D01*
X121819502Y-119234180D01*
X121855812Y-119114482D01*
X121868072Y-118990000D01*
X121868072Y-118900000D01*
X130032680Y-118900000D01*
X130070002Y-118903676D01*
X130107324Y-118900000D01*
X130107335Y-118900000D01*
X130218988Y-118889003D01*
X130362249Y-118845546D01*
X130494278Y-118774974D01*
X130610003Y-118680001D01*
X130633806Y-118650997D01*
X133470001Y-115814803D01*
X133470001Y-115986336D01*
X133525148Y-116263575D01*
X133633321Y-116524728D01*
X133790364Y-116759760D01*
X133990242Y-116959638D01*
X134222760Y-117115001D01*
X133990242Y-117270364D01*
X133790364Y-117470242D01*
X133633321Y-117705274D01*
X133525148Y-117966427D01*
X133470001Y-118243666D01*
X133470001Y-118526336D01*
X133525148Y-118803575D01*
X133633321Y-119064728D01*
X133790364Y-119299760D01*
X133990242Y-119499638D01*
X134225274Y-119656681D01*
X134486427Y-119764854D01*
X134763666Y-119820001D01*
X135046336Y-119820001D01*
X135323575Y-119764854D01*
X135584728Y-119656681D01*
X135819760Y-119499638D01*
X136019638Y-119299760D01*
X136176681Y-119064728D01*
X136284854Y-118803575D01*
X136340001Y-118526336D01*
X136340001Y-118243666D01*
X136284854Y-117966427D01*
X136176681Y-117705274D01*
X136019638Y-117470242D01*
X135819760Y-117270364D01*
X135587242Y-117115001D01*
X135819760Y-116959638D01*
X136019638Y-116759760D01*
X136176681Y-116524728D01*
X136284854Y-116263575D01*
X136340001Y-115986336D01*
X136340001Y-115703666D01*
X136284854Y-115426427D01*
X136176681Y-115165274D01*
X136019638Y-114930242D01*
X135819760Y-114730364D01*
X135587242Y-114575001D01*
X135819760Y-114419638D01*
X136019638Y-114219760D01*
X136176681Y-113984728D01*
X136284854Y-113723575D01*
X136340001Y-113446336D01*
X136340001Y-113163666D01*
X136284854Y-112886427D01*
X136176681Y-112625274D01*
X136019638Y-112390242D01*
X135819760Y-112190364D01*
X135587242Y-112035001D01*
X135819760Y-111879638D01*
X136019638Y-111679760D01*
X136176681Y-111444728D01*
X136284854Y-111183575D01*
X136340001Y-110906336D01*
X136340001Y-110623666D01*
X136284854Y-110346427D01*
X136176681Y-110085274D01*
X136019638Y-109850242D01*
X135819760Y-109650364D01*
X135587242Y-109495001D01*
X135819760Y-109339638D01*
X136019638Y-109139760D01*
X136176681Y-108904728D01*
X136284854Y-108643575D01*
X136340001Y-108366336D01*
X136340001Y-108083666D01*
X136284854Y-107806427D01*
X136176681Y-107545274D01*
X136019638Y-107310242D01*
X135819760Y-107110364D01*
X135587242Y-106955001D01*
X135819760Y-106799638D01*
X136019638Y-106599760D01*
X136176681Y-106364728D01*
X136284854Y-106103575D01*
X136340001Y-105826336D01*
X136340001Y-105543666D01*
X136284854Y-105266427D01*
X136176681Y-105005274D01*
X136019638Y-104770242D01*
X135819760Y-104570364D01*
X135587242Y-104415001D01*
X135819760Y-104259638D01*
X136019638Y-104059760D01*
X136176681Y-103824728D01*
X136284854Y-103563575D01*
X136340001Y-103286336D01*
X136340001Y-103003666D01*
X136284854Y-102726427D01*
X136176681Y-102465274D01*
X136019638Y-102230242D01*
X135819760Y-102030364D01*
X135587242Y-101875001D01*
X135819760Y-101719638D01*
X136019638Y-101519760D01*
X136176681Y-101284728D01*
X136284854Y-101023575D01*
X136340001Y-100746336D01*
X136340001Y-100463666D01*
X136284854Y-100186427D01*
X136176681Y-99925274D01*
X136019638Y-99690242D01*
X135819760Y-99490364D01*
X135587242Y-99335001D01*
X135819760Y-99179638D01*
X136019638Y-98979760D01*
X136176681Y-98744728D01*
X136284854Y-98483575D01*
X136340001Y-98206336D01*
X136340001Y-97923666D01*
X136284854Y-97646427D01*
X136176681Y-97385274D01*
X136019638Y-97150242D01*
X135819760Y-96950364D01*
X135587242Y-96795001D01*
X135819760Y-96639638D01*
X136019638Y-96439760D01*
X136176681Y-96204728D01*
X136284854Y-95943575D01*
X136340001Y-95666336D01*
X136340001Y-95383666D01*
X136284854Y-95106427D01*
X136176681Y-94845274D01*
X136019638Y-94610242D01*
X135819760Y-94410364D01*
X135587242Y-94255001D01*
X135819760Y-94099638D01*
X136019638Y-93899760D01*
X136176681Y-93664728D01*
X136284854Y-93403575D01*
X136340001Y-93126336D01*
X136340001Y-92843666D01*
X136284854Y-92566427D01*
X136176681Y-92305274D01*
X136019638Y-92070242D01*
X135819760Y-91870364D01*
X135584728Y-91713321D01*
X135574136Y-91708934D01*
X135760132Y-91597386D01*
X135968520Y-91408415D01*
X136136038Y-91182421D01*
X136256247Y-90928088D01*
X136296905Y-90794040D01*
X136174916Y-90572001D01*
X135032001Y-90572001D01*
X135032001Y-90592001D01*
X134778001Y-90592001D01*
X134778001Y-90572001D01*
X133635086Y-90572001D01*
X133513097Y-90794040D01*
X133553755Y-90928088D01*
X133673964Y-91182421D01*
X133841482Y-91408415D01*
X134049870Y-91597386D01*
X134235866Y-91708934D01*
X134225274Y-91713321D01*
X133990242Y-91870364D01*
X133790364Y-92070242D01*
X133633321Y-92305274D01*
X133525148Y-92566427D01*
X133470001Y-92843666D01*
X133470001Y-93126336D01*
X133474789Y-93150409D01*
X130865199Y-95760000D01*
X128218043Y-95760000D01*
X128114637Y-95605241D01*
X127914759Y-95405363D01*
X127679727Y-95248320D01*
X127418574Y-95140147D01*
X127141335Y-95085000D01*
X126858665Y-95085000D01*
X126581426Y-95140147D01*
X126320273Y-95248320D01*
X126085241Y-95405363D01*
X125885363Y-95605241D01*
X125728320Y-95840273D01*
X125620147Y-96101426D01*
X125565000Y-96378665D01*
X125565000Y-96661335D01*
X125620147Y-96938574D01*
X125728320Y-97199727D01*
X125885363Y-97434759D01*
X126085241Y-97634637D01*
X126320273Y-97791680D01*
X126581426Y-97899853D01*
X126858665Y-97955000D01*
X127141335Y-97955000D01*
X127418574Y-97899853D01*
X127679727Y-97791680D01*
X127914759Y-97634637D01*
X128114637Y-97434759D01*
X128218043Y-97280000D01*
X131142678Y-97280000D01*
X131180000Y-97283676D01*
X131217322Y-97280000D01*
X131217333Y-97280000D01*
X131328986Y-97269003D01*
X131472247Y-97225546D01*
X131604276Y-97154974D01*
X131720001Y-97060001D01*
X131743804Y-97030997D01*
X133489584Y-95285218D01*
X133470001Y-95383666D01*
X133470001Y-95666336D01*
X133506313Y-95848887D01*
X128515201Y-100840000D01*
X128218043Y-100840000D01*
X128114637Y-100685241D01*
X127914759Y-100485363D01*
X127679727Y-100328320D01*
X127418574Y-100220147D01*
X127141335Y-100165000D01*
X126858665Y-100165000D01*
X126581426Y-100220147D01*
X126320273Y-100328320D01*
X126085241Y-100485363D01*
X125885363Y-100685241D01*
X125728320Y-100920273D01*
X125620147Y-101181426D01*
X125565000Y-101458665D01*
X125565000Y-101741335D01*
X125620147Y-102018574D01*
X125728320Y-102279727D01*
X125885363Y-102514759D01*
X126085241Y-102714637D01*
X126320273Y-102871680D01*
X126581426Y-102979853D01*
X126858665Y-103035000D01*
X127141335Y-103035000D01*
X127418574Y-102979853D01*
X127679727Y-102871680D01*
X127914759Y-102714637D01*
X128114637Y-102514759D01*
X128218043Y-102360000D01*
X128465199Y-102360000D01*
X126488998Y-104336201D01*
X126460000Y-104359999D01*
X126436202Y-104388997D01*
X126436201Y-104388998D01*
X126365026Y-104475724D01*
X126294454Y-104607754D01*
X126271023Y-104685000D01*
X126257222Y-104730498D01*
X126250998Y-104751015D01*
X126236324Y-104900000D01*
X126240001Y-104937332D01*
X126240001Y-105461956D01*
X126085241Y-105565363D01*
X125885363Y-105765241D01*
X125728320Y-106000273D01*
X125620147Y-106261426D01*
X125565000Y-106538665D01*
X125565000Y-106821335D01*
X125620147Y-107098574D01*
X125728320Y-107359727D01*
X125885363Y-107594759D01*
X126085241Y-107794637D01*
X126320273Y-107951680D01*
X126581426Y-108059853D01*
X126858665Y-108115000D01*
X127141335Y-108115000D01*
X127418574Y-108059853D01*
X127679727Y-107951680D01*
X127914759Y-107794637D01*
X128114637Y-107594759D01*
X128271680Y-107359727D01*
X128379853Y-107098574D01*
X128435000Y-106821335D01*
X128435000Y-106538665D01*
X128379853Y-106261426D01*
X128271680Y-106000273D01*
X128114637Y-105765241D01*
X127914759Y-105565363D01*
X127760000Y-105461957D01*
X127760000Y-105214801D01*
X133892703Y-99082099D01*
X133990242Y-99179638D01*
X134222760Y-99335001D01*
X133990242Y-99490364D01*
X133790364Y-99690242D01*
X133633321Y-99925274D01*
X133525148Y-100186427D01*
X133470001Y-100463666D01*
X133470001Y-100746336D01*
X133525148Y-101023575D01*
X133633321Y-101284728D01*
X133790364Y-101519760D01*
X133990242Y-101719638D01*
X134222760Y-101875001D01*
X133990242Y-102030364D01*
X133790364Y-102230242D01*
X133633321Y-102465274D01*
X133525148Y-102726427D01*
X133470001Y-103003666D01*
X133470001Y-103286336D01*
X133525148Y-103563575D01*
X133633321Y-103824728D01*
X133790364Y-104059760D01*
X133990242Y-104259638D01*
X134222760Y-104415001D01*
X133990242Y-104570364D01*
X133790364Y-104770242D01*
X133633321Y-105005274D01*
X133525148Y-105266427D01*
X133470001Y-105543666D01*
X133470001Y-105826336D01*
X133525148Y-106103575D01*
X133633321Y-106364728D01*
X133790364Y-106599760D01*
X133990242Y-106799638D01*
X134222760Y-106955001D01*
X133990242Y-107110364D01*
X133790364Y-107310242D01*
X133633321Y-107545274D01*
X133525148Y-107806427D01*
X133470001Y-108083666D01*
X133470001Y-108366336D01*
X133525148Y-108643575D01*
X133633321Y-108904728D01*
X133790364Y-109139760D01*
X133990242Y-109339638D01*
X134222760Y-109495001D01*
X133990242Y-109650364D01*
X133790364Y-109850242D01*
X133633321Y-110085274D01*
X133525148Y-110346427D01*
X133470001Y-110623666D01*
X133470001Y-110906336D01*
X133525148Y-111183575D01*
X133633321Y-111444728D01*
X133790364Y-111679760D01*
X133990242Y-111879638D01*
X134222760Y-112035001D01*
X133990242Y-112190364D01*
X133790364Y-112390242D01*
X133633321Y-112625274D01*
X133525148Y-112886427D01*
X133470001Y-113163666D01*
X133470001Y-113446336D01*
X133506313Y-113628887D01*
X129755201Y-117380000D01*
X121868072Y-117380000D01*
X121868072Y-117290000D01*
X121855812Y-117165518D01*
X121819502Y-117045820D01*
X121760537Y-116935506D01*
X121681185Y-116838815D01*
X121584494Y-116759463D01*
X121474180Y-116700498D01*
X121401620Y-116678487D01*
X121533475Y-116546632D01*
X121695990Y-116303411D01*
X121807932Y-116033158D01*
X121865000Y-115746260D01*
X121865000Y-115453740D01*
X121807932Y-115166842D01*
X121695990Y-114896589D01*
X121533475Y-114653368D01*
X121326632Y-114446525D01*
X121144466Y-114324805D01*
X121261355Y-114255178D01*
X121477588Y-114060269D01*
X121651641Y-113826920D01*
X121776825Y-113564099D01*
X121821476Y-113416890D01*
X121700155Y-113187000D01*
X120507000Y-113187000D01*
X120507000Y-113207000D01*
X120253000Y-113207000D01*
X120253000Y-113187000D01*
X119059845Y-113187000D01*
X118938524Y-113416890D01*
X118983175Y-113564099D01*
X119108359Y-113826920D01*
X119282412Y-114060269D01*
X119498645Y-114255178D01*
X119615534Y-114324805D01*
X119433368Y-114446525D01*
X119226525Y-114653368D01*
X119064010Y-114896589D01*
X118952068Y-115166842D01*
X118895000Y-115453740D01*
X118895000Y-115746260D01*
X118952068Y-116033158D01*
X119064010Y-116303411D01*
X119226525Y-116546632D01*
X119358380Y-116678487D01*
X119285820Y-116700498D01*
X119175506Y-116759463D01*
X119078815Y-116838815D01*
X118999463Y-116935506D01*
X118940498Y-117045820D01*
X118904188Y-117165518D01*
X118891928Y-117290000D01*
X112450817Y-117290000D01*
X112632312Y-117108505D01*
X112800299Y-116857095D01*
X112916011Y-116577743D01*
X112975000Y-116281184D01*
X112975000Y-115978816D01*
X112916011Y-115682257D01*
X112800299Y-115402905D01*
X112632312Y-115151495D01*
X112418505Y-114937688D01*
X112200000Y-114791687D01*
X112200000Y-112703110D01*
X118938524Y-112703110D01*
X119059845Y-112933000D01*
X120253000Y-112933000D01*
X120253000Y-111739186D01*
X120507000Y-111739186D01*
X120507000Y-112933000D01*
X121700155Y-112933000D01*
X121821476Y-112703110D01*
X121776825Y-112555901D01*
X121651641Y-112293080D01*
X121477588Y-112059731D01*
X121261355Y-111864822D01*
X121011252Y-111715843D01*
X120736891Y-111618519D01*
X120507000Y-111739186D01*
X120253000Y-111739186D01*
X120023109Y-111618519D01*
X119748748Y-111715843D01*
X119498645Y-111864822D01*
X119282412Y-112059731D01*
X119108359Y-112293080D01*
X118983175Y-112555901D01*
X118938524Y-112703110D01*
X112200000Y-112703110D01*
X112200000Y-112394801D01*
X116516114Y-108078688D01*
X116698665Y-108115000D01*
X116981335Y-108115000D01*
X117258574Y-108059853D01*
X117519727Y-107951680D01*
X117754759Y-107794637D01*
X117954637Y-107594759D01*
X118111680Y-107359727D01*
X118219853Y-107098574D01*
X118275000Y-106821335D01*
X118275000Y-106538665D01*
X118219853Y-106261426D01*
X118111680Y-106000273D01*
X117954637Y-105765241D01*
X117754759Y-105565363D01*
X117519727Y-105408320D01*
X117258574Y-105300147D01*
X116981335Y-105245000D01*
X116698665Y-105245000D01*
X116421426Y-105300147D01*
X116160273Y-105408320D01*
X115925241Y-105565363D01*
X115725363Y-105765241D01*
X115568320Y-106000273D01*
X115460147Y-106261426D01*
X115405000Y-106538665D01*
X115405000Y-106821335D01*
X115441312Y-107003886D01*
X110928998Y-111516201D01*
X110900000Y-111539999D01*
X110876202Y-111568997D01*
X110876201Y-111568998D01*
X110805026Y-111655724D01*
X110734454Y-111787754D01*
X110711077Y-111864822D01*
X110692778Y-111925148D01*
X110690998Y-111931015D01*
X110676324Y-112080000D01*
X110680001Y-112117332D01*
X110680000Y-114791687D01*
X110461495Y-114937688D01*
X110395056Y-115004127D01*
X110389502Y-114985820D01*
X110330537Y-114875506D01*
X110251185Y-114778815D01*
X110154494Y-114699463D01*
X110044180Y-114640498D01*
X109924482Y-114604188D01*
X109800000Y-114591928D01*
X109185750Y-114595000D01*
X109027000Y-114753750D01*
X108773000Y-114753750D01*
X108614250Y-114595000D01*
X108000000Y-114591928D01*
X107875518Y-114604188D01*
X107755820Y-114640498D01*
X107645506Y-114699463D01*
X107548815Y-114778815D01*
X107469463Y-114875506D01*
X107410498Y-114985820D01*
X107374188Y-115105518D01*
X107361928Y-115230000D01*
X104267000Y-115230000D01*
X104267000Y-107120000D01*
X107461928Y-107120000D01*
X107474188Y-107244482D01*
X107510498Y-107364180D01*
X107569463Y-107474494D01*
X107648815Y-107571185D01*
X107745506Y-107650537D01*
X107855820Y-107709502D01*
X107975518Y-107745812D01*
X108100000Y-107758072D01*
X108714250Y-107755000D01*
X108873000Y-107596250D01*
X108873000Y-106347000D01*
X107623750Y-106347000D01*
X107465000Y-106505750D01*
X107461928Y-107120000D01*
X104267000Y-107120000D01*
X104267000Y-105320000D01*
X107461928Y-105320000D01*
X107465000Y-105934250D01*
X107623750Y-106093000D01*
X108873000Y-106093000D01*
X108873000Y-104843750D01*
X109127000Y-104843750D01*
X109127000Y-106093000D01*
X109147000Y-106093000D01*
X109147000Y-106347000D01*
X109127000Y-106347000D01*
X109127000Y-107596250D01*
X109285750Y-107755000D01*
X109900000Y-107758072D01*
X110024482Y-107745812D01*
X110144180Y-107709502D01*
X110254494Y-107650537D01*
X110351185Y-107571185D01*
X110430537Y-107474494D01*
X110489502Y-107364180D01*
X110495056Y-107345873D01*
X110561495Y-107412312D01*
X110812905Y-107580299D01*
X111092257Y-107696011D01*
X111388816Y-107755000D01*
X111691184Y-107755000D01*
X111987743Y-107696011D01*
X112267095Y-107580299D01*
X112518505Y-107412312D01*
X112732312Y-107198505D01*
X112900299Y-106947095D01*
X113016011Y-106667743D01*
X113075000Y-106371184D01*
X113075000Y-106068816D01*
X113023731Y-105811070D01*
X116042089Y-102792712D01*
X116160273Y-102871680D01*
X116421426Y-102979853D01*
X116698665Y-103035000D01*
X116981335Y-103035000D01*
X117258574Y-102979853D01*
X117519727Y-102871680D01*
X117754759Y-102714637D01*
X117954637Y-102514759D01*
X118111680Y-102279727D01*
X118219853Y-102018574D01*
X118275000Y-101741335D01*
X118275000Y-101458665D01*
X118219853Y-101181426D01*
X118111680Y-100920273D01*
X117954637Y-100685241D01*
X117754759Y-100485363D01*
X117519727Y-100328320D01*
X117258574Y-100220147D01*
X116981335Y-100165000D01*
X116698665Y-100165000D01*
X116421426Y-100220147D01*
X116160273Y-100328320D01*
X115925241Y-100485363D01*
X115725363Y-100685241D01*
X115568320Y-100920273D01*
X115460147Y-101181426D01*
X115449315Y-101235883D01*
X111948930Y-104736269D01*
X111691184Y-104685000D01*
X111388816Y-104685000D01*
X111092257Y-104743989D01*
X110812905Y-104859701D01*
X110561495Y-105027688D01*
X110495056Y-105094127D01*
X110489502Y-105075820D01*
X110430537Y-104965506D01*
X110351185Y-104868815D01*
X110254494Y-104789463D01*
X110144180Y-104730498D01*
X110024482Y-104694188D01*
X109900000Y-104681928D01*
X109285750Y-104685000D01*
X109127000Y-104843750D01*
X108873000Y-104843750D01*
X108714250Y-104685000D01*
X108100000Y-104681928D01*
X107975518Y-104694188D01*
X107855820Y-104730498D01*
X107745506Y-104789463D01*
X107648815Y-104868815D01*
X107569463Y-104965506D01*
X107510498Y-105075820D01*
X107474188Y-105195518D01*
X107461928Y-105320000D01*
X104267000Y-105320000D01*
X104267000Y-97420000D01*
X107461928Y-97420000D01*
X107474188Y-97544482D01*
X107510498Y-97664180D01*
X107569463Y-97774494D01*
X107648815Y-97871185D01*
X107745506Y-97950537D01*
X107855820Y-98009502D01*
X107975518Y-98045812D01*
X108100000Y-98058072D01*
X108714250Y-98055000D01*
X108873000Y-97896250D01*
X108873000Y-96647000D01*
X107623750Y-96647000D01*
X107465000Y-96805750D01*
X107461928Y-97420000D01*
X104267000Y-97420000D01*
X104267000Y-95620000D01*
X107461928Y-95620000D01*
X107465000Y-96234250D01*
X107623750Y-96393000D01*
X108873000Y-96393000D01*
X108873000Y-95143750D01*
X109127000Y-95143750D01*
X109127000Y-96393000D01*
X109147000Y-96393000D01*
X109147000Y-96647000D01*
X109127000Y-96647000D01*
X109127000Y-97896250D01*
X109285750Y-98055000D01*
X109900000Y-98058072D01*
X110024482Y-98045812D01*
X110144180Y-98009502D01*
X110254494Y-97950537D01*
X110351185Y-97871185D01*
X110430537Y-97774494D01*
X110489502Y-97664180D01*
X110495056Y-97645873D01*
X110561495Y-97712312D01*
X110812905Y-97880299D01*
X111092257Y-97996011D01*
X111388816Y-98055000D01*
X111691184Y-98055000D01*
X111987743Y-97996011D01*
X112267095Y-97880299D01*
X112518505Y-97712312D01*
X112732312Y-97498505D01*
X112878313Y-97280000D01*
X115621957Y-97280000D01*
X115725363Y-97434759D01*
X115925241Y-97634637D01*
X116160273Y-97791680D01*
X116421426Y-97899853D01*
X116698665Y-97955000D01*
X116981335Y-97955000D01*
X117258574Y-97899853D01*
X117519727Y-97791680D01*
X117754759Y-97634637D01*
X117954637Y-97434759D01*
X118111680Y-97199727D01*
X118219853Y-96938574D01*
X118275000Y-96661335D01*
X118275000Y-96378665D01*
X118219853Y-96101426D01*
X118111680Y-95840273D01*
X117954637Y-95605241D01*
X117754759Y-95405363D01*
X117519727Y-95248320D01*
X117258574Y-95140147D01*
X116981335Y-95085000D01*
X116698665Y-95085000D01*
X116421426Y-95140147D01*
X116160273Y-95248320D01*
X115925241Y-95405363D01*
X115725363Y-95605241D01*
X115621957Y-95760000D01*
X112878313Y-95760000D01*
X112732312Y-95541495D01*
X112518505Y-95327688D01*
X112267095Y-95159701D01*
X111987743Y-95043989D01*
X111691184Y-94985000D01*
X111388816Y-94985000D01*
X111092257Y-95043989D01*
X110812905Y-95159701D01*
X110561495Y-95327688D01*
X110495056Y-95394127D01*
X110489502Y-95375820D01*
X110430537Y-95265506D01*
X110351185Y-95168815D01*
X110254494Y-95089463D01*
X110144180Y-95030498D01*
X110024482Y-94994188D01*
X109900000Y-94981928D01*
X109285750Y-94985000D01*
X109127000Y-95143750D01*
X108873000Y-95143750D01*
X108714250Y-94985000D01*
X108100000Y-94981928D01*
X107975518Y-94994188D01*
X107855820Y-95030498D01*
X107745506Y-95089463D01*
X107648815Y-95168815D01*
X107569463Y-95265506D01*
X107510498Y-95375820D01*
X107474188Y-95495518D01*
X107461928Y-95620000D01*
X104267000Y-95620000D01*
X104267000Y-82025001D01*
X133466929Y-82025001D01*
X133466929Y-83625001D01*
X133479189Y-83749483D01*
X133515499Y-83869181D01*
X133574464Y-83979495D01*
X133653816Y-84076186D01*
X133750507Y-84155538D01*
X133860821Y-84214503D01*
X133980519Y-84250813D01*
X133988962Y-84251644D01*
X133790364Y-84450242D01*
X133633321Y-84685274D01*
X133525148Y-84946427D01*
X133470001Y-85223666D01*
X133470001Y-85506336D01*
X133525148Y-85783575D01*
X133633321Y-86044728D01*
X133790364Y-86279760D01*
X133990242Y-86479638D01*
X134222760Y-86635001D01*
X133990242Y-86790364D01*
X133790364Y-86990242D01*
X133633321Y-87225274D01*
X133525148Y-87486427D01*
X133470001Y-87763666D01*
X133470001Y-88046336D01*
X133525148Y-88323575D01*
X133633321Y-88584728D01*
X133790364Y-88819760D01*
X133990242Y-89019638D01*
X134225274Y-89176681D01*
X134235866Y-89181068D01*
X134049870Y-89292616D01*
X133841482Y-89481587D01*
X133673964Y-89707581D01*
X133553755Y-89961914D01*
X133513097Y-90095962D01*
X133635086Y-90318001D01*
X134778001Y-90318001D01*
X134778001Y-90298001D01*
X135032001Y-90298001D01*
X135032001Y-90318001D01*
X136174916Y-90318001D01*
X136296905Y-90095962D01*
X136256247Y-89961914D01*
X136136038Y-89707581D01*
X135968520Y-89481587D01*
X135760132Y-89292616D01*
X135574136Y-89181068D01*
X135584728Y-89176681D01*
X135819760Y-89019638D01*
X136019638Y-88819760D01*
X136176681Y-88584728D01*
X136284854Y-88323575D01*
X136340001Y-88046336D01*
X136340001Y-87763666D01*
X148710001Y-87763666D01*
X148710001Y-88046336D01*
X148765148Y-88323575D01*
X148873321Y-88584728D01*
X149030364Y-88819760D01*
X149230242Y-89019638D01*
X149462760Y-89175001D01*
X149230242Y-89330364D01*
X149030364Y-89530242D01*
X148873321Y-89765274D01*
X148765148Y-90026427D01*
X148710001Y-90303666D01*
X148710001Y-90586336D01*
X148765148Y-90863575D01*
X148873321Y-91124728D01*
X149030364Y-91359760D01*
X149230242Y-91559638D01*
X149462760Y-91715001D01*
X149230242Y-91870364D01*
X149030364Y-92070242D01*
X148873321Y-92305274D01*
X148765148Y-92566427D01*
X148710001Y-92843666D01*
X148710001Y-93126336D01*
X148765148Y-93403575D01*
X148873321Y-93664728D01*
X149030364Y-93899760D01*
X149230242Y-94099638D01*
X149462760Y-94255001D01*
X149230242Y-94410364D01*
X149030364Y-94610242D01*
X148873321Y-94845274D01*
X148765148Y-95106427D01*
X148710001Y-95383666D01*
X148710001Y-95666336D01*
X148765148Y-95943575D01*
X148873321Y-96204728D01*
X149030364Y-96439760D01*
X149230242Y-96639638D01*
X149462760Y-96795001D01*
X149230242Y-96950364D01*
X149030364Y-97150242D01*
X148873321Y-97385274D01*
X148765148Y-97646427D01*
X148710001Y-97923666D01*
X148710001Y-98206336D01*
X148765148Y-98483575D01*
X148873321Y-98744728D01*
X149030364Y-98979760D01*
X149230242Y-99179638D01*
X149462760Y-99335001D01*
X149230242Y-99490364D01*
X149030364Y-99690242D01*
X148873321Y-99925274D01*
X148765148Y-100186427D01*
X148710001Y-100463666D01*
X148710001Y-100746336D01*
X148765148Y-101023575D01*
X148873321Y-101284728D01*
X149030364Y-101519760D01*
X149230242Y-101719638D01*
X149462760Y-101875001D01*
X149230242Y-102030364D01*
X149030364Y-102230242D01*
X148873321Y-102465274D01*
X148765148Y-102726427D01*
X148710001Y-103003666D01*
X148710001Y-103286336D01*
X148765148Y-103563575D01*
X148873321Y-103824728D01*
X149030364Y-104059760D01*
X149230242Y-104259638D01*
X149462760Y-104415001D01*
X149230242Y-104570364D01*
X149030364Y-104770242D01*
X148873321Y-105005274D01*
X148765148Y-105266427D01*
X148710001Y-105543666D01*
X148710001Y-105826336D01*
X148765148Y-106103575D01*
X148873321Y-106364728D01*
X149030364Y-106599760D01*
X149230242Y-106799638D01*
X149462760Y-106955001D01*
X149230242Y-107110364D01*
X149030364Y-107310242D01*
X148873321Y-107545274D01*
X148765148Y-107806427D01*
X148710001Y-108083666D01*
X148710001Y-108366336D01*
X148765148Y-108643575D01*
X148873321Y-108904728D01*
X149030364Y-109139760D01*
X149230242Y-109339638D01*
X149462760Y-109495001D01*
X149230242Y-109650364D01*
X149030364Y-109850242D01*
X148873321Y-110085274D01*
X148765148Y-110346427D01*
X148710001Y-110623666D01*
X148710001Y-110906336D01*
X148765148Y-111183575D01*
X148873321Y-111444728D01*
X149030364Y-111679760D01*
X149230242Y-111879638D01*
X149462760Y-112035001D01*
X149230242Y-112190364D01*
X149030364Y-112390242D01*
X148873321Y-112625274D01*
X148765148Y-112886427D01*
X148710001Y-113163666D01*
X148710001Y-113446336D01*
X148765148Y-113723575D01*
X148873321Y-113984728D01*
X149030364Y-114219760D01*
X149230242Y-114419638D01*
X149462760Y-114575001D01*
X149230242Y-114730364D01*
X149030364Y-114930242D01*
X148873321Y-115165274D01*
X148765148Y-115426427D01*
X148710001Y-115703666D01*
X148710001Y-115986336D01*
X148765148Y-116263575D01*
X148873321Y-116524728D01*
X149030364Y-116759760D01*
X149230242Y-116959638D01*
X149462760Y-117115001D01*
X149230242Y-117270364D01*
X149030364Y-117470242D01*
X148873321Y-117705274D01*
X148765148Y-117966427D01*
X148710001Y-118243666D01*
X148710001Y-118526336D01*
X148765148Y-118803575D01*
X148873321Y-119064728D01*
X149030364Y-119299760D01*
X149230242Y-119499638D01*
X149465274Y-119656681D01*
X149726427Y-119764854D01*
X150003666Y-119820001D01*
X150286336Y-119820001D01*
X150563575Y-119764854D01*
X150824728Y-119656681D01*
X151059760Y-119499638D01*
X151259638Y-119299760D01*
X151416681Y-119064728D01*
X151524854Y-118803575D01*
X151580001Y-118526336D01*
X151580001Y-118243666D01*
X151524854Y-117966427D01*
X151416681Y-117705274D01*
X151259638Y-117470242D01*
X151059760Y-117270364D01*
X150827242Y-117115001D01*
X151059760Y-116959638D01*
X151259638Y-116759760D01*
X151416681Y-116524728D01*
X151524854Y-116263575D01*
X151580001Y-115986336D01*
X151580001Y-115703666D01*
X151524854Y-115426427D01*
X151416681Y-115165274D01*
X151259638Y-114930242D01*
X151059760Y-114730364D01*
X150827242Y-114575001D01*
X151059760Y-114419638D01*
X151259638Y-114219760D01*
X151416681Y-113984728D01*
X151524854Y-113723575D01*
X151580001Y-113446336D01*
X151580001Y-113163666D01*
X151524854Y-112886427D01*
X151416681Y-112625274D01*
X151259638Y-112390242D01*
X151059760Y-112190364D01*
X150827242Y-112035001D01*
X151059760Y-111879638D01*
X151259638Y-111679760D01*
X151416681Y-111444728D01*
X151524854Y-111183575D01*
X151580001Y-110906336D01*
X151580001Y-110623666D01*
X151524854Y-110346427D01*
X151416681Y-110085274D01*
X151259638Y-109850242D01*
X151059760Y-109650364D01*
X150827242Y-109495001D01*
X151059760Y-109339638D01*
X151259638Y-109139760D01*
X151416681Y-108904728D01*
X151524854Y-108643575D01*
X151580001Y-108366336D01*
X151580001Y-108083666D01*
X151524854Y-107806427D01*
X151416681Y-107545274D01*
X151259638Y-107310242D01*
X151059760Y-107110364D01*
X150827242Y-106955001D01*
X151059760Y-106799638D01*
X151259638Y-106599760D01*
X151416681Y-106364728D01*
X151524854Y-106103575D01*
X151580001Y-105826336D01*
X151580001Y-105543666D01*
X151524854Y-105266427D01*
X151416681Y-105005274D01*
X151259638Y-104770242D01*
X151059760Y-104570364D01*
X150827242Y-104415001D01*
X151059760Y-104259638D01*
X151259638Y-104059760D01*
X151416681Y-103824728D01*
X151524854Y-103563575D01*
X151580001Y-103286336D01*
X151580001Y-103003666D01*
X151524854Y-102726427D01*
X151416681Y-102465274D01*
X151259638Y-102230242D01*
X151059760Y-102030364D01*
X150827242Y-101875001D01*
X151059760Y-101719638D01*
X151259638Y-101519760D01*
X151416681Y-101284728D01*
X151524854Y-101023575D01*
X151580001Y-100746336D01*
X151580001Y-100463666D01*
X151524854Y-100186427D01*
X151416681Y-99925274D01*
X151259638Y-99690242D01*
X151059760Y-99490364D01*
X150827242Y-99335001D01*
X151059760Y-99179638D01*
X151259638Y-98979760D01*
X151416681Y-98744728D01*
X151524854Y-98483575D01*
X151580001Y-98206336D01*
X151580001Y-97923666D01*
X151524854Y-97646427D01*
X151416681Y-97385274D01*
X151259638Y-97150242D01*
X151059760Y-96950364D01*
X150827242Y-96795001D01*
X151059760Y-96639638D01*
X151259638Y-96439760D01*
X151416681Y-96204728D01*
X151524854Y-95943575D01*
X151580001Y-95666336D01*
X151580001Y-95383666D01*
X151524854Y-95106427D01*
X151416681Y-94845274D01*
X151259638Y-94610242D01*
X151059760Y-94410364D01*
X150827242Y-94255001D01*
X151059760Y-94099638D01*
X151259638Y-93899760D01*
X151416681Y-93664728D01*
X151524854Y-93403575D01*
X151580001Y-93126336D01*
X151580001Y-92954802D01*
X154180001Y-95554803D01*
X154180000Y-102832678D01*
X154176324Y-102870000D01*
X154180000Y-102907322D01*
X154180000Y-102907332D01*
X154190997Y-103018985D01*
X154220429Y-103116011D01*
X154234454Y-103162246D01*
X154305026Y-103294276D01*
X154344871Y-103342826D01*
X154399999Y-103410001D01*
X154429003Y-103433804D01*
X155646201Y-104651003D01*
X155669999Y-104680001D01*
X155785724Y-104774974D01*
X155917753Y-104845546D01*
X156061014Y-104889003D01*
X156172667Y-104900000D01*
X156172676Y-104900000D01*
X156209999Y-104903676D01*
X156247322Y-104900000D01*
X157411687Y-104900000D01*
X157557688Y-105118505D01*
X157771495Y-105332312D01*
X158022905Y-105500299D01*
X158302257Y-105616011D01*
X158598816Y-105675000D01*
X158901184Y-105675000D01*
X159197743Y-105616011D01*
X159477095Y-105500299D01*
X159728505Y-105332312D01*
X159942312Y-105118505D01*
X160110299Y-104867095D01*
X160226011Y-104587743D01*
X160285000Y-104291184D01*
X160285000Y-103988816D01*
X160226011Y-103692257D01*
X160110299Y-103412905D01*
X159942312Y-103161495D01*
X159728505Y-102947688D01*
X159642169Y-102890000D01*
X159728505Y-102832312D01*
X159942312Y-102618505D01*
X160110299Y-102367095D01*
X160226011Y-102087743D01*
X160285000Y-101791184D01*
X160285000Y-101488816D01*
X160226011Y-101192257D01*
X160110299Y-100912905D01*
X159942312Y-100661495D01*
X159728505Y-100447688D01*
X159585690Y-100352262D01*
X159634475Y-100204080D01*
X158750000Y-99319605D01*
X157865525Y-100204080D01*
X157914310Y-100352262D01*
X157771495Y-100447688D01*
X157557688Y-100661495D01*
X157389701Y-100912905D01*
X157273989Y-101192257D01*
X157215000Y-101488816D01*
X157215000Y-101791184D01*
X157273989Y-102087743D01*
X157389701Y-102367095D01*
X157557688Y-102618505D01*
X157771495Y-102832312D01*
X157857831Y-102890000D01*
X157771495Y-102947688D01*
X157557688Y-103161495D01*
X157411687Y-103380000D01*
X156524802Y-103380000D01*
X155700000Y-102555199D01*
X155700000Y-99206553D01*
X157209009Y-99206553D01*
X157251603Y-99505907D01*
X157351778Y-99791199D01*
X157431739Y-99940792D01*
X157685920Y-100024475D01*
X158570395Y-99140000D01*
X158929605Y-99140000D01*
X159814080Y-100024475D01*
X160068261Y-99940792D01*
X160199158Y-99668225D01*
X160274365Y-99375358D01*
X160290991Y-99073447D01*
X160248397Y-98774093D01*
X160148222Y-98488801D01*
X160068261Y-98339208D01*
X159814080Y-98255525D01*
X158929605Y-99140000D01*
X158570395Y-99140000D01*
X157685920Y-98255525D01*
X157431739Y-98339208D01*
X157300842Y-98611775D01*
X157225635Y-98904642D01*
X157209009Y-99206553D01*
X155700000Y-99206553D01*
X155700000Y-98075920D01*
X157865525Y-98075920D01*
X158750000Y-98960395D01*
X159634475Y-98075920D01*
X159550792Y-97821739D01*
X159278225Y-97690842D01*
X158985358Y-97615635D01*
X158683447Y-97599009D01*
X158384093Y-97641603D01*
X158098801Y-97741778D01*
X157949208Y-97821739D01*
X157865525Y-98075920D01*
X155700000Y-98075920D01*
X155700000Y-95277333D01*
X155703677Y-95240000D01*
X155689003Y-95091014D01*
X155645546Y-94947753D01*
X155574974Y-94815724D01*
X155503799Y-94728997D01*
X155480001Y-94699999D01*
X155451003Y-94676201D01*
X151543689Y-90768888D01*
X151580001Y-90586336D01*
X151580001Y-90303666D01*
X151524854Y-90026427D01*
X151416681Y-89765274D01*
X151259638Y-89530242D01*
X151059760Y-89330364D01*
X150827242Y-89175001D01*
X151059760Y-89019638D01*
X151259638Y-88819760D01*
X151416681Y-88584728D01*
X151524854Y-88323575D01*
X151580001Y-88046336D01*
X151580001Y-87763666D01*
X151524854Y-87486427D01*
X151416681Y-87225274D01*
X151259638Y-86990242D01*
X151059760Y-86790364D01*
X150824728Y-86633321D01*
X150814136Y-86628934D01*
X151000132Y-86517386D01*
X151208520Y-86328415D01*
X151376038Y-86102421D01*
X151496247Y-85848088D01*
X151536905Y-85714040D01*
X151414916Y-85492001D01*
X150272001Y-85492001D01*
X150272001Y-85512001D01*
X150018001Y-85512001D01*
X150018001Y-85492001D01*
X148875086Y-85492001D01*
X148753097Y-85714040D01*
X148793755Y-85848088D01*
X148913964Y-86102421D01*
X149081482Y-86328415D01*
X149289870Y-86517386D01*
X149475866Y-86628934D01*
X149465274Y-86633321D01*
X149230242Y-86790364D01*
X149030364Y-86990242D01*
X148873321Y-87225274D01*
X148765148Y-87486427D01*
X148710001Y-87763666D01*
X136340001Y-87763666D01*
X136284854Y-87486427D01*
X136176681Y-87225274D01*
X136019638Y-86990242D01*
X135819760Y-86790364D01*
X135587242Y-86635001D01*
X135819760Y-86479638D01*
X136019638Y-86279760D01*
X136176681Y-86044728D01*
X136284854Y-85783575D01*
X136340001Y-85506336D01*
X136340001Y-85223666D01*
X136284854Y-84946427D01*
X136176681Y-84685274D01*
X136019638Y-84450242D01*
X135821040Y-84251644D01*
X135829483Y-84250813D01*
X135949181Y-84214503D01*
X136059495Y-84155538D01*
X136156186Y-84076186D01*
X136235538Y-83979495D01*
X136294503Y-83869181D01*
X136330813Y-83749483D01*
X136343073Y-83625001D01*
X136343073Y-82683666D01*
X148710001Y-82683666D01*
X148710001Y-82966336D01*
X148765148Y-83243575D01*
X148873321Y-83504728D01*
X149030364Y-83739760D01*
X149230242Y-83939638D01*
X149465274Y-84096681D01*
X149475866Y-84101068D01*
X149289870Y-84212616D01*
X149081482Y-84401587D01*
X148913964Y-84627581D01*
X148793755Y-84881914D01*
X148753097Y-85015962D01*
X148875086Y-85238001D01*
X150018001Y-85238001D01*
X150018001Y-85218001D01*
X150272001Y-85218001D01*
X150272001Y-85238001D01*
X151414916Y-85238001D01*
X151536905Y-85015962D01*
X151496247Y-84881914D01*
X151376038Y-84627581D01*
X151208520Y-84401587D01*
X151000132Y-84212616D01*
X150814136Y-84101068D01*
X150824728Y-84096681D01*
X151059760Y-83939638D01*
X151259638Y-83739760D01*
X151416681Y-83504728D01*
X151524854Y-83243575D01*
X151580001Y-82966336D01*
X151580001Y-82683666D01*
X151524854Y-82406427D01*
X151416681Y-82145274D01*
X151259638Y-81910242D01*
X151059760Y-81710364D01*
X150824728Y-81553321D01*
X150563575Y-81445148D01*
X150286336Y-81390001D01*
X150003666Y-81390001D01*
X149726427Y-81445148D01*
X149465274Y-81553321D01*
X149230242Y-81710364D01*
X149030364Y-81910242D01*
X148873321Y-82145274D01*
X148765148Y-82406427D01*
X148710001Y-82683666D01*
X136343073Y-82683666D01*
X136343073Y-82025001D01*
X136330813Y-81900519D01*
X136294503Y-81780821D01*
X136235538Y-81670507D01*
X136156186Y-81573816D01*
X136059495Y-81494464D01*
X135949181Y-81435499D01*
X135829483Y-81399189D01*
X135705001Y-81386929D01*
X134105001Y-81386929D01*
X133980519Y-81399189D01*
X133860821Y-81435499D01*
X133750507Y-81494464D01*
X133653816Y-81573816D01*
X133574464Y-81670507D01*
X133515499Y-81780821D01*
X133479189Y-81900519D01*
X133466929Y-82025001D01*
X104267000Y-82025001D01*
X104267000Y-76327000D01*
X162433000Y-76327000D01*
X162433000Y-126873000D01*
%TA.AperFunction,Conductor*%
D19*
G36*
X162433000Y-126873000D02*
G01*
X104267000Y-126873000D01*
X104267000Y-117030000D01*
X107361928Y-117030000D01*
X107374188Y-117154482D01*
X107410498Y-117274180D01*
X107469463Y-117384494D01*
X107548815Y-117481185D01*
X107645506Y-117560537D01*
X107755820Y-117619502D01*
X107875518Y-117655812D01*
X108000000Y-117668072D01*
X108614250Y-117665000D01*
X108773000Y-117506250D01*
X108773000Y-116257000D01*
X107523750Y-116257000D01*
X107365000Y-116415750D01*
X107361928Y-117030000D01*
X104267000Y-117030000D01*
X104267000Y-115230000D01*
X107361928Y-115230000D01*
X107365000Y-115844250D01*
X107523750Y-116003000D01*
X108773000Y-116003000D01*
X108773000Y-114753750D01*
X109027000Y-114753750D01*
X109027000Y-116003000D01*
X109047000Y-116003000D01*
X109047000Y-116257000D01*
X109027000Y-116257000D01*
X109027000Y-117506250D01*
X109185750Y-117665000D01*
X109800000Y-117668072D01*
X109924482Y-117655812D01*
X110044180Y-117619502D01*
X110154494Y-117560537D01*
X110251185Y-117481185D01*
X110330537Y-117384494D01*
X110389502Y-117274180D01*
X110395056Y-117255873D01*
X110461495Y-117322312D01*
X110712905Y-117490299D01*
X110992257Y-117606011D01*
X111288816Y-117665000D01*
X111591184Y-117665000D01*
X111887743Y-117606011D01*
X112167095Y-117490299D01*
X112418505Y-117322312D01*
X112450817Y-117290000D01*
X118891928Y-117290000D01*
X118891928Y-118990000D01*
X118904188Y-119114482D01*
X118940498Y-119234180D01*
X118999463Y-119344494D01*
X119078815Y-119441185D01*
X119175506Y-119520537D01*
X119285820Y-119579502D01*
X119405518Y-119615812D01*
X119530000Y-119628072D01*
X121230000Y-119628072D01*
X121354482Y-119615812D01*
X121474180Y-119579502D01*
X121584494Y-119520537D01*
X121681185Y-119441185D01*
X121760537Y-119344494D01*
X121819502Y-119234180D01*
X121855812Y-119114482D01*
X121868072Y-118990000D01*
X121868072Y-118900000D01*
X130032680Y-118900000D01*
X130070002Y-118903676D01*
X130107324Y-118900000D01*
X130107335Y-118900000D01*
X130218988Y-118889003D01*
X130362249Y-118845546D01*
X130494278Y-118774974D01*
X130610003Y-118680001D01*
X130633806Y-118650997D01*
X133470001Y-115814803D01*
X133470001Y-115986336D01*
X133525148Y-116263575D01*
X133633321Y-116524728D01*
X133790364Y-116759760D01*
X133990242Y-116959638D01*
X134222760Y-117115001D01*
X133990242Y-117270364D01*
X133790364Y-117470242D01*
X133633321Y-117705274D01*
X133525148Y-117966427D01*
X133470001Y-118243666D01*
X133470001Y-118526336D01*
X133525148Y-118803575D01*
X133633321Y-119064728D01*
X133790364Y-119299760D01*
X133990242Y-119499638D01*
X134225274Y-119656681D01*
X134486427Y-119764854D01*
X134763666Y-119820001D01*
X135046336Y-119820001D01*
X135323575Y-119764854D01*
X135584728Y-119656681D01*
X135819760Y-119499638D01*
X136019638Y-119299760D01*
X136176681Y-119064728D01*
X136284854Y-118803575D01*
X136340001Y-118526336D01*
X136340001Y-118243666D01*
X136284854Y-117966427D01*
X136176681Y-117705274D01*
X136019638Y-117470242D01*
X135819760Y-117270364D01*
X135587242Y-117115001D01*
X135819760Y-116959638D01*
X136019638Y-116759760D01*
X136176681Y-116524728D01*
X136284854Y-116263575D01*
X136340001Y-115986336D01*
X136340001Y-115703666D01*
X136284854Y-115426427D01*
X136176681Y-115165274D01*
X136019638Y-114930242D01*
X135819760Y-114730364D01*
X135587242Y-114575001D01*
X135819760Y-114419638D01*
X136019638Y-114219760D01*
X136176681Y-113984728D01*
X136284854Y-113723575D01*
X136340001Y-113446336D01*
X136340001Y-113163666D01*
X136284854Y-112886427D01*
X136176681Y-112625274D01*
X136019638Y-112390242D01*
X135819760Y-112190364D01*
X135587242Y-112035001D01*
X135819760Y-111879638D01*
X136019638Y-111679760D01*
X136176681Y-111444728D01*
X136284854Y-111183575D01*
X136340001Y-110906336D01*
X136340001Y-110623666D01*
X136284854Y-110346427D01*
X136176681Y-110085274D01*
X136019638Y-109850242D01*
X135819760Y-109650364D01*
X135587242Y-109495001D01*
X135819760Y-109339638D01*
X136019638Y-109139760D01*
X136176681Y-108904728D01*
X136284854Y-108643575D01*
X136340001Y-108366336D01*
X136340001Y-108083666D01*
X136284854Y-107806427D01*
X136176681Y-107545274D01*
X136019638Y-107310242D01*
X135819760Y-107110364D01*
X135587242Y-106955001D01*
X135819760Y-106799638D01*
X136019638Y-106599760D01*
X136176681Y-106364728D01*
X136284854Y-106103575D01*
X136340001Y-105826336D01*
X136340001Y-105543666D01*
X136284854Y-105266427D01*
X136176681Y-105005274D01*
X136019638Y-104770242D01*
X135819760Y-104570364D01*
X135587242Y-104415001D01*
X135819760Y-104259638D01*
X136019638Y-104059760D01*
X136176681Y-103824728D01*
X136284854Y-103563575D01*
X136340001Y-103286336D01*
X136340001Y-103003666D01*
X136284854Y-102726427D01*
X136176681Y-102465274D01*
X136019638Y-102230242D01*
X135819760Y-102030364D01*
X135587242Y-101875001D01*
X135819760Y-101719638D01*
X136019638Y-101519760D01*
X136176681Y-101284728D01*
X136284854Y-101023575D01*
X136340001Y-100746336D01*
X136340001Y-100463666D01*
X136284854Y-100186427D01*
X136176681Y-99925274D01*
X136019638Y-99690242D01*
X135819760Y-99490364D01*
X135587242Y-99335001D01*
X135819760Y-99179638D01*
X136019638Y-98979760D01*
X136176681Y-98744728D01*
X136284854Y-98483575D01*
X136340001Y-98206336D01*
X136340001Y-97923666D01*
X136284854Y-97646427D01*
X136176681Y-97385274D01*
X136019638Y-97150242D01*
X135819760Y-96950364D01*
X135587242Y-96795001D01*
X135819760Y-96639638D01*
X136019638Y-96439760D01*
X136176681Y-96204728D01*
X136284854Y-95943575D01*
X136340001Y-95666336D01*
X136340001Y-95383666D01*
X136284854Y-95106427D01*
X136176681Y-94845274D01*
X136019638Y-94610242D01*
X135819760Y-94410364D01*
X135587242Y-94255001D01*
X135819760Y-94099638D01*
X136019638Y-93899760D01*
X136176681Y-93664728D01*
X136284854Y-93403575D01*
X136340001Y-93126336D01*
X136340001Y-92843666D01*
X136284854Y-92566427D01*
X136176681Y-92305274D01*
X136019638Y-92070242D01*
X135819760Y-91870364D01*
X135584728Y-91713321D01*
X135574136Y-91708934D01*
X135760132Y-91597386D01*
X135968520Y-91408415D01*
X136136038Y-91182421D01*
X136256247Y-90928088D01*
X136296905Y-90794040D01*
X136174916Y-90572001D01*
X135032001Y-90572001D01*
X135032001Y-90592001D01*
X134778001Y-90592001D01*
X134778001Y-90572001D01*
X133635086Y-90572001D01*
X133513097Y-90794040D01*
X133553755Y-90928088D01*
X133673964Y-91182421D01*
X133841482Y-91408415D01*
X134049870Y-91597386D01*
X134235866Y-91708934D01*
X134225274Y-91713321D01*
X133990242Y-91870364D01*
X133790364Y-92070242D01*
X133633321Y-92305274D01*
X133525148Y-92566427D01*
X133470001Y-92843666D01*
X133470001Y-93126336D01*
X133474789Y-93150409D01*
X130865199Y-95760000D01*
X128218043Y-95760000D01*
X128114637Y-95605241D01*
X127914759Y-95405363D01*
X127679727Y-95248320D01*
X127418574Y-95140147D01*
X127141335Y-95085000D01*
X126858665Y-95085000D01*
X126581426Y-95140147D01*
X126320273Y-95248320D01*
X126085241Y-95405363D01*
X125885363Y-95605241D01*
X125728320Y-95840273D01*
X125620147Y-96101426D01*
X125565000Y-96378665D01*
X125565000Y-96661335D01*
X125620147Y-96938574D01*
X125728320Y-97199727D01*
X125885363Y-97434759D01*
X126085241Y-97634637D01*
X126320273Y-97791680D01*
X126581426Y-97899853D01*
X126858665Y-97955000D01*
X127141335Y-97955000D01*
X127418574Y-97899853D01*
X127679727Y-97791680D01*
X127914759Y-97634637D01*
X128114637Y-97434759D01*
X128218043Y-97280000D01*
X131142678Y-97280000D01*
X131180000Y-97283676D01*
X131217322Y-97280000D01*
X131217333Y-97280000D01*
X131328986Y-97269003D01*
X131472247Y-97225546D01*
X131604276Y-97154974D01*
X131720001Y-97060001D01*
X131743804Y-97030997D01*
X133489584Y-95285218D01*
X133470001Y-95383666D01*
X133470001Y-95666336D01*
X133506313Y-95848887D01*
X128515201Y-100840000D01*
X128218043Y-100840000D01*
X128114637Y-100685241D01*
X127914759Y-100485363D01*
X127679727Y-100328320D01*
X127418574Y-100220147D01*
X127141335Y-100165000D01*
X126858665Y-100165000D01*
X126581426Y-100220147D01*
X126320273Y-100328320D01*
X126085241Y-100485363D01*
X125885363Y-100685241D01*
X125728320Y-100920273D01*
X125620147Y-101181426D01*
X125565000Y-101458665D01*
X125565000Y-101741335D01*
X125620147Y-102018574D01*
X125728320Y-102279727D01*
X125885363Y-102514759D01*
X126085241Y-102714637D01*
X126320273Y-102871680D01*
X126581426Y-102979853D01*
X126858665Y-103035000D01*
X127141335Y-103035000D01*
X127418574Y-102979853D01*
X127679727Y-102871680D01*
X127914759Y-102714637D01*
X128114637Y-102514759D01*
X128218043Y-102360000D01*
X128465199Y-102360000D01*
X126488998Y-104336201D01*
X126460000Y-104359999D01*
X126436202Y-104388997D01*
X126436201Y-104388998D01*
X126365026Y-104475724D01*
X126294454Y-104607754D01*
X126271023Y-104685000D01*
X126257222Y-104730498D01*
X126250998Y-104751015D01*
X126236324Y-104900000D01*
X126240001Y-104937332D01*
X126240001Y-105461956D01*
X126085241Y-105565363D01*
X125885363Y-105765241D01*
X125728320Y-106000273D01*
X125620147Y-106261426D01*
X125565000Y-106538665D01*
X125565000Y-106821335D01*
X125620147Y-107098574D01*
X125728320Y-107359727D01*
X125885363Y-107594759D01*
X126085241Y-107794637D01*
X126320273Y-107951680D01*
X126581426Y-108059853D01*
X126858665Y-108115000D01*
X127141335Y-108115000D01*
X127418574Y-108059853D01*
X127679727Y-107951680D01*
X127914759Y-107794637D01*
X128114637Y-107594759D01*
X128271680Y-107359727D01*
X128379853Y-107098574D01*
X128435000Y-106821335D01*
X128435000Y-106538665D01*
X128379853Y-106261426D01*
X128271680Y-106000273D01*
X128114637Y-105765241D01*
X127914759Y-105565363D01*
X127760000Y-105461957D01*
X127760000Y-105214801D01*
X133892703Y-99082099D01*
X133990242Y-99179638D01*
X134222760Y-99335001D01*
X133990242Y-99490364D01*
X133790364Y-99690242D01*
X133633321Y-99925274D01*
X133525148Y-100186427D01*
X133470001Y-100463666D01*
X133470001Y-100746336D01*
X133525148Y-101023575D01*
X133633321Y-101284728D01*
X133790364Y-101519760D01*
X133990242Y-101719638D01*
X134222760Y-101875001D01*
X133990242Y-102030364D01*
X133790364Y-102230242D01*
X133633321Y-102465274D01*
X133525148Y-102726427D01*
X133470001Y-103003666D01*
X133470001Y-103286336D01*
X133525148Y-103563575D01*
X133633321Y-103824728D01*
X133790364Y-104059760D01*
X133990242Y-104259638D01*
X134222760Y-104415001D01*
X133990242Y-104570364D01*
X133790364Y-104770242D01*
X133633321Y-105005274D01*
X133525148Y-105266427D01*
X133470001Y-105543666D01*
X133470001Y-105826336D01*
X133525148Y-106103575D01*
X133633321Y-106364728D01*
X133790364Y-106599760D01*
X133990242Y-106799638D01*
X134222760Y-106955001D01*
X133990242Y-107110364D01*
X133790364Y-107310242D01*
X133633321Y-107545274D01*
X133525148Y-107806427D01*
X133470001Y-108083666D01*
X133470001Y-108366336D01*
X133525148Y-108643575D01*
X133633321Y-108904728D01*
X133790364Y-109139760D01*
X133990242Y-109339638D01*
X134222760Y-109495001D01*
X133990242Y-109650364D01*
X133790364Y-109850242D01*
X133633321Y-110085274D01*
X133525148Y-110346427D01*
X133470001Y-110623666D01*
X133470001Y-110906336D01*
X133525148Y-111183575D01*
X133633321Y-111444728D01*
X133790364Y-111679760D01*
X133990242Y-111879638D01*
X134222760Y-112035001D01*
X133990242Y-112190364D01*
X133790364Y-112390242D01*
X133633321Y-112625274D01*
X133525148Y-112886427D01*
X133470001Y-113163666D01*
X133470001Y-113446336D01*
X133506313Y-113628887D01*
X129755201Y-117380000D01*
X121868072Y-117380000D01*
X121868072Y-117290000D01*
X121855812Y-117165518D01*
X121819502Y-117045820D01*
X121760537Y-116935506D01*
X121681185Y-116838815D01*
X121584494Y-116759463D01*
X121474180Y-116700498D01*
X121401620Y-116678487D01*
X121533475Y-116546632D01*
X121695990Y-116303411D01*
X121807932Y-116033158D01*
X121865000Y-115746260D01*
X121865000Y-115453740D01*
X121807932Y-115166842D01*
X121695990Y-114896589D01*
X121533475Y-114653368D01*
X121326632Y-114446525D01*
X121144466Y-114324805D01*
X121261355Y-114255178D01*
X121477588Y-114060269D01*
X121651641Y-113826920D01*
X121776825Y-113564099D01*
X121821476Y-113416890D01*
X121700155Y-113187000D01*
X120507000Y-113187000D01*
X120507000Y-113207000D01*
X120253000Y-113207000D01*
X120253000Y-113187000D01*
X119059845Y-113187000D01*
X118938524Y-113416890D01*
X118983175Y-113564099D01*
X119108359Y-113826920D01*
X119282412Y-114060269D01*
X119498645Y-114255178D01*
X119615534Y-114324805D01*
X119433368Y-114446525D01*
X119226525Y-114653368D01*
X119064010Y-114896589D01*
X118952068Y-115166842D01*
X118895000Y-115453740D01*
X118895000Y-115746260D01*
X118952068Y-116033158D01*
X119064010Y-116303411D01*
X119226525Y-116546632D01*
X119358380Y-116678487D01*
X119285820Y-116700498D01*
X119175506Y-116759463D01*
X119078815Y-116838815D01*
X118999463Y-116935506D01*
X118940498Y-117045820D01*
X118904188Y-117165518D01*
X118891928Y-117290000D01*
X112450817Y-117290000D01*
X112632312Y-117108505D01*
X112800299Y-116857095D01*
X112916011Y-116577743D01*
X112975000Y-116281184D01*
X112975000Y-115978816D01*
X112916011Y-115682257D01*
X112800299Y-115402905D01*
X112632312Y-115151495D01*
X112418505Y-114937688D01*
X112200000Y-114791687D01*
X112200000Y-112703110D01*
X118938524Y-112703110D01*
X119059845Y-112933000D01*
X120253000Y-112933000D01*
X120253000Y-111739186D01*
X120507000Y-111739186D01*
X120507000Y-112933000D01*
X121700155Y-112933000D01*
X121821476Y-112703110D01*
X121776825Y-112555901D01*
X121651641Y-112293080D01*
X121477588Y-112059731D01*
X121261355Y-111864822D01*
X121011252Y-111715843D01*
X120736891Y-111618519D01*
X120507000Y-111739186D01*
X120253000Y-111739186D01*
X120023109Y-111618519D01*
X119748748Y-111715843D01*
X119498645Y-111864822D01*
X119282412Y-112059731D01*
X119108359Y-112293080D01*
X118983175Y-112555901D01*
X118938524Y-112703110D01*
X112200000Y-112703110D01*
X112200000Y-112394801D01*
X116516114Y-108078688D01*
X116698665Y-108115000D01*
X116981335Y-108115000D01*
X117258574Y-108059853D01*
X117519727Y-107951680D01*
X117754759Y-107794637D01*
X117954637Y-107594759D01*
X118111680Y-107359727D01*
X118219853Y-107098574D01*
X118275000Y-106821335D01*
X118275000Y-106538665D01*
X118219853Y-106261426D01*
X118111680Y-106000273D01*
X117954637Y-105765241D01*
X117754759Y-105565363D01*
X117519727Y-105408320D01*
X117258574Y-105300147D01*
X116981335Y-105245000D01*
X116698665Y-105245000D01*
X116421426Y-105300147D01*
X116160273Y-105408320D01*
X115925241Y-105565363D01*
X115725363Y-105765241D01*
X115568320Y-106000273D01*
X115460147Y-106261426D01*
X115405000Y-106538665D01*
X115405000Y-106821335D01*
X115441312Y-107003886D01*
X110928998Y-111516201D01*
X110900000Y-111539999D01*
X110876202Y-111568997D01*
X110876201Y-111568998D01*
X110805026Y-111655724D01*
X110734454Y-111787754D01*
X110711077Y-111864822D01*
X110692778Y-111925148D01*
X110690998Y-111931015D01*
X110676324Y-112080000D01*
X110680001Y-112117332D01*
X110680000Y-114791687D01*
X110461495Y-114937688D01*
X110395056Y-115004127D01*
X110389502Y-114985820D01*
X110330537Y-114875506D01*
X110251185Y-114778815D01*
X110154494Y-114699463D01*
X110044180Y-114640498D01*
X109924482Y-114604188D01*
X109800000Y-114591928D01*
X109185750Y-114595000D01*
X109027000Y-114753750D01*
X108773000Y-114753750D01*
X108614250Y-114595000D01*
X108000000Y-114591928D01*
X107875518Y-114604188D01*
X107755820Y-114640498D01*
X107645506Y-114699463D01*
X107548815Y-114778815D01*
X107469463Y-114875506D01*
X107410498Y-114985820D01*
X107374188Y-115105518D01*
X107361928Y-115230000D01*
X104267000Y-115230000D01*
X104267000Y-107120000D01*
X107461928Y-107120000D01*
X107474188Y-107244482D01*
X107510498Y-107364180D01*
X107569463Y-107474494D01*
X107648815Y-107571185D01*
X107745506Y-107650537D01*
X107855820Y-107709502D01*
X107975518Y-107745812D01*
X108100000Y-107758072D01*
X108714250Y-107755000D01*
X108873000Y-107596250D01*
X108873000Y-106347000D01*
X107623750Y-106347000D01*
X107465000Y-106505750D01*
X107461928Y-107120000D01*
X104267000Y-107120000D01*
X104267000Y-105320000D01*
X107461928Y-105320000D01*
X107465000Y-105934250D01*
X107623750Y-106093000D01*
X108873000Y-106093000D01*
X108873000Y-104843750D01*
X109127000Y-104843750D01*
X109127000Y-106093000D01*
X109147000Y-106093000D01*
X109147000Y-106347000D01*
X109127000Y-106347000D01*
X109127000Y-107596250D01*
X109285750Y-107755000D01*
X109900000Y-107758072D01*
X110024482Y-107745812D01*
X110144180Y-107709502D01*
X110254494Y-107650537D01*
X110351185Y-107571185D01*
X110430537Y-107474494D01*
X110489502Y-107364180D01*
X110495056Y-107345873D01*
X110561495Y-107412312D01*
X110812905Y-107580299D01*
X111092257Y-107696011D01*
X111388816Y-107755000D01*
X111691184Y-107755000D01*
X111987743Y-107696011D01*
X112267095Y-107580299D01*
X112518505Y-107412312D01*
X112732312Y-107198505D01*
X112900299Y-106947095D01*
X113016011Y-106667743D01*
X113075000Y-106371184D01*
X113075000Y-106068816D01*
X113023731Y-105811070D01*
X116042089Y-102792712D01*
X116160273Y-102871680D01*
X116421426Y-102979853D01*
X116698665Y-103035000D01*
X116981335Y-103035000D01*
X117258574Y-102979853D01*
X117519727Y-102871680D01*
X117754759Y-102714637D01*
X117954637Y-102514759D01*
X118111680Y-102279727D01*
X118219853Y-102018574D01*
X118275000Y-101741335D01*
X118275000Y-101458665D01*
X118219853Y-101181426D01*
X118111680Y-100920273D01*
X117954637Y-100685241D01*
X117754759Y-100485363D01*
X117519727Y-100328320D01*
X117258574Y-100220147D01*
X116981335Y-100165000D01*
X116698665Y-100165000D01*
X116421426Y-100220147D01*
X116160273Y-100328320D01*
X115925241Y-100485363D01*
X115725363Y-100685241D01*
X115568320Y-100920273D01*
X115460147Y-101181426D01*
X115449315Y-101235883D01*
X111948930Y-104736269D01*
X111691184Y-104685000D01*
X111388816Y-104685000D01*
X111092257Y-104743989D01*
X110812905Y-104859701D01*
X110561495Y-105027688D01*
X110495056Y-105094127D01*
X110489502Y-105075820D01*
X110430537Y-104965506D01*
X110351185Y-104868815D01*
X110254494Y-104789463D01*
X110144180Y-104730498D01*
X110024482Y-104694188D01*
X109900000Y-104681928D01*
X109285750Y-104685000D01*
X109127000Y-104843750D01*
X108873000Y-104843750D01*
X108714250Y-104685000D01*
X108100000Y-104681928D01*
X107975518Y-104694188D01*
X107855820Y-104730498D01*
X107745506Y-104789463D01*
X107648815Y-104868815D01*
X107569463Y-104965506D01*
X107510498Y-105075820D01*
X107474188Y-105195518D01*
X107461928Y-105320000D01*
X104267000Y-105320000D01*
X104267000Y-97420000D01*
X107461928Y-97420000D01*
X107474188Y-97544482D01*
X107510498Y-97664180D01*
X107569463Y-97774494D01*
X107648815Y-97871185D01*
X107745506Y-97950537D01*
X107855820Y-98009502D01*
X107975518Y-98045812D01*
X108100000Y-98058072D01*
X108714250Y-98055000D01*
X108873000Y-97896250D01*
X108873000Y-96647000D01*
X107623750Y-96647000D01*
X107465000Y-96805750D01*
X107461928Y-97420000D01*
X104267000Y-97420000D01*
X104267000Y-95620000D01*
X107461928Y-95620000D01*
X107465000Y-96234250D01*
X107623750Y-96393000D01*
X108873000Y-96393000D01*
X108873000Y-95143750D01*
X109127000Y-95143750D01*
X109127000Y-96393000D01*
X109147000Y-96393000D01*
X109147000Y-96647000D01*
X109127000Y-96647000D01*
X109127000Y-97896250D01*
X109285750Y-98055000D01*
X109900000Y-98058072D01*
X110024482Y-98045812D01*
X110144180Y-98009502D01*
X110254494Y-97950537D01*
X110351185Y-97871185D01*
X110430537Y-97774494D01*
X110489502Y-97664180D01*
X110495056Y-97645873D01*
X110561495Y-97712312D01*
X110812905Y-97880299D01*
X111092257Y-97996011D01*
X111388816Y-98055000D01*
X111691184Y-98055000D01*
X111987743Y-97996011D01*
X112267095Y-97880299D01*
X112518505Y-97712312D01*
X112732312Y-97498505D01*
X112878313Y-97280000D01*
X115621957Y-97280000D01*
X115725363Y-97434759D01*
X115925241Y-97634637D01*
X116160273Y-97791680D01*
X116421426Y-97899853D01*
X116698665Y-97955000D01*
X116981335Y-97955000D01*
X117258574Y-97899853D01*
X117519727Y-97791680D01*
X117754759Y-97634637D01*
X117954637Y-97434759D01*
X118111680Y-97199727D01*
X118219853Y-96938574D01*
X118275000Y-96661335D01*
X118275000Y-96378665D01*
X118219853Y-96101426D01*
X118111680Y-95840273D01*
X117954637Y-95605241D01*
X117754759Y-95405363D01*
X117519727Y-95248320D01*
X117258574Y-95140147D01*
X116981335Y-95085000D01*
X116698665Y-95085000D01*
X116421426Y-95140147D01*
X116160273Y-95248320D01*
X115925241Y-95405363D01*
X115725363Y-95605241D01*
X115621957Y-95760000D01*
X112878313Y-95760000D01*
X112732312Y-95541495D01*
X112518505Y-95327688D01*
X112267095Y-95159701D01*
X111987743Y-95043989D01*
X111691184Y-94985000D01*
X111388816Y-94985000D01*
X111092257Y-95043989D01*
X110812905Y-95159701D01*
X110561495Y-95327688D01*
X110495056Y-95394127D01*
X110489502Y-95375820D01*
X110430537Y-95265506D01*
X110351185Y-95168815D01*
X110254494Y-95089463D01*
X110144180Y-95030498D01*
X110024482Y-94994188D01*
X109900000Y-94981928D01*
X109285750Y-94985000D01*
X109127000Y-95143750D01*
X108873000Y-95143750D01*
X108714250Y-94985000D01*
X108100000Y-94981928D01*
X107975518Y-94994188D01*
X107855820Y-95030498D01*
X107745506Y-95089463D01*
X107648815Y-95168815D01*
X107569463Y-95265506D01*
X107510498Y-95375820D01*
X107474188Y-95495518D01*
X107461928Y-95620000D01*
X104267000Y-95620000D01*
X104267000Y-82025001D01*
X133466929Y-82025001D01*
X133466929Y-83625001D01*
X133479189Y-83749483D01*
X133515499Y-83869181D01*
X133574464Y-83979495D01*
X133653816Y-84076186D01*
X133750507Y-84155538D01*
X133860821Y-84214503D01*
X133980519Y-84250813D01*
X133988962Y-84251644D01*
X133790364Y-84450242D01*
X133633321Y-84685274D01*
X133525148Y-84946427D01*
X133470001Y-85223666D01*
X133470001Y-85506336D01*
X133525148Y-85783575D01*
X133633321Y-86044728D01*
X133790364Y-86279760D01*
X133990242Y-86479638D01*
X134222760Y-86635001D01*
X133990242Y-86790364D01*
X133790364Y-86990242D01*
X133633321Y-87225274D01*
X133525148Y-87486427D01*
X133470001Y-87763666D01*
X133470001Y-88046336D01*
X133525148Y-88323575D01*
X133633321Y-88584728D01*
X133790364Y-88819760D01*
X133990242Y-89019638D01*
X134225274Y-89176681D01*
X134235866Y-89181068D01*
X134049870Y-89292616D01*
X133841482Y-89481587D01*
X133673964Y-89707581D01*
X133553755Y-89961914D01*
X133513097Y-90095962D01*
X133635086Y-90318001D01*
X134778001Y-90318001D01*
X134778001Y-90298001D01*
X135032001Y-90298001D01*
X135032001Y-90318001D01*
X136174916Y-90318001D01*
X136296905Y-90095962D01*
X136256247Y-89961914D01*
X136136038Y-89707581D01*
X135968520Y-89481587D01*
X135760132Y-89292616D01*
X135574136Y-89181068D01*
X135584728Y-89176681D01*
X135819760Y-89019638D01*
X136019638Y-88819760D01*
X136176681Y-88584728D01*
X136284854Y-88323575D01*
X136340001Y-88046336D01*
X136340001Y-87763666D01*
X148710001Y-87763666D01*
X148710001Y-88046336D01*
X148765148Y-88323575D01*
X148873321Y-88584728D01*
X149030364Y-88819760D01*
X149230242Y-89019638D01*
X149462760Y-89175001D01*
X149230242Y-89330364D01*
X149030364Y-89530242D01*
X148873321Y-89765274D01*
X148765148Y-90026427D01*
X148710001Y-90303666D01*
X148710001Y-90586336D01*
X148765148Y-90863575D01*
X148873321Y-91124728D01*
X149030364Y-91359760D01*
X149230242Y-91559638D01*
X149462760Y-91715001D01*
X149230242Y-91870364D01*
X149030364Y-92070242D01*
X148873321Y-92305274D01*
X148765148Y-92566427D01*
X148710001Y-92843666D01*
X148710001Y-93126336D01*
X148765148Y-93403575D01*
X148873321Y-93664728D01*
X149030364Y-93899760D01*
X149230242Y-94099638D01*
X149462760Y-94255001D01*
X149230242Y-94410364D01*
X149030364Y-94610242D01*
X148873321Y-94845274D01*
X148765148Y-95106427D01*
X148710001Y-95383666D01*
X148710001Y-95666336D01*
X148765148Y-95943575D01*
X148873321Y-96204728D01*
X149030364Y-96439760D01*
X149230242Y-96639638D01*
X149462760Y-96795001D01*
X149230242Y-96950364D01*
X149030364Y-97150242D01*
X148873321Y-97385274D01*
X148765148Y-97646427D01*
X148710001Y-97923666D01*
X148710001Y-98206336D01*
X148765148Y-98483575D01*
X148873321Y-98744728D01*
X149030364Y-98979760D01*
X149230242Y-99179638D01*
X149462760Y-99335001D01*
X149230242Y-99490364D01*
X149030364Y-99690242D01*
X148873321Y-99925274D01*
X148765148Y-100186427D01*
X148710001Y-100463666D01*
X148710001Y-100746336D01*
X148765148Y-101023575D01*
X148873321Y-101284728D01*
X149030364Y-101519760D01*
X149230242Y-101719638D01*
X149462760Y-101875001D01*
X149230242Y-102030364D01*
X149030364Y-102230242D01*
X148873321Y-102465274D01*
X148765148Y-102726427D01*
X148710001Y-103003666D01*
X148710001Y-103286336D01*
X148765148Y-103563575D01*
X148873321Y-103824728D01*
X149030364Y-104059760D01*
X149230242Y-104259638D01*
X149462760Y-104415001D01*
X149230242Y-104570364D01*
X149030364Y-104770242D01*
X148873321Y-105005274D01*
X148765148Y-105266427D01*
X148710001Y-105543666D01*
X148710001Y-105826336D01*
X148765148Y-106103575D01*
X148873321Y-106364728D01*
X149030364Y-106599760D01*
X149230242Y-106799638D01*
X149462760Y-106955001D01*
X149230242Y-107110364D01*
X149030364Y-107310242D01*
X148873321Y-107545274D01*
X148765148Y-107806427D01*
X148710001Y-108083666D01*
X148710001Y-108366336D01*
X148765148Y-108643575D01*
X148873321Y-108904728D01*
X149030364Y-109139760D01*
X149230242Y-109339638D01*
X149462760Y-109495001D01*
X149230242Y-109650364D01*
X149030364Y-109850242D01*
X148873321Y-110085274D01*
X148765148Y-110346427D01*
X148710001Y-110623666D01*
X148710001Y-110906336D01*
X148765148Y-111183575D01*
X148873321Y-111444728D01*
X149030364Y-111679760D01*
X149230242Y-111879638D01*
X149462760Y-112035001D01*
X149230242Y-112190364D01*
X149030364Y-112390242D01*
X148873321Y-112625274D01*
X148765148Y-112886427D01*
X148710001Y-113163666D01*
X148710001Y-113446336D01*
X148765148Y-113723575D01*
X148873321Y-113984728D01*
X149030364Y-114219760D01*
X149230242Y-114419638D01*
X149462760Y-114575001D01*
X149230242Y-114730364D01*
X149030364Y-114930242D01*
X148873321Y-115165274D01*
X148765148Y-115426427D01*
X148710001Y-115703666D01*
X148710001Y-115986336D01*
X148765148Y-116263575D01*
X148873321Y-116524728D01*
X149030364Y-116759760D01*
X149230242Y-116959638D01*
X149462760Y-117115001D01*
X149230242Y-117270364D01*
X149030364Y-117470242D01*
X148873321Y-117705274D01*
X148765148Y-117966427D01*
X148710001Y-118243666D01*
X148710001Y-118526336D01*
X148765148Y-118803575D01*
X148873321Y-119064728D01*
X149030364Y-119299760D01*
X149230242Y-119499638D01*
X149465274Y-119656681D01*
X149726427Y-119764854D01*
X150003666Y-119820001D01*
X150286336Y-119820001D01*
X150563575Y-119764854D01*
X150824728Y-119656681D01*
X151059760Y-119499638D01*
X151259638Y-119299760D01*
X151416681Y-119064728D01*
X151524854Y-118803575D01*
X151580001Y-118526336D01*
X151580001Y-118243666D01*
X151524854Y-117966427D01*
X151416681Y-117705274D01*
X151259638Y-117470242D01*
X151059760Y-117270364D01*
X150827242Y-117115001D01*
X151059760Y-116959638D01*
X151259638Y-116759760D01*
X151416681Y-116524728D01*
X151524854Y-116263575D01*
X151580001Y-115986336D01*
X151580001Y-115703666D01*
X151524854Y-115426427D01*
X151416681Y-115165274D01*
X151259638Y-114930242D01*
X151059760Y-114730364D01*
X150827242Y-114575001D01*
X151059760Y-114419638D01*
X151259638Y-114219760D01*
X151416681Y-113984728D01*
X151524854Y-113723575D01*
X151580001Y-113446336D01*
X151580001Y-113163666D01*
X151524854Y-112886427D01*
X151416681Y-112625274D01*
X151259638Y-112390242D01*
X151059760Y-112190364D01*
X150827242Y-112035001D01*
X151059760Y-111879638D01*
X151259638Y-111679760D01*
X151416681Y-111444728D01*
X151524854Y-111183575D01*
X151580001Y-110906336D01*
X151580001Y-110623666D01*
X151524854Y-110346427D01*
X151416681Y-110085274D01*
X151259638Y-109850242D01*
X151059760Y-109650364D01*
X150827242Y-109495001D01*
X151059760Y-109339638D01*
X151259638Y-109139760D01*
X151416681Y-108904728D01*
X151524854Y-108643575D01*
X151580001Y-108366336D01*
X151580001Y-108083666D01*
X151524854Y-107806427D01*
X151416681Y-107545274D01*
X151259638Y-107310242D01*
X151059760Y-107110364D01*
X150827242Y-106955001D01*
X151059760Y-106799638D01*
X151259638Y-106599760D01*
X151416681Y-106364728D01*
X151524854Y-106103575D01*
X151580001Y-105826336D01*
X151580001Y-105543666D01*
X151524854Y-105266427D01*
X151416681Y-105005274D01*
X151259638Y-104770242D01*
X151059760Y-104570364D01*
X150827242Y-104415001D01*
X151059760Y-104259638D01*
X151259638Y-104059760D01*
X151416681Y-103824728D01*
X151524854Y-103563575D01*
X151580001Y-103286336D01*
X151580001Y-103003666D01*
X151524854Y-102726427D01*
X151416681Y-102465274D01*
X151259638Y-102230242D01*
X151059760Y-102030364D01*
X150827242Y-101875001D01*
X151059760Y-101719638D01*
X151259638Y-101519760D01*
X151416681Y-101284728D01*
X151524854Y-101023575D01*
X151580001Y-100746336D01*
X151580001Y-100463666D01*
X151524854Y-100186427D01*
X151416681Y-99925274D01*
X151259638Y-99690242D01*
X151059760Y-99490364D01*
X150827242Y-99335001D01*
X151059760Y-99179638D01*
X151259638Y-98979760D01*
X151416681Y-98744728D01*
X151524854Y-98483575D01*
X151580001Y-98206336D01*
X151580001Y-97923666D01*
X151524854Y-97646427D01*
X151416681Y-97385274D01*
X151259638Y-97150242D01*
X151059760Y-96950364D01*
X150827242Y-96795001D01*
X151059760Y-96639638D01*
X151259638Y-96439760D01*
X151416681Y-96204728D01*
X151524854Y-95943575D01*
X151580001Y-95666336D01*
X151580001Y-95383666D01*
X151524854Y-95106427D01*
X151416681Y-94845274D01*
X151259638Y-94610242D01*
X151059760Y-94410364D01*
X150827242Y-94255001D01*
X151059760Y-94099638D01*
X151259638Y-93899760D01*
X151416681Y-93664728D01*
X151524854Y-93403575D01*
X151580001Y-93126336D01*
X151580001Y-92954802D01*
X154180001Y-95554803D01*
X154180000Y-102832678D01*
X154176324Y-102870000D01*
X154180000Y-102907322D01*
X154180000Y-102907332D01*
X154190997Y-103018985D01*
X154220429Y-103116011D01*
X154234454Y-103162246D01*
X154305026Y-103294276D01*
X154344871Y-103342826D01*
X154399999Y-103410001D01*
X154429003Y-103433804D01*
X155646201Y-104651003D01*
X155669999Y-104680001D01*
X155785724Y-104774974D01*
X155917753Y-104845546D01*
X156061014Y-104889003D01*
X156172667Y-104900000D01*
X156172676Y-104900000D01*
X156209999Y-104903676D01*
X156247322Y-104900000D01*
X157411687Y-104900000D01*
X157557688Y-105118505D01*
X157771495Y-105332312D01*
X158022905Y-105500299D01*
X158302257Y-105616011D01*
X158598816Y-105675000D01*
X158901184Y-105675000D01*
X159197743Y-105616011D01*
X159477095Y-105500299D01*
X159728505Y-105332312D01*
X159942312Y-105118505D01*
X160110299Y-104867095D01*
X160226011Y-104587743D01*
X160285000Y-104291184D01*
X160285000Y-103988816D01*
X160226011Y-103692257D01*
X160110299Y-103412905D01*
X159942312Y-103161495D01*
X159728505Y-102947688D01*
X159642169Y-102890000D01*
X159728505Y-102832312D01*
X159942312Y-102618505D01*
X160110299Y-102367095D01*
X160226011Y-102087743D01*
X160285000Y-101791184D01*
X160285000Y-101488816D01*
X160226011Y-101192257D01*
X160110299Y-100912905D01*
X159942312Y-100661495D01*
X159728505Y-100447688D01*
X159585690Y-100352262D01*
X159634475Y-100204080D01*
X158750000Y-99319605D01*
X157865525Y-100204080D01*
X157914310Y-100352262D01*
X157771495Y-100447688D01*
X157557688Y-100661495D01*
X157389701Y-100912905D01*
X157273989Y-101192257D01*
X157215000Y-101488816D01*
X157215000Y-101791184D01*
X157273989Y-102087743D01*
X157389701Y-102367095D01*
X157557688Y-102618505D01*
X157771495Y-102832312D01*
X157857831Y-102890000D01*
X157771495Y-102947688D01*
X157557688Y-103161495D01*
X157411687Y-103380000D01*
X156524802Y-103380000D01*
X155700000Y-102555199D01*
X155700000Y-99206553D01*
X157209009Y-99206553D01*
X157251603Y-99505907D01*
X157351778Y-99791199D01*
X157431739Y-99940792D01*
X157685920Y-100024475D01*
X158570395Y-99140000D01*
X158929605Y-99140000D01*
X159814080Y-100024475D01*
X160068261Y-99940792D01*
X160199158Y-99668225D01*
X160274365Y-99375358D01*
X160290991Y-99073447D01*
X160248397Y-98774093D01*
X160148222Y-98488801D01*
X160068261Y-98339208D01*
X159814080Y-98255525D01*
X158929605Y-99140000D01*
X158570395Y-99140000D01*
X157685920Y-98255525D01*
X157431739Y-98339208D01*
X157300842Y-98611775D01*
X157225635Y-98904642D01*
X157209009Y-99206553D01*
X155700000Y-99206553D01*
X155700000Y-98075920D01*
X157865525Y-98075920D01*
X158750000Y-98960395D01*
X159634475Y-98075920D01*
X159550792Y-97821739D01*
X159278225Y-97690842D01*
X158985358Y-97615635D01*
X158683447Y-97599009D01*
X158384093Y-97641603D01*
X158098801Y-97741778D01*
X157949208Y-97821739D01*
X157865525Y-98075920D01*
X155700000Y-98075920D01*
X155700000Y-95277333D01*
X155703677Y-95240000D01*
X155689003Y-95091014D01*
X155645546Y-94947753D01*
X155574974Y-94815724D01*
X155503799Y-94728997D01*
X155480001Y-94699999D01*
X155451003Y-94676201D01*
X151543689Y-90768888D01*
X151580001Y-90586336D01*
X151580001Y-90303666D01*
X151524854Y-90026427D01*
X151416681Y-89765274D01*
X151259638Y-89530242D01*
X151059760Y-89330364D01*
X150827242Y-89175001D01*
X151059760Y-89019638D01*
X151259638Y-88819760D01*
X151416681Y-88584728D01*
X151524854Y-88323575D01*
X151580001Y-88046336D01*
X151580001Y-87763666D01*
X151524854Y-87486427D01*
X151416681Y-87225274D01*
X151259638Y-86990242D01*
X151059760Y-86790364D01*
X150824728Y-86633321D01*
X150814136Y-86628934D01*
X151000132Y-86517386D01*
X151208520Y-86328415D01*
X151376038Y-86102421D01*
X151496247Y-85848088D01*
X151536905Y-85714040D01*
X151414916Y-85492001D01*
X150272001Y-85492001D01*
X150272001Y-85512001D01*
X150018001Y-85512001D01*
X150018001Y-85492001D01*
X148875086Y-85492001D01*
X148753097Y-85714040D01*
X148793755Y-85848088D01*
X148913964Y-86102421D01*
X149081482Y-86328415D01*
X149289870Y-86517386D01*
X149475866Y-86628934D01*
X149465274Y-86633321D01*
X149230242Y-86790364D01*
X149030364Y-86990242D01*
X148873321Y-87225274D01*
X148765148Y-87486427D01*
X148710001Y-87763666D01*
X136340001Y-87763666D01*
X136284854Y-87486427D01*
X136176681Y-87225274D01*
X136019638Y-86990242D01*
X135819760Y-86790364D01*
X135587242Y-86635001D01*
X135819760Y-86479638D01*
X136019638Y-86279760D01*
X136176681Y-86044728D01*
X136284854Y-85783575D01*
X136340001Y-85506336D01*
X136340001Y-85223666D01*
X136284854Y-84946427D01*
X136176681Y-84685274D01*
X136019638Y-84450242D01*
X135821040Y-84251644D01*
X135829483Y-84250813D01*
X135949181Y-84214503D01*
X136059495Y-84155538D01*
X136156186Y-84076186D01*
X136235538Y-83979495D01*
X136294503Y-83869181D01*
X136330813Y-83749483D01*
X136343073Y-83625001D01*
X136343073Y-82683666D01*
X148710001Y-82683666D01*
X148710001Y-82966336D01*
X148765148Y-83243575D01*
X148873321Y-83504728D01*
X149030364Y-83739760D01*
X149230242Y-83939638D01*
X149465274Y-84096681D01*
X149475866Y-84101068D01*
X149289870Y-84212616D01*
X149081482Y-84401587D01*
X148913964Y-84627581D01*
X148793755Y-84881914D01*
X148753097Y-85015962D01*
X148875086Y-85238001D01*
X150018001Y-85238001D01*
X150018001Y-85218001D01*
X150272001Y-85218001D01*
X150272001Y-85238001D01*
X151414916Y-85238001D01*
X151536905Y-85015962D01*
X151496247Y-84881914D01*
X151376038Y-84627581D01*
X151208520Y-84401587D01*
X151000132Y-84212616D01*
X150814136Y-84101068D01*
X150824728Y-84096681D01*
X151059760Y-83939638D01*
X151259638Y-83739760D01*
X151416681Y-83504728D01*
X151524854Y-83243575D01*
X151580001Y-82966336D01*
X151580001Y-82683666D01*
X151524854Y-82406427D01*
X151416681Y-82145274D01*
X151259638Y-81910242D01*
X151059760Y-81710364D01*
X150824728Y-81553321D01*
X150563575Y-81445148D01*
X150286336Y-81390001D01*
X150003666Y-81390001D01*
X149726427Y-81445148D01*
X149465274Y-81553321D01*
X149230242Y-81710364D01*
X149030364Y-81910242D01*
X148873321Y-82145274D01*
X148765148Y-82406427D01*
X148710001Y-82683666D01*
X136343073Y-82683666D01*
X136343073Y-82025001D01*
X136330813Y-81900519D01*
X136294503Y-81780821D01*
X136235538Y-81670507D01*
X136156186Y-81573816D01*
X136059495Y-81494464D01*
X135949181Y-81435499D01*
X135829483Y-81399189D01*
X135705001Y-81386929D01*
X134105001Y-81386929D01*
X133980519Y-81399189D01*
X133860821Y-81435499D01*
X133750507Y-81494464D01*
X133653816Y-81573816D01*
X133574464Y-81670507D01*
X133515499Y-81780821D01*
X133479189Y-81900519D01*
X133466929Y-82025001D01*
X104267000Y-82025001D01*
X104267000Y-76327000D01*
X162433000Y-76327000D01*
X162433000Y-126873000D01*
G37*
%TD.AperFunction*%
%TD*%
M02*
