%FSLAX45Y45*%
G04 Gerber Fmt 4.5, Leading zero omitted, Abs format (unit mm)*
G04 Created by KiCad (PCBNEW (5.1.10)-1) date 2021-10-01 13:30:18*
%MOMM*%
%LPD*%
G01*
G04 APERTURE LIST*
%TA.AperFunction,Profile*%
%ADD10C,0.050000*%
%TD*%
%ADD11C,0.200000*%
%ADD12C,0.300000*%
G04 APERTURE END LIST*
D10*
X16256000Y-12192000D02*
G75*
G02*
X15748000Y-12700000I-508000J0D01*
G01*
X10922000Y-12700000D02*
G75*
G02*
X10414000Y-12192000I0J508000D01*
G01*
X10414000Y-8128000D02*
G75*
G02*
X10922000Y-7620000I508000J0D01*
G01*
X10922000Y-7620000D02*
X15748000Y-7620000D01*
X10414000Y-12192000D02*
X10414000Y-8128000D01*
X15748000Y-12700000D02*
X10922000Y-12700000D01*
X16256000Y-8128000D02*
X16256000Y-12192000D01*
X15748000Y-7620000D02*
G75*
G02*
X16256000Y-8128000I0J-508000D01*
G01*
D11*
X10672000Y-8103000D02*
X10722000Y-8153000D01*
X10722000Y-8103000D02*
X10672000Y-8153000D01*
X10672000Y-12167000D02*
X10722000Y-12217000D01*
X10722000Y-12167000D02*
X10672000Y-12217000D01*
X10737901Y-7943901D02*
X10787901Y-7993901D01*
X10787901Y-7943901D02*
X10737901Y-7993901D01*
X10737901Y-8262099D02*
X10787901Y-8312099D01*
X10787901Y-8262099D02*
X10737901Y-8312099D01*
X10737901Y-12007901D02*
X10787901Y-12057901D01*
X10787901Y-12007901D02*
X10737901Y-12057901D01*
X10737901Y-12326099D02*
X10787901Y-12376099D01*
X10787901Y-12326099D02*
X10737901Y-12376099D01*
X10897000Y-7878000D02*
X10947000Y-7928000D01*
X10947000Y-7878000D02*
X10897000Y-7928000D01*
X10897000Y-8328000D02*
X10947000Y-8378000D01*
X10947000Y-8328000D02*
X10897000Y-8378000D01*
X10897000Y-11942000D02*
X10947000Y-11992000D01*
X10947000Y-11942000D02*
X10897000Y-11992000D01*
X10897000Y-12392000D02*
X10947000Y-12442000D01*
X10947000Y-12392000D02*
X10897000Y-12442000D01*
X11056099Y-7943901D02*
X11106099Y-7993901D01*
X11106099Y-7943901D02*
X11056099Y-7993901D01*
X11056099Y-8262099D02*
X11106099Y-8312099D01*
X11106099Y-8262099D02*
X11056099Y-8312099D01*
X11056099Y-12007901D02*
X11106099Y-12057901D01*
X11106099Y-12007901D02*
X11056099Y-12057901D01*
X11056099Y-12326099D02*
X11106099Y-12376099D01*
X11106099Y-12326099D02*
X11056099Y-12376099D01*
X11122000Y-8103000D02*
X11172000Y-8153000D01*
X11172000Y-8103000D02*
X11122000Y-8153000D01*
X11122000Y-12167000D02*
X11172000Y-12217000D01*
X11172000Y-12167000D02*
X11122000Y-12217000D01*
X15498000Y-8108700D02*
X15548000Y-8158700D01*
X15548000Y-8108700D02*
X15498000Y-8158700D01*
X15498000Y-12167000D02*
X15548000Y-12217000D01*
X15548000Y-12167000D02*
X15498000Y-12217000D01*
X15563901Y-7949601D02*
X15613901Y-7999601D01*
X15613901Y-7949601D02*
X15563901Y-7999601D01*
X15563901Y-8267799D02*
X15613901Y-8317799D01*
X15613901Y-8267799D02*
X15563901Y-8317799D01*
X15563901Y-12007901D02*
X15613901Y-12057901D01*
X15613901Y-12007901D02*
X15563901Y-12057901D01*
X15563901Y-12326099D02*
X15613901Y-12376099D01*
X15613901Y-12326099D02*
X15563901Y-12376099D01*
X15723000Y-7883700D02*
X15773000Y-7933700D01*
X15773000Y-7883700D02*
X15723000Y-7933700D01*
X15723000Y-8333700D02*
X15773000Y-8383700D01*
X15773000Y-8333700D02*
X15723000Y-8383700D01*
X15723000Y-11942000D02*
X15773000Y-11992000D01*
X15773000Y-11942000D02*
X15723000Y-11992000D01*
X15723000Y-12392000D02*
X15773000Y-12442000D01*
X15773000Y-12392000D02*
X15723000Y-12442000D01*
X15882099Y-7949601D02*
X15932099Y-7999601D01*
X15932099Y-7949601D02*
X15882099Y-7999601D01*
X15882099Y-8267799D02*
X15932099Y-8317799D01*
X15932099Y-8267799D02*
X15882099Y-8317799D01*
X15882099Y-12007901D02*
X15932099Y-12057901D01*
X15932099Y-12007901D02*
X15882099Y-12057901D01*
X15882099Y-12326099D02*
X15932099Y-12376099D01*
X15932099Y-12326099D02*
X15882099Y-12376099D01*
X15948000Y-8108700D02*
X15998000Y-8158700D01*
X15998000Y-8108700D02*
X15948000Y-8158700D01*
X15948000Y-12167000D02*
X15998000Y-12217000D01*
X15998000Y-12167000D02*
X15948000Y-12217000D01*
X11724000Y-9652000D02*
G75*
G03*
X11724000Y-9652000I-40000J0D01*
G01*
X11724000Y-10160000D02*
G75*
G03*
X11724000Y-10160000I-40000J0D01*
G01*
X11724000Y-10668000D02*
G75*
G03*
X11724000Y-10668000I-40000J0D01*
G01*
X12740000Y-9652000D02*
G75*
G03*
X12740000Y-9652000I-40000J0D01*
G01*
X12740000Y-10160000D02*
G75*
G03*
X12740000Y-10160000I-40000J0D01*
G01*
X12740000Y-10668000D02*
G75*
G03*
X12740000Y-10668000I-40000J0D01*
G01*
X10900000Y-9607000D02*
X10900000Y-9697000D01*
X10855000Y-9652000D02*
X10945000Y-9652000D01*
X10900000Y-10577000D02*
X10900000Y-10667000D01*
X10855000Y-10622000D02*
X10945000Y-10622000D01*
X10910000Y-11393000D02*
X10910000Y-11483000D01*
X10865000Y-11438000D02*
X10955000Y-11438000D01*
X11154000Y-9607000D02*
X11154000Y-9697000D01*
X11109000Y-9652000D02*
X11199000Y-9652000D01*
X11154000Y-10577000D02*
X11154000Y-10667000D01*
X11109000Y-10622000D02*
X11199000Y-10622000D01*
X11164000Y-11393000D02*
X11164000Y-11483000D01*
X11119000Y-11438000D02*
X11209000Y-11438000D01*
X12859816Y-11378996D02*
X12859816Y-11308284D01*
X12789104Y-11308284D01*
X12789104Y-11378996D01*
X12859816Y-11378996D01*
X12859816Y-11632996D02*
X12859816Y-11562284D01*
X12789104Y-11562284D01*
X12789104Y-11632996D01*
X12859816Y-11632996D01*
X12859816Y-11886996D02*
X12859816Y-11816284D01*
X12789104Y-11816284D01*
X12789104Y-11886996D01*
X12859816Y-11886996D01*
X13525856Y-8317856D02*
X13525856Y-8247144D01*
X13455144Y-8247144D01*
X13455144Y-8317856D01*
X13525856Y-8317856D01*
X13525856Y-8571856D02*
X13525856Y-8501144D01*
X13455144Y-8501144D01*
X13455144Y-8571856D01*
X13525856Y-8571856D01*
X13525856Y-8825856D02*
X13525856Y-8755144D01*
X13455144Y-8755144D01*
X13455144Y-8825856D01*
X13525856Y-8825856D01*
X13525856Y-9079856D02*
X13525856Y-9009144D01*
X13455144Y-9009144D01*
X13455144Y-9079856D01*
X13525856Y-9079856D01*
X13525856Y-9333856D02*
X13525856Y-9263144D01*
X13455144Y-9263144D01*
X13455144Y-9333856D01*
X13525856Y-9333856D01*
X13525856Y-9587856D02*
X13525856Y-9517144D01*
X13455144Y-9517144D01*
X13455144Y-9587856D01*
X13525856Y-9587856D01*
X13525856Y-9841856D02*
X13525856Y-9771144D01*
X13455144Y-9771144D01*
X13455144Y-9841856D01*
X13525856Y-9841856D01*
X13525856Y-10095856D02*
X13525856Y-10025144D01*
X13455144Y-10025144D01*
X13455144Y-10095856D01*
X13525856Y-10095856D01*
X13525856Y-10349856D02*
X13525856Y-10279144D01*
X13455144Y-10279144D01*
X13455144Y-10349856D01*
X13525856Y-10349856D01*
X13525856Y-10603856D02*
X13525856Y-10533144D01*
X13455144Y-10533144D01*
X13455144Y-10603856D01*
X13525856Y-10603856D01*
X13525856Y-10857856D02*
X13525856Y-10787144D01*
X13455144Y-10787144D01*
X13455144Y-10857856D01*
X13525856Y-10857856D01*
X13525856Y-11111856D02*
X13525856Y-11041144D01*
X13455144Y-11041144D01*
X13455144Y-11111856D01*
X13525856Y-11111856D01*
X13525856Y-11365856D02*
X13525856Y-11295144D01*
X13455144Y-11295144D01*
X13455144Y-11365856D01*
X13525856Y-11365856D01*
X13525856Y-11619856D02*
X13525856Y-11549144D01*
X13455144Y-11549144D01*
X13455144Y-11619856D01*
X13525856Y-11619856D01*
X13525856Y-11873856D02*
X13525856Y-11803144D01*
X13455144Y-11803144D01*
X13455144Y-11873856D01*
X13525856Y-11873856D01*
X15049856Y-8317856D02*
X15049856Y-8247144D01*
X14979144Y-8247144D01*
X14979144Y-8317856D01*
X15049856Y-8317856D01*
X15049856Y-8571856D02*
X15049856Y-8501144D01*
X14979144Y-8501144D01*
X14979144Y-8571856D01*
X15049856Y-8571856D01*
X15049856Y-8825856D02*
X15049856Y-8755144D01*
X14979144Y-8755144D01*
X14979144Y-8825856D01*
X15049856Y-8825856D01*
X15049856Y-9079856D02*
X15049856Y-9009144D01*
X14979144Y-9009144D01*
X14979144Y-9079856D01*
X15049856Y-9079856D01*
X15049856Y-9333856D02*
X15049856Y-9263144D01*
X14979144Y-9263144D01*
X14979144Y-9333856D01*
X15049856Y-9333856D01*
X15049856Y-9587856D02*
X15049856Y-9517144D01*
X14979144Y-9517144D01*
X14979144Y-9587856D01*
X15049856Y-9587856D01*
X15049856Y-9841856D02*
X15049856Y-9771144D01*
X14979144Y-9771144D01*
X14979144Y-9841856D01*
X15049856Y-9841856D01*
X15049856Y-10095856D02*
X15049856Y-10025144D01*
X14979144Y-10025144D01*
X14979144Y-10095856D01*
X15049856Y-10095856D01*
X15049856Y-10349856D02*
X15049856Y-10279144D01*
X14979144Y-10279144D01*
X14979144Y-10349856D01*
X15049856Y-10349856D01*
X15049856Y-10603856D02*
X15049856Y-10533144D01*
X14979144Y-10533144D01*
X14979144Y-10603856D01*
X15049856Y-10603856D01*
X15049856Y-10857856D02*
X15049856Y-10787144D01*
X14979144Y-10787144D01*
X14979144Y-10857856D01*
X15049856Y-10857856D01*
X15049856Y-11111856D02*
X15049856Y-11041144D01*
X14979144Y-11041144D01*
X14979144Y-11111856D01*
X15049856Y-11111856D01*
X15049856Y-11365856D02*
X15049856Y-11295144D01*
X14979144Y-11295144D01*
X14979144Y-11365856D01*
X15049856Y-11365856D01*
X15049856Y-11619856D02*
X15049856Y-11549144D01*
X14979144Y-11549144D01*
X14979144Y-11619856D01*
X15049856Y-11619856D01*
X15049856Y-11873856D02*
X15049856Y-11803144D01*
X14979144Y-11803144D01*
X14979144Y-11873856D01*
X15049856Y-11873856D01*
X15910356Y-9949356D02*
X15910356Y-9878644D01*
X15839644Y-9878644D01*
X15839644Y-9949356D01*
X15910356Y-9949356D01*
X15910356Y-10199356D02*
X15910356Y-10128644D01*
X15839644Y-10128644D01*
X15839644Y-10199356D01*
X15910356Y-10199356D01*
X15910356Y-10449356D02*
X15910356Y-10378644D01*
X15839644Y-10378644D01*
X15839644Y-10449356D01*
X15910356Y-10449356D01*
X10922000Y-8278000D02*
X11072000Y-8128000D01*
X10922000Y-7978000D01*
X10772000Y-8128000D01*
X10922000Y-8278000D01*
X10922000Y-12342000D02*
X11072000Y-12192000D01*
X10922000Y-12042000D01*
X10772000Y-12192000D01*
X10922000Y-12342000D01*
X15748000Y-8283700D02*
X15898000Y-8133700D01*
X15748000Y-7983700D01*
X15598000Y-8133700D01*
X15748000Y-8283700D01*
X15748000Y-12342000D02*
X15898000Y-12192000D01*
X15748000Y-12042000D01*
X15598000Y-12192000D01*
X15748000Y-12342000D01*
D12*
X10697928Y-13168214D02*
X10697928Y-12868214D01*
X10769357Y-12868214D01*
X10812214Y-12882500D01*
X10840786Y-12911071D01*
X10855071Y-12939643D01*
X10869357Y-12996786D01*
X10869357Y-13039643D01*
X10855071Y-13096786D01*
X10840786Y-13125357D01*
X10812214Y-13153929D01*
X10769357Y-13168214D01*
X10697928Y-13168214D01*
X10997928Y-13168214D02*
X10997928Y-12968214D01*
X10997928Y-13025357D02*
X11012214Y-12996786D01*
X11026500Y-12982500D01*
X11055071Y-12968214D01*
X11083643Y-12968214D01*
X11183643Y-13168214D02*
X11183643Y-12968214D01*
X11183643Y-12868214D02*
X11169357Y-12882500D01*
X11183643Y-12896786D01*
X11197928Y-12882500D01*
X11183643Y-12868214D01*
X11183643Y-12896786D01*
X11369357Y-13168214D02*
X11340786Y-13153929D01*
X11326500Y-13125357D01*
X11326500Y-12868214D01*
X11526500Y-13168214D02*
X11497928Y-13153929D01*
X11483643Y-13125357D01*
X11483643Y-12868214D01*
X11869357Y-13168214D02*
X11869357Y-12868214D01*
X11969357Y-13082500D01*
X12069357Y-12868214D01*
X12069357Y-13168214D01*
X12340786Y-13168214D02*
X12340786Y-13011071D01*
X12326500Y-12982500D01*
X12297928Y-12968214D01*
X12240786Y-12968214D01*
X12212214Y-12982500D01*
X12340786Y-13153929D02*
X12312214Y-13168214D01*
X12240786Y-13168214D01*
X12212214Y-13153929D01*
X12197928Y-13125357D01*
X12197928Y-13096786D01*
X12212214Y-13068214D01*
X12240786Y-13053929D01*
X12312214Y-13053929D01*
X12340786Y-13039643D01*
X12483643Y-12968214D02*
X12483643Y-13268214D01*
X12483643Y-12982500D02*
X12512214Y-12968214D01*
X12569357Y-12968214D01*
X12597928Y-12982500D01*
X12612214Y-12996786D01*
X12626500Y-13025357D01*
X12626500Y-13111071D01*
X12612214Y-13139643D01*
X12597928Y-13153929D01*
X12569357Y-13168214D01*
X12512214Y-13168214D01*
X12483643Y-13153929D01*
X12755071Y-13139643D02*
X12769357Y-13153929D01*
X12755071Y-13168214D01*
X12740786Y-13153929D01*
X12755071Y-13139643D01*
X12755071Y-13168214D01*
X12755071Y-12982500D02*
X12769357Y-12996786D01*
X12755071Y-13011071D01*
X12740786Y-12996786D01*
X12755071Y-12982500D01*
X12755071Y-13011071D01*
X10361500Y-13637500D02*
X10411500Y-13687500D01*
X10411500Y-13637500D02*
X10361500Y-13687500D01*
X10755071Y-13498214D02*
X10783643Y-13498214D01*
X10812214Y-13512500D01*
X10826500Y-13526786D01*
X10840786Y-13555357D01*
X10855071Y-13612500D01*
X10855071Y-13683929D01*
X10840786Y-13741071D01*
X10826500Y-13769643D01*
X10812214Y-13783929D01*
X10783643Y-13798214D01*
X10755071Y-13798214D01*
X10726500Y-13783929D01*
X10712214Y-13769643D01*
X10697928Y-13741071D01*
X10683643Y-13683929D01*
X10683643Y-13612500D01*
X10697928Y-13555357D01*
X10712214Y-13526786D01*
X10726500Y-13512500D01*
X10755071Y-13498214D01*
X10983643Y-13769643D02*
X10997928Y-13783929D01*
X10983643Y-13798214D01*
X10969357Y-13783929D01*
X10983643Y-13769643D01*
X10983643Y-13798214D01*
X11269357Y-13498214D02*
X11126500Y-13498214D01*
X11112214Y-13641071D01*
X11126500Y-13626786D01*
X11155071Y-13612500D01*
X11226500Y-13612500D01*
X11255071Y-13626786D01*
X11269357Y-13641071D01*
X11283643Y-13669643D01*
X11283643Y-13741071D01*
X11269357Y-13769643D01*
X11255071Y-13783929D01*
X11226500Y-13798214D01*
X11155071Y-13798214D01*
X11126500Y-13783929D01*
X11112214Y-13769643D01*
X11469357Y-13498214D02*
X11497928Y-13498214D01*
X11526500Y-13512500D01*
X11540786Y-13526786D01*
X11555071Y-13555357D01*
X11569357Y-13612500D01*
X11569357Y-13683929D01*
X11555071Y-13741071D01*
X11540786Y-13769643D01*
X11526500Y-13783929D01*
X11497928Y-13798214D01*
X11469357Y-13798214D01*
X11440786Y-13783929D01*
X11426500Y-13769643D01*
X11412214Y-13741071D01*
X11397928Y-13683929D01*
X11397928Y-13612500D01*
X11412214Y-13555357D01*
X11426500Y-13526786D01*
X11440786Y-13512500D01*
X11469357Y-13498214D01*
X11755071Y-13498214D02*
X11783643Y-13498214D01*
X11812214Y-13512500D01*
X11826500Y-13526786D01*
X11840786Y-13555357D01*
X11855071Y-13612500D01*
X11855071Y-13683929D01*
X11840786Y-13741071D01*
X11826500Y-13769643D01*
X11812214Y-13783929D01*
X11783643Y-13798214D01*
X11755071Y-13798214D01*
X11726500Y-13783929D01*
X11712214Y-13769643D01*
X11697928Y-13741071D01*
X11683643Y-13683929D01*
X11683643Y-13612500D01*
X11697928Y-13555357D01*
X11712214Y-13526786D01*
X11726500Y-13512500D01*
X11755071Y-13498214D01*
X11983643Y-13798214D02*
X11983643Y-13598214D01*
X11983643Y-13626786D02*
X11997928Y-13612500D01*
X12026500Y-13598214D01*
X12069357Y-13598214D01*
X12097928Y-13612500D01*
X12112214Y-13641071D01*
X12112214Y-13798214D01*
X12112214Y-13641071D02*
X12126500Y-13612500D01*
X12155071Y-13598214D01*
X12197928Y-13598214D01*
X12226500Y-13612500D01*
X12240786Y-13641071D01*
X12240786Y-13798214D01*
X12383643Y-13798214D02*
X12383643Y-13598214D01*
X12383643Y-13626786D02*
X12397928Y-13612500D01*
X12426500Y-13598214D01*
X12469357Y-13598214D01*
X12497928Y-13612500D01*
X12512214Y-13641071D01*
X12512214Y-13798214D01*
X12512214Y-13641071D02*
X12526500Y-13612500D01*
X12555071Y-13598214D01*
X12597928Y-13598214D01*
X12626500Y-13612500D01*
X12640786Y-13641071D01*
X12640786Y-13798214D01*
X13226500Y-13483929D02*
X12969357Y-13869643D01*
X13612214Y-13498214D02*
X13640786Y-13498214D01*
X13669357Y-13512500D01*
X13683643Y-13526786D01*
X13697928Y-13555357D01*
X13712214Y-13612500D01*
X13712214Y-13683929D01*
X13697928Y-13741071D01*
X13683643Y-13769643D01*
X13669357Y-13783929D01*
X13640786Y-13798214D01*
X13612214Y-13798214D01*
X13583643Y-13783929D01*
X13569357Y-13769643D01*
X13555071Y-13741071D01*
X13540786Y-13683929D01*
X13540786Y-13612500D01*
X13555071Y-13555357D01*
X13569357Y-13526786D01*
X13583643Y-13512500D01*
X13612214Y-13498214D01*
X13840786Y-13769643D02*
X13855071Y-13783929D01*
X13840786Y-13798214D01*
X13826500Y-13783929D01*
X13840786Y-13769643D01*
X13840786Y-13798214D01*
X14040786Y-13498214D02*
X14069357Y-13498214D01*
X14097928Y-13512500D01*
X14112214Y-13526786D01*
X14126500Y-13555357D01*
X14140786Y-13612500D01*
X14140786Y-13683929D01*
X14126500Y-13741071D01*
X14112214Y-13769643D01*
X14097928Y-13783929D01*
X14069357Y-13798214D01*
X14040786Y-13798214D01*
X14012214Y-13783929D01*
X13997928Y-13769643D01*
X13983643Y-13741071D01*
X13969357Y-13683929D01*
X13969357Y-13612500D01*
X13983643Y-13555357D01*
X13997928Y-13526786D01*
X14012214Y-13512500D01*
X14040786Y-13498214D01*
X14426500Y-13798214D02*
X14255071Y-13798214D01*
X14340786Y-13798214D02*
X14340786Y-13498214D01*
X14312214Y-13541071D01*
X14283643Y-13569643D01*
X14255071Y-13583929D01*
X14569357Y-13798214D02*
X14626500Y-13798214D01*
X14655071Y-13783929D01*
X14669357Y-13769643D01*
X14697928Y-13726786D01*
X14712214Y-13669643D01*
X14712214Y-13555357D01*
X14697928Y-13526786D01*
X14683643Y-13512500D01*
X14655071Y-13498214D01*
X14597928Y-13498214D01*
X14569357Y-13512500D01*
X14555071Y-13526786D01*
X14540786Y-13555357D01*
X14540786Y-13626786D01*
X14555071Y-13655357D01*
X14569357Y-13669643D01*
X14597928Y-13683929D01*
X14655071Y-13683929D01*
X14683643Y-13669643D01*
X14697928Y-13655357D01*
X14712214Y-13626786D01*
X14812214Y-13498214D02*
X15012214Y-13498214D01*
X14883643Y-13798214D01*
X15112214Y-13498214D02*
X15112214Y-13555357D01*
X15226500Y-13498214D02*
X15226500Y-13555357D01*
X15669357Y-13912500D02*
X15655071Y-13898214D01*
X15626500Y-13855357D01*
X15612214Y-13826786D01*
X15597928Y-13783929D01*
X15583643Y-13712500D01*
X15583643Y-13655357D01*
X15597928Y-13583929D01*
X15612214Y-13541071D01*
X15626500Y-13512500D01*
X15655071Y-13469643D01*
X15669357Y-13455357D01*
X15755071Y-13498214D02*
X15940786Y-13498214D01*
X15840786Y-13612500D01*
X15883643Y-13612500D01*
X15912214Y-13626786D01*
X15926500Y-13641071D01*
X15940786Y-13669643D01*
X15940786Y-13741071D01*
X15926500Y-13769643D01*
X15912214Y-13783929D01*
X15883643Y-13798214D01*
X15797928Y-13798214D01*
X15769357Y-13783929D01*
X15755071Y-13769643D01*
X16055071Y-13526786D02*
X16069357Y-13512500D01*
X16097928Y-13498214D01*
X16169357Y-13498214D01*
X16197928Y-13512500D01*
X16212214Y-13526786D01*
X16226500Y-13555357D01*
X16226500Y-13583929D01*
X16212214Y-13626786D01*
X16040786Y-13798214D01*
X16226500Y-13798214D01*
X16583643Y-13798214D02*
X16583643Y-13498214D01*
X16712214Y-13798214D02*
X16712214Y-13641071D01*
X16697928Y-13612500D01*
X16669357Y-13598214D01*
X16626500Y-13598214D01*
X16597928Y-13612500D01*
X16583643Y-13626786D01*
X16897928Y-13798214D02*
X16869357Y-13783929D01*
X16855071Y-13769643D01*
X16840786Y-13741071D01*
X16840786Y-13655357D01*
X16855071Y-13626786D01*
X16869357Y-13612500D01*
X16897928Y-13598214D01*
X16940786Y-13598214D01*
X16969357Y-13612500D01*
X16983643Y-13626786D01*
X16997928Y-13655357D01*
X16997928Y-13741071D01*
X16983643Y-13769643D01*
X16969357Y-13783929D01*
X16940786Y-13798214D01*
X16897928Y-13798214D01*
X17169357Y-13798214D02*
X17140786Y-13783929D01*
X17126500Y-13755357D01*
X17126500Y-13498214D01*
X17397928Y-13783929D02*
X17369357Y-13798214D01*
X17312214Y-13798214D01*
X17283643Y-13783929D01*
X17269357Y-13755357D01*
X17269357Y-13641071D01*
X17283643Y-13612500D01*
X17312214Y-13598214D01*
X17369357Y-13598214D01*
X17397928Y-13612500D01*
X17412214Y-13641071D01*
X17412214Y-13669643D01*
X17269357Y-13698214D01*
X17526500Y-13783929D02*
X17555071Y-13798214D01*
X17612214Y-13798214D01*
X17640786Y-13783929D01*
X17655071Y-13755357D01*
X17655071Y-13741071D01*
X17640786Y-13712500D01*
X17612214Y-13698214D01*
X17569357Y-13698214D01*
X17540786Y-13683929D01*
X17526500Y-13655357D01*
X17526500Y-13641071D01*
X17540786Y-13612500D01*
X17569357Y-13598214D01*
X17612214Y-13598214D01*
X17640786Y-13612500D01*
X17755071Y-13912500D02*
X17769357Y-13898214D01*
X17797928Y-13855357D01*
X17812214Y-13826786D01*
X17826500Y-13783929D01*
X17840786Y-13712500D01*
X17840786Y-13655357D01*
X17826500Y-13583929D01*
X17812214Y-13541071D01*
X17797928Y-13512500D01*
X17769357Y-13469643D01*
X17755071Y-13455357D01*
X10411500Y-14058500D02*
G75*
G03*
X10411500Y-14058500I-40000J0D01*
G01*
X10755071Y-13894214D02*
X10783643Y-13894214D01*
X10812214Y-13908500D01*
X10826500Y-13922786D01*
X10840786Y-13951357D01*
X10855071Y-14008500D01*
X10855071Y-14079929D01*
X10840786Y-14137071D01*
X10826500Y-14165643D01*
X10812214Y-14179929D01*
X10783643Y-14194214D01*
X10755071Y-14194214D01*
X10726500Y-14179929D01*
X10712214Y-14165643D01*
X10697928Y-14137071D01*
X10683643Y-14079929D01*
X10683643Y-14008500D01*
X10697928Y-13951357D01*
X10712214Y-13922786D01*
X10726500Y-13908500D01*
X10755071Y-13894214D01*
X10983643Y-14165643D02*
X10997928Y-14179929D01*
X10983643Y-14194214D01*
X10969357Y-14179929D01*
X10983643Y-14165643D01*
X10983643Y-14194214D01*
X11169357Y-14022786D02*
X11140786Y-14008500D01*
X11126500Y-13994214D01*
X11112214Y-13965643D01*
X11112214Y-13951357D01*
X11126500Y-13922786D01*
X11140786Y-13908500D01*
X11169357Y-13894214D01*
X11226500Y-13894214D01*
X11255071Y-13908500D01*
X11269357Y-13922786D01*
X11283643Y-13951357D01*
X11283643Y-13965643D01*
X11269357Y-13994214D01*
X11255071Y-14008500D01*
X11226500Y-14022786D01*
X11169357Y-14022786D01*
X11140786Y-14037071D01*
X11126500Y-14051357D01*
X11112214Y-14079929D01*
X11112214Y-14137071D01*
X11126500Y-14165643D01*
X11140786Y-14179929D01*
X11169357Y-14194214D01*
X11226500Y-14194214D01*
X11255071Y-14179929D01*
X11269357Y-14165643D01*
X11283643Y-14137071D01*
X11283643Y-14079929D01*
X11269357Y-14051357D01*
X11255071Y-14037071D01*
X11226500Y-14022786D01*
X11469357Y-13894214D02*
X11497928Y-13894214D01*
X11526500Y-13908500D01*
X11540786Y-13922786D01*
X11555071Y-13951357D01*
X11569357Y-14008500D01*
X11569357Y-14079929D01*
X11555071Y-14137071D01*
X11540786Y-14165643D01*
X11526500Y-14179929D01*
X11497928Y-14194214D01*
X11469357Y-14194214D01*
X11440786Y-14179929D01*
X11426500Y-14165643D01*
X11412214Y-14137071D01*
X11397928Y-14079929D01*
X11397928Y-14008500D01*
X11412214Y-13951357D01*
X11426500Y-13922786D01*
X11440786Y-13908500D01*
X11469357Y-13894214D01*
X11755071Y-13894214D02*
X11783643Y-13894214D01*
X11812214Y-13908500D01*
X11826500Y-13922786D01*
X11840786Y-13951357D01*
X11855071Y-14008500D01*
X11855071Y-14079929D01*
X11840786Y-14137071D01*
X11826500Y-14165643D01*
X11812214Y-14179929D01*
X11783643Y-14194214D01*
X11755071Y-14194214D01*
X11726500Y-14179929D01*
X11712214Y-14165643D01*
X11697928Y-14137071D01*
X11683643Y-14079929D01*
X11683643Y-14008500D01*
X11697928Y-13951357D01*
X11712214Y-13922786D01*
X11726500Y-13908500D01*
X11755071Y-13894214D01*
X11983643Y-14194214D02*
X11983643Y-13994214D01*
X11983643Y-14022786D02*
X11997928Y-14008500D01*
X12026500Y-13994214D01*
X12069357Y-13994214D01*
X12097928Y-14008500D01*
X12112214Y-14037071D01*
X12112214Y-14194214D01*
X12112214Y-14037071D02*
X12126500Y-14008500D01*
X12155071Y-13994214D01*
X12197928Y-13994214D01*
X12226500Y-14008500D01*
X12240786Y-14037071D01*
X12240786Y-14194214D01*
X12383643Y-14194214D02*
X12383643Y-13994214D01*
X12383643Y-14022786D02*
X12397928Y-14008500D01*
X12426500Y-13994214D01*
X12469357Y-13994214D01*
X12497928Y-14008500D01*
X12512214Y-14037071D01*
X12512214Y-14194214D01*
X12512214Y-14037071D02*
X12526500Y-14008500D01*
X12555071Y-13994214D01*
X12597928Y-13994214D01*
X12626500Y-14008500D01*
X12640786Y-14037071D01*
X12640786Y-14194214D01*
X13226500Y-13879929D02*
X12969357Y-14265643D01*
X13612214Y-13894214D02*
X13640786Y-13894214D01*
X13669357Y-13908500D01*
X13683643Y-13922786D01*
X13697928Y-13951357D01*
X13712214Y-14008500D01*
X13712214Y-14079929D01*
X13697928Y-14137071D01*
X13683643Y-14165643D01*
X13669357Y-14179929D01*
X13640786Y-14194214D01*
X13612214Y-14194214D01*
X13583643Y-14179929D01*
X13569357Y-14165643D01*
X13555071Y-14137071D01*
X13540786Y-14079929D01*
X13540786Y-14008500D01*
X13555071Y-13951357D01*
X13569357Y-13922786D01*
X13583643Y-13908500D01*
X13612214Y-13894214D01*
X13840786Y-14165643D02*
X13855071Y-14179929D01*
X13840786Y-14194214D01*
X13826500Y-14179929D01*
X13840786Y-14165643D01*
X13840786Y-14194214D01*
X14040786Y-13894214D02*
X14069357Y-13894214D01*
X14097928Y-13908500D01*
X14112214Y-13922786D01*
X14126500Y-13951357D01*
X14140786Y-14008500D01*
X14140786Y-14079929D01*
X14126500Y-14137071D01*
X14112214Y-14165643D01*
X14097928Y-14179929D01*
X14069357Y-14194214D01*
X14040786Y-14194214D01*
X14012214Y-14179929D01*
X13997928Y-14165643D01*
X13983643Y-14137071D01*
X13969357Y-14079929D01*
X13969357Y-14008500D01*
X13983643Y-13951357D01*
X13997928Y-13922786D01*
X14012214Y-13908500D01*
X14040786Y-13894214D01*
X14240786Y-13894214D02*
X14426500Y-13894214D01*
X14326500Y-14008500D01*
X14369357Y-14008500D01*
X14397928Y-14022786D01*
X14412214Y-14037071D01*
X14426500Y-14065643D01*
X14426500Y-14137071D01*
X14412214Y-14165643D01*
X14397928Y-14179929D01*
X14369357Y-14194214D01*
X14283643Y-14194214D01*
X14255071Y-14179929D01*
X14240786Y-14165643D01*
X14712214Y-14194214D02*
X14540786Y-14194214D01*
X14626500Y-14194214D02*
X14626500Y-13894214D01*
X14597928Y-13937071D01*
X14569357Y-13965643D01*
X14540786Y-13979929D01*
X14983643Y-13894214D02*
X14840786Y-13894214D01*
X14826500Y-14037071D01*
X14840786Y-14022786D01*
X14869357Y-14008500D01*
X14940786Y-14008500D01*
X14969357Y-14022786D01*
X14983643Y-14037071D01*
X14997928Y-14065643D01*
X14997928Y-14137071D01*
X14983643Y-14165643D01*
X14969357Y-14179929D01*
X14940786Y-14194214D01*
X14869357Y-14194214D01*
X14840786Y-14179929D01*
X14826500Y-14165643D01*
X15112214Y-13894214D02*
X15112214Y-13951357D01*
X15226500Y-13894214D02*
X15226500Y-13951357D01*
X15669357Y-14308500D02*
X15655071Y-14294214D01*
X15626500Y-14251357D01*
X15612214Y-14222786D01*
X15597928Y-14179929D01*
X15583643Y-14108500D01*
X15583643Y-14051357D01*
X15597928Y-13979929D01*
X15612214Y-13937071D01*
X15626500Y-13908500D01*
X15655071Y-13865643D01*
X15669357Y-13851357D01*
X15912214Y-13894214D02*
X15855071Y-13894214D01*
X15826500Y-13908500D01*
X15812214Y-13922786D01*
X15783643Y-13965643D01*
X15769357Y-14022786D01*
X15769357Y-14137071D01*
X15783643Y-14165643D01*
X15797928Y-14179929D01*
X15826500Y-14194214D01*
X15883643Y-14194214D01*
X15912214Y-14179929D01*
X15926500Y-14165643D01*
X15940786Y-14137071D01*
X15940786Y-14065643D01*
X15926500Y-14037071D01*
X15912214Y-14022786D01*
X15883643Y-14008500D01*
X15826500Y-14008500D01*
X15797928Y-14022786D01*
X15783643Y-14037071D01*
X15769357Y-14065643D01*
X16297928Y-14194214D02*
X16297928Y-13894214D01*
X16426500Y-14194214D02*
X16426500Y-14037071D01*
X16412214Y-14008500D01*
X16383643Y-13994214D01*
X16340786Y-13994214D01*
X16312214Y-14008500D01*
X16297928Y-14022786D01*
X16612214Y-14194214D02*
X16583643Y-14179929D01*
X16569357Y-14165643D01*
X16555071Y-14137071D01*
X16555071Y-14051357D01*
X16569357Y-14022786D01*
X16583643Y-14008500D01*
X16612214Y-13994214D01*
X16655071Y-13994214D01*
X16683643Y-14008500D01*
X16697928Y-14022786D01*
X16712214Y-14051357D01*
X16712214Y-14137071D01*
X16697928Y-14165643D01*
X16683643Y-14179929D01*
X16655071Y-14194214D01*
X16612214Y-14194214D01*
X16883643Y-14194214D02*
X16855071Y-14179929D01*
X16840786Y-14151357D01*
X16840786Y-13894214D01*
X17112214Y-14179929D02*
X17083643Y-14194214D01*
X17026500Y-14194214D01*
X16997928Y-14179929D01*
X16983643Y-14151357D01*
X16983643Y-14037071D01*
X16997928Y-14008500D01*
X17026500Y-13994214D01*
X17083643Y-13994214D01*
X17112214Y-14008500D01*
X17126500Y-14037071D01*
X17126500Y-14065643D01*
X16983643Y-14094214D01*
X17240786Y-14179929D02*
X17269357Y-14194214D01*
X17326500Y-14194214D01*
X17355071Y-14179929D01*
X17369357Y-14151357D01*
X17369357Y-14137071D01*
X17355071Y-14108500D01*
X17326500Y-14094214D01*
X17283643Y-14094214D01*
X17255071Y-14079929D01*
X17240786Y-14051357D01*
X17240786Y-14037071D01*
X17255071Y-14008500D01*
X17283643Y-13994214D01*
X17326500Y-13994214D01*
X17355071Y-14008500D01*
X17469357Y-14308500D02*
X17483643Y-14294214D01*
X17512214Y-14251357D01*
X17526500Y-14222786D01*
X17540786Y-14179929D01*
X17555071Y-14108500D01*
X17555071Y-14051357D01*
X17540786Y-13979929D01*
X17526500Y-13937071D01*
X17512214Y-13908500D01*
X17483643Y-13865643D01*
X17469357Y-13851357D01*
X10366500Y-14409500D02*
X10366500Y-14499500D01*
X10321500Y-14454500D02*
X10411500Y-14454500D01*
X10755071Y-14290214D02*
X10783643Y-14290214D01*
X10812214Y-14304500D01*
X10826500Y-14318786D01*
X10840786Y-14347357D01*
X10855071Y-14404500D01*
X10855071Y-14475929D01*
X10840786Y-14533071D01*
X10826500Y-14561643D01*
X10812214Y-14575929D01*
X10783643Y-14590214D01*
X10755071Y-14590214D01*
X10726500Y-14575929D01*
X10712214Y-14561643D01*
X10697928Y-14533071D01*
X10683643Y-14475929D01*
X10683643Y-14404500D01*
X10697928Y-14347357D01*
X10712214Y-14318786D01*
X10726500Y-14304500D01*
X10755071Y-14290214D01*
X10983643Y-14561643D02*
X10997928Y-14575929D01*
X10983643Y-14590214D01*
X10969357Y-14575929D01*
X10983643Y-14561643D01*
X10983643Y-14590214D01*
X11140786Y-14590214D02*
X11197928Y-14590214D01*
X11226500Y-14575929D01*
X11240786Y-14561643D01*
X11269357Y-14518786D01*
X11283643Y-14461643D01*
X11283643Y-14347357D01*
X11269357Y-14318786D01*
X11255071Y-14304500D01*
X11226500Y-14290214D01*
X11169357Y-14290214D01*
X11140786Y-14304500D01*
X11126500Y-14318786D01*
X11112214Y-14347357D01*
X11112214Y-14418786D01*
X11126500Y-14447357D01*
X11140786Y-14461643D01*
X11169357Y-14475929D01*
X11226500Y-14475929D01*
X11255071Y-14461643D01*
X11269357Y-14447357D01*
X11283643Y-14418786D01*
X11469357Y-14290214D02*
X11497928Y-14290214D01*
X11526500Y-14304500D01*
X11540786Y-14318786D01*
X11555071Y-14347357D01*
X11569357Y-14404500D01*
X11569357Y-14475929D01*
X11555071Y-14533071D01*
X11540786Y-14561643D01*
X11526500Y-14575929D01*
X11497928Y-14590214D01*
X11469357Y-14590214D01*
X11440786Y-14575929D01*
X11426500Y-14561643D01*
X11412214Y-14533071D01*
X11397928Y-14475929D01*
X11397928Y-14404500D01*
X11412214Y-14347357D01*
X11426500Y-14318786D01*
X11440786Y-14304500D01*
X11469357Y-14290214D01*
X11755071Y-14290214D02*
X11783643Y-14290214D01*
X11812214Y-14304500D01*
X11826500Y-14318786D01*
X11840786Y-14347357D01*
X11855071Y-14404500D01*
X11855071Y-14475929D01*
X11840786Y-14533071D01*
X11826500Y-14561643D01*
X11812214Y-14575929D01*
X11783643Y-14590214D01*
X11755071Y-14590214D01*
X11726500Y-14575929D01*
X11712214Y-14561643D01*
X11697928Y-14533071D01*
X11683643Y-14475929D01*
X11683643Y-14404500D01*
X11697928Y-14347357D01*
X11712214Y-14318786D01*
X11726500Y-14304500D01*
X11755071Y-14290214D01*
X11983643Y-14590214D02*
X11983643Y-14390214D01*
X11983643Y-14418786D02*
X11997928Y-14404500D01*
X12026500Y-14390214D01*
X12069357Y-14390214D01*
X12097928Y-14404500D01*
X12112214Y-14433071D01*
X12112214Y-14590214D01*
X12112214Y-14433071D02*
X12126500Y-14404500D01*
X12155071Y-14390214D01*
X12197928Y-14390214D01*
X12226500Y-14404500D01*
X12240786Y-14433071D01*
X12240786Y-14590214D01*
X12383643Y-14590214D02*
X12383643Y-14390214D01*
X12383643Y-14418786D02*
X12397928Y-14404500D01*
X12426500Y-14390214D01*
X12469357Y-14390214D01*
X12497928Y-14404500D01*
X12512214Y-14433071D01*
X12512214Y-14590214D01*
X12512214Y-14433071D02*
X12526500Y-14404500D01*
X12555071Y-14390214D01*
X12597928Y-14390214D01*
X12626500Y-14404500D01*
X12640786Y-14433071D01*
X12640786Y-14590214D01*
X13226500Y-14275929D02*
X12969357Y-14661643D01*
X13612214Y-14290214D02*
X13640786Y-14290214D01*
X13669357Y-14304500D01*
X13683643Y-14318786D01*
X13697928Y-14347357D01*
X13712214Y-14404500D01*
X13712214Y-14475929D01*
X13697928Y-14533071D01*
X13683643Y-14561643D01*
X13669357Y-14575929D01*
X13640786Y-14590214D01*
X13612214Y-14590214D01*
X13583643Y-14575929D01*
X13569357Y-14561643D01*
X13555071Y-14533071D01*
X13540786Y-14475929D01*
X13540786Y-14404500D01*
X13555071Y-14347357D01*
X13569357Y-14318786D01*
X13583643Y-14304500D01*
X13612214Y-14290214D01*
X13840786Y-14561643D02*
X13855071Y-14575929D01*
X13840786Y-14590214D01*
X13826500Y-14575929D01*
X13840786Y-14561643D01*
X13840786Y-14590214D01*
X14040786Y-14290214D02*
X14069357Y-14290214D01*
X14097928Y-14304500D01*
X14112214Y-14318786D01*
X14126500Y-14347357D01*
X14140786Y-14404500D01*
X14140786Y-14475929D01*
X14126500Y-14533071D01*
X14112214Y-14561643D01*
X14097928Y-14575929D01*
X14069357Y-14590214D01*
X14040786Y-14590214D01*
X14012214Y-14575929D01*
X13997928Y-14561643D01*
X13983643Y-14533071D01*
X13969357Y-14475929D01*
X13969357Y-14404500D01*
X13983643Y-14347357D01*
X13997928Y-14318786D01*
X14012214Y-14304500D01*
X14040786Y-14290214D01*
X14240786Y-14290214D02*
X14426500Y-14290214D01*
X14326500Y-14404500D01*
X14369357Y-14404500D01*
X14397928Y-14418786D01*
X14412214Y-14433071D01*
X14426500Y-14461643D01*
X14426500Y-14533071D01*
X14412214Y-14561643D01*
X14397928Y-14575929D01*
X14369357Y-14590214D01*
X14283643Y-14590214D01*
X14255071Y-14575929D01*
X14240786Y-14561643D01*
X14697928Y-14290214D02*
X14555071Y-14290214D01*
X14540786Y-14433071D01*
X14555071Y-14418786D01*
X14583643Y-14404500D01*
X14655071Y-14404500D01*
X14683643Y-14418786D01*
X14697928Y-14433071D01*
X14712214Y-14461643D01*
X14712214Y-14533071D01*
X14697928Y-14561643D01*
X14683643Y-14575929D01*
X14655071Y-14590214D01*
X14583643Y-14590214D01*
X14555071Y-14575929D01*
X14540786Y-14561643D01*
X14969357Y-14390214D02*
X14969357Y-14590214D01*
X14897928Y-14275929D02*
X14826500Y-14490214D01*
X15012214Y-14490214D01*
X15112214Y-14290214D02*
X15112214Y-14347357D01*
X15226500Y-14290214D02*
X15226500Y-14347357D01*
X15669357Y-14704500D02*
X15655071Y-14690214D01*
X15626500Y-14647357D01*
X15612214Y-14618786D01*
X15597928Y-14575929D01*
X15583643Y-14504500D01*
X15583643Y-14447357D01*
X15597928Y-14375929D01*
X15612214Y-14333071D01*
X15626500Y-14304500D01*
X15655071Y-14261643D01*
X15669357Y-14247357D01*
X15912214Y-14290214D02*
X15855071Y-14290214D01*
X15826500Y-14304500D01*
X15812214Y-14318786D01*
X15783643Y-14361643D01*
X15769357Y-14418786D01*
X15769357Y-14533071D01*
X15783643Y-14561643D01*
X15797928Y-14575929D01*
X15826500Y-14590214D01*
X15883643Y-14590214D01*
X15912214Y-14575929D01*
X15926500Y-14561643D01*
X15940786Y-14533071D01*
X15940786Y-14461643D01*
X15926500Y-14433071D01*
X15912214Y-14418786D01*
X15883643Y-14404500D01*
X15826500Y-14404500D01*
X15797928Y-14418786D01*
X15783643Y-14433071D01*
X15769357Y-14461643D01*
X16297928Y-14590214D02*
X16297928Y-14290214D01*
X16426500Y-14590214D02*
X16426500Y-14433071D01*
X16412214Y-14404500D01*
X16383643Y-14390214D01*
X16340786Y-14390214D01*
X16312214Y-14404500D01*
X16297928Y-14418786D01*
X16612214Y-14590214D02*
X16583643Y-14575929D01*
X16569357Y-14561643D01*
X16555071Y-14533071D01*
X16555071Y-14447357D01*
X16569357Y-14418786D01*
X16583643Y-14404500D01*
X16612214Y-14390214D01*
X16655071Y-14390214D01*
X16683643Y-14404500D01*
X16697928Y-14418786D01*
X16712214Y-14447357D01*
X16712214Y-14533071D01*
X16697928Y-14561643D01*
X16683643Y-14575929D01*
X16655071Y-14590214D01*
X16612214Y-14590214D01*
X16883643Y-14590214D02*
X16855071Y-14575929D01*
X16840786Y-14547357D01*
X16840786Y-14290214D01*
X17112214Y-14575929D02*
X17083643Y-14590214D01*
X17026500Y-14590214D01*
X16997928Y-14575929D01*
X16983643Y-14547357D01*
X16983643Y-14433071D01*
X16997928Y-14404500D01*
X17026500Y-14390214D01*
X17083643Y-14390214D01*
X17112214Y-14404500D01*
X17126500Y-14433071D01*
X17126500Y-14461643D01*
X16983643Y-14490214D01*
X17240786Y-14575929D02*
X17269357Y-14590214D01*
X17326500Y-14590214D01*
X17355071Y-14575929D01*
X17369357Y-14547357D01*
X17369357Y-14533071D01*
X17355071Y-14504500D01*
X17326500Y-14490214D01*
X17283643Y-14490214D01*
X17255071Y-14475929D01*
X17240786Y-14447357D01*
X17240786Y-14433071D01*
X17255071Y-14404500D01*
X17283643Y-14390214D01*
X17326500Y-14390214D01*
X17355071Y-14404500D01*
X17469357Y-14704500D02*
X17483643Y-14690214D01*
X17512214Y-14647357D01*
X17526500Y-14618786D01*
X17540786Y-14575929D01*
X17555071Y-14504500D01*
X17555071Y-14447357D01*
X17540786Y-14375929D01*
X17526500Y-14333071D01*
X17512214Y-14304500D01*
X17483643Y-14261643D01*
X17469357Y-14247357D01*
X10396856Y-14885856D02*
X10396856Y-14815144D01*
X10326144Y-14815144D01*
X10326144Y-14885856D01*
X10396856Y-14885856D01*
X10855071Y-14986214D02*
X10683643Y-14986214D01*
X10769357Y-14986214D02*
X10769357Y-14686214D01*
X10740786Y-14729071D01*
X10712214Y-14757643D01*
X10683643Y-14771929D01*
X10983643Y-14957643D02*
X10997928Y-14971929D01*
X10983643Y-14986214D01*
X10969357Y-14971929D01*
X10983643Y-14957643D01*
X10983643Y-14986214D01*
X11183643Y-14686214D02*
X11212214Y-14686214D01*
X11240786Y-14700500D01*
X11255071Y-14714786D01*
X11269357Y-14743357D01*
X11283643Y-14800500D01*
X11283643Y-14871929D01*
X11269357Y-14929071D01*
X11255071Y-14957643D01*
X11240786Y-14971929D01*
X11212214Y-14986214D01*
X11183643Y-14986214D01*
X11155071Y-14971929D01*
X11140786Y-14957643D01*
X11126500Y-14929071D01*
X11112214Y-14871929D01*
X11112214Y-14800500D01*
X11126500Y-14743357D01*
X11140786Y-14714786D01*
X11155071Y-14700500D01*
X11183643Y-14686214D01*
X11469357Y-14686214D02*
X11497928Y-14686214D01*
X11526500Y-14700500D01*
X11540786Y-14714786D01*
X11555071Y-14743357D01*
X11569357Y-14800500D01*
X11569357Y-14871929D01*
X11555071Y-14929071D01*
X11540786Y-14957643D01*
X11526500Y-14971929D01*
X11497928Y-14986214D01*
X11469357Y-14986214D01*
X11440786Y-14971929D01*
X11426500Y-14957643D01*
X11412214Y-14929071D01*
X11397928Y-14871929D01*
X11397928Y-14800500D01*
X11412214Y-14743357D01*
X11426500Y-14714786D01*
X11440786Y-14700500D01*
X11469357Y-14686214D01*
X11755071Y-14686214D02*
X11783643Y-14686214D01*
X11812214Y-14700500D01*
X11826500Y-14714786D01*
X11840786Y-14743357D01*
X11855071Y-14800500D01*
X11855071Y-14871929D01*
X11840786Y-14929071D01*
X11826500Y-14957643D01*
X11812214Y-14971929D01*
X11783643Y-14986214D01*
X11755071Y-14986214D01*
X11726500Y-14971929D01*
X11712214Y-14957643D01*
X11697928Y-14929071D01*
X11683643Y-14871929D01*
X11683643Y-14800500D01*
X11697928Y-14743357D01*
X11712214Y-14714786D01*
X11726500Y-14700500D01*
X11755071Y-14686214D01*
X11983643Y-14986214D02*
X11983643Y-14786214D01*
X11983643Y-14814786D02*
X11997928Y-14800500D01*
X12026500Y-14786214D01*
X12069357Y-14786214D01*
X12097928Y-14800500D01*
X12112214Y-14829071D01*
X12112214Y-14986214D01*
X12112214Y-14829071D02*
X12126500Y-14800500D01*
X12155071Y-14786214D01*
X12197928Y-14786214D01*
X12226500Y-14800500D01*
X12240786Y-14829071D01*
X12240786Y-14986214D01*
X12383643Y-14986214D02*
X12383643Y-14786214D01*
X12383643Y-14814786D02*
X12397928Y-14800500D01*
X12426500Y-14786214D01*
X12469357Y-14786214D01*
X12497928Y-14800500D01*
X12512214Y-14829071D01*
X12512214Y-14986214D01*
X12512214Y-14829071D02*
X12526500Y-14800500D01*
X12555071Y-14786214D01*
X12597928Y-14786214D01*
X12626500Y-14800500D01*
X12640786Y-14829071D01*
X12640786Y-14986214D01*
X13226500Y-14671929D02*
X12969357Y-15057643D01*
X13612214Y-14686214D02*
X13640786Y-14686214D01*
X13669357Y-14700500D01*
X13683643Y-14714786D01*
X13697928Y-14743357D01*
X13712214Y-14800500D01*
X13712214Y-14871929D01*
X13697928Y-14929071D01*
X13683643Y-14957643D01*
X13669357Y-14971929D01*
X13640786Y-14986214D01*
X13612214Y-14986214D01*
X13583643Y-14971929D01*
X13569357Y-14957643D01*
X13555071Y-14929071D01*
X13540786Y-14871929D01*
X13540786Y-14800500D01*
X13555071Y-14743357D01*
X13569357Y-14714786D01*
X13583643Y-14700500D01*
X13612214Y-14686214D01*
X13840786Y-14957643D02*
X13855071Y-14971929D01*
X13840786Y-14986214D01*
X13826500Y-14971929D01*
X13840786Y-14957643D01*
X13840786Y-14986214D01*
X14040786Y-14686214D02*
X14069357Y-14686214D01*
X14097928Y-14700500D01*
X14112214Y-14714786D01*
X14126500Y-14743357D01*
X14140786Y-14800500D01*
X14140786Y-14871929D01*
X14126500Y-14929071D01*
X14112214Y-14957643D01*
X14097928Y-14971929D01*
X14069357Y-14986214D01*
X14040786Y-14986214D01*
X14012214Y-14971929D01*
X13997928Y-14957643D01*
X13983643Y-14929071D01*
X13969357Y-14871929D01*
X13969357Y-14800500D01*
X13983643Y-14743357D01*
X13997928Y-14714786D01*
X14012214Y-14700500D01*
X14040786Y-14686214D01*
X14240786Y-14686214D02*
X14426500Y-14686214D01*
X14326500Y-14800500D01*
X14369357Y-14800500D01*
X14397928Y-14814786D01*
X14412214Y-14829071D01*
X14426500Y-14857643D01*
X14426500Y-14929071D01*
X14412214Y-14957643D01*
X14397928Y-14971929D01*
X14369357Y-14986214D01*
X14283643Y-14986214D01*
X14255071Y-14971929D01*
X14240786Y-14957643D01*
X14569357Y-14986214D02*
X14626500Y-14986214D01*
X14655071Y-14971929D01*
X14669357Y-14957643D01*
X14697928Y-14914786D01*
X14712214Y-14857643D01*
X14712214Y-14743357D01*
X14697928Y-14714786D01*
X14683643Y-14700500D01*
X14655071Y-14686214D01*
X14597928Y-14686214D01*
X14569357Y-14700500D01*
X14555071Y-14714786D01*
X14540786Y-14743357D01*
X14540786Y-14814786D01*
X14555071Y-14843357D01*
X14569357Y-14857643D01*
X14597928Y-14871929D01*
X14655071Y-14871929D01*
X14683643Y-14857643D01*
X14697928Y-14843357D01*
X14712214Y-14814786D01*
X14969357Y-14786214D02*
X14969357Y-14986214D01*
X14897928Y-14671929D02*
X14826500Y-14886214D01*
X15012214Y-14886214D01*
X15112214Y-14686214D02*
X15112214Y-14743357D01*
X15226500Y-14686214D02*
X15226500Y-14743357D01*
X15669357Y-15100500D02*
X15655071Y-15086214D01*
X15626500Y-15043357D01*
X15612214Y-15014786D01*
X15597928Y-14971929D01*
X15583643Y-14900500D01*
X15583643Y-14843357D01*
X15597928Y-14771929D01*
X15612214Y-14729071D01*
X15626500Y-14700500D01*
X15655071Y-14657643D01*
X15669357Y-14643357D01*
X15755071Y-14686214D02*
X15940786Y-14686214D01*
X15840786Y-14800500D01*
X15883643Y-14800500D01*
X15912214Y-14814786D01*
X15926500Y-14829071D01*
X15940786Y-14857643D01*
X15940786Y-14929071D01*
X15926500Y-14957643D01*
X15912214Y-14971929D01*
X15883643Y-14986214D01*
X15797928Y-14986214D01*
X15769357Y-14971929D01*
X15755071Y-14957643D01*
X16197928Y-14686214D02*
X16140786Y-14686214D01*
X16112214Y-14700500D01*
X16097928Y-14714786D01*
X16069357Y-14757643D01*
X16055071Y-14814786D01*
X16055071Y-14929071D01*
X16069357Y-14957643D01*
X16083643Y-14971929D01*
X16112214Y-14986214D01*
X16169357Y-14986214D01*
X16197928Y-14971929D01*
X16212214Y-14957643D01*
X16226500Y-14929071D01*
X16226500Y-14857643D01*
X16212214Y-14829071D01*
X16197928Y-14814786D01*
X16169357Y-14800500D01*
X16112214Y-14800500D01*
X16083643Y-14814786D01*
X16069357Y-14829071D01*
X16055071Y-14857643D01*
X16583643Y-14986214D02*
X16583643Y-14686214D01*
X16712214Y-14986214D02*
X16712214Y-14829071D01*
X16697928Y-14800500D01*
X16669357Y-14786214D01*
X16626500Y-14786214D01*
X16597928Y-14800500D01*
X16583643Y-14814786D01*
X16897928Y-14986214D02*
X16869357Y-14971929D01*
X16855071Y-14957643D01*
X16840786Y-14929071D01*
X16840786Y-14843357D01*
X16855071Y-14814786D01*
X16869357Y-14800500D01*
X16897928Y-14786214D01*
X16940786Y-14786214D01*
X16969357Y-14800500D01*
X16983643Y-14814786D01*
X16997928Y-14843357D01*
X16997928Y-14929071D01*
X16983643Y-14957643D01*
X16969357Y-14971929D01*
X16940786Y-14986214D01*
X16897928Y-14986214D01*
X17169357Y-14986214D02*
X17140786Y-14971929D01*
X17126500Y-14943357D01*
X17126500Y-14686214D01*
X17397928Y-14971929D02*
X17369357Y-14986214D01*
X17312214Y-14986214D01*
X17283643Y-14971929D01*
X17269357Y-14943357D01*
X17269357Y-14829071D01*
X17283643Y-14800500D01*
X17312214Y-14786214D01*
X17369357Y-14786214D01*
X17397928Y-14800500D01*
X17412214Y-14829071D01*
X17412214Y-14857643D01*
X17269357Y-14886214D01*
X17526500Y-14971929D02*
X17555071Y-14986214D01*
X17612214Y-14986214D01*
X17640786Y-14971929D01*
X17655071Y-14943357D01*
X17655071Y-14929071D01*
X17640786Y-14900500D01*
X17612214Y-14886214D01*
X17569357Y-14886214D01*
X17540786Y-14871929D01*
X17526500Y-14843357D01*
X17526500Y-14829071D01*
X17540786Y-14800500D01*
X17569357Y-14786214D01*
X17612214Y-14786214D01*
X17640786Y-14800500D01*
X17755071Y-15100500D02*
X17769357Y-15086214D01*
X17797928Y-15043357D01*
X17812214Y-15014786D01*
X17826500Y-14971929D01*
X17840786Y-14900500D01*
X17840786Y-14843357D01*
X17826500Y-14771929D01*
X17812214Y-14729071D01*
X17797928Y-14700500D01*
X17769357Y-14657643D01*
X17755071Y-14643357D01*
X10261500Y-15396500D02*
X10411500Y-15246500D01*
X10261500Y-15096500D01*
X10111500Y-15246500D01*
X10261500Y-15396500D01*
X10669357Y-15082214D02*
X10855071Y-15082214D01*
X10755071Y-15196500D01*
X10797928Y-15196500D01*
X10826500Y-15210786D01*
X10840786Y-15225071D01*
X10855071Y-15253643D01*
X10855071Y-15325071D01*
X10840786Y-15353643D01*
X10826500Y-15367929D01*
X10797928Y-15382214D01*
X10712214Y-15382214D01*
X10683643Y-15367929D01*
X10669357Y-15353643D01*
X10983643Y-15353643D02*
X10997928Y-15367929D01*
X10983643Y-15382214D01*
X10969357Y-15367929D01*
X10983643Y-15353643D01*
X10983643Y-15382214D01*
X11183643Y-15082214D02*
X11212214Y-15082214D01*
X11240786Y-15096500D01*
X11255071Y-15110786D01*
X11269357Y-15139357D01*
X11283643Y-15196500D01*
X11283643Y-15267929D01*
X11269357Y-15325071D01*
X11255071Y-15353643D01*
X11240786Y-15367929D01*
X11212214Y-15382214D01*
X11183643Y-15382214D01*
X11155071Y-15367929D01*
X11140786Y-15353643D01*
X11126500Y-15325071D01*
X11112214Y-15267929D01*
X11112214Y-15196500D01*
X11126500Y-15139357D01*
X11140786Y-15110786D01*
X11155071Y-15096500D01*
X11183643Y-15082214D01*
X11469357Y-15082214D02*
X11497928Y-15082214D01*
X11526500Y-15096500D01*
X11540786Y-15110786D01*
X11555071Y-15139357D01*
X11569357Y-15196500D01*
X11569357Y-15267929D01*
X11555071Y-15325071D01*
X11540786Y-15353643D01*
X11526500Y-15367929D01*
X11497928Y-15382214D01*
X11469357Y-15382214D01*
X11440786Y-15367929D01*
X11426500Y-15353643D01*
X11412214Y-15325071D01*
X11397928Y-15267929D01*
X11397928Y-15196500D01*
X11412214Y-15139357D01*
X11426500Y-15110786D01*
X11440786Y-15096500D01*
X11469357Y-15082214D01*
X11755071Y-15082214D02*
X11783643Y-15082214D01*
X11812214Y-15096500D01*
X11826500Y-15110786D01*
X11840786Y-15139357D01*
X11855071Y-15196500D01*
X11855071Y-15267929D01*
X11840786Y-15325071D01*
X11826500Y-15353643D01*
X11812214Y-15367929D01*
X11783643Y-15382214D01*
X11755071Y-15382214D01*
X11726500Y-15367929D01*
X11712214Y-15353643D01*
X11697928Y-15325071D01*
X11683643Y-15267929D01*
X11683643Y-15196500D01*
X11697928Y-15139357D01*
X11712214Y-15110786D01*
X11726500Y-15096500D01*
X11755071Y-15082214D01*
X11983643Y-15382214D02*
X11983643Y-15182214D01*
X11983643Y-15210786D02*
X11997928Y-15196500D01*
X12026500Y-15182214D01*
X12069357Y-15182214D01*
X12097928Y-15196500D01*
X12112214Y-15225071D01*
X12112214Y-15382214D01*
X12112214Y-15225071D02*
X12126500Y-15196500D01*
X12155071Y-15182214D01*
X12197928Y-15182214D01*
X12226500Y-15196500D01*
X12240786Y-15225071D01*
X12240786Y-15382214D01*
X12383643Y-15382214D02*
X12383643Y-15182214D01*
X12383643Y-15210786D02*
X12397928Y-15196500D01*
X12426500Y-15182214D01*
X12469357Y-15182214D01*
X12497928Y-15196500D01*
X12512214Y-15225071D01*
X12512214Y-15382214D01*
X12512214Y-15225071D02*
X12526500Y-15196500D01*
X12555071Y-15182214D01*
X12597928Y-15182214D01*
X12626500Y-15196500D01*
X12640786Y-15225071D01*
X12640786Y-15382214D01*
X13226500Y-15067929D02*
X12969357Y-15453643D01*
X13612214Y-15082214D02*
X13640786Y-15082214D01*
X13669357Y-15096500D01*
X13683643Y-15110786D01*
X13697928Y-15139357D01*
X13712214Y-15196500D01*
X13712214Y-15267929D01*
X13697928Y-15325071D01*
X13683643Y-15353643D01*
X13669357Y-15367929D01*
X13640786Y-15382214D01*
X13612214Y-15382214D01*
X13583643Y-15367929D01*
X13569357Y-15353643D01*
X13555071Y-15325071D01*
X13540786Y-15267929D01*
X13540786Y-15196500D01*
X13555071Y-15139357D01*
X13569357Y-15110786D01*
X13583643Y-15096500D01*
X13612214Y-15082214D01*
X13840786Y-15353643D02*
X13855071Y-15367929D01*
X13840786Y-15382214D01*
X13826500Y-15367929D01*
X13840786Y-15353643D01*
X13840786Y-15382214D01*
X14140786Y-15382214D02*
X13969357Y-15382214D01*
X14055071Y-15382214D02*
X14055071Y-15082214D01*
X14026500Y-15125071D01*
X13997928Y-15153643D01*
X13969357Y-15167929D01*
X14426500Y-15382214D02*
X14255071Y-15382214D01*
X14340786Y-15382214D02*
X14340786Y-15082214D01*
X14312214Y-15125071D01*
X14283643Y-15153643D01*
X14255071Y-15167929D01*
X14597928Y-15210786D02*
X14569357Y-15196500D01*
X14555071Y-15182214D01*
X14540786Y-15153643D01*
X14540786Y-15139357D01*
X14555071Y-15110786D01*
X14569357Y-15096500D01*
X14597928Y-15082214D01*
X14655071Y-15082214D01*
X14683643Y-15096500D01*
X14697928Y-15110786D01*
X14712214Y-15139357D01*
X14712214Y-15153643D01*
X14697928Y-15182214D01*
X14683643Y-15196500D01*
X14655071Y-15210786D01*
X14597928Y-15210786D01*
X14569357Y-15225071D01*
X14555071Y-15239357D01*
X14540786Y-15267929D01*
X14540786Y-15325071D01*
X14555071Y-15353643D01*
X14569357Y-15367929D01*
X14597928Y-15382214D01*
X14655071Y-15382214D01*
X14683643Y-15367929D01*
X14697928Y-15353643D01*
X14712214Y-15325071D01*
X14712214Y-15267929D01*
X14697928Y-15239357D01*
X14683643Y-15225071D01*
X14655071Y-15210786D01*
X14997928Y-15382214D02*
X14826500Y-15382214D01*
X14912214Y-15382214D02*
X14912214Y-15082214D01*
X14883643Y-15125071D01*
X14855071Y-15153643D01*
X14826500Y-15167929D01*
X15112214Y-15082214D02*
X15112214Y-15139357D01*
X15226500Y-15082214D02*
X15226500Y-15139357D01*
X15669357Y-15496500D02*
X15655071Y-15482214D01*
X15626500Y-15439357D01*
X15612214Y-15410786D01*
X15597928Y-15367929D01*
X15583643Y-15296500D01*
X15583643Y-15239357D01*
X15597928Y-15167929D01*
X15612214Y-15125071D01*
X15626500Y-15096500D01*
X15655071Y-15053643D01*
X15669357Y-15039357D01*
X15912214Y-15182214D02*
X15912214Y-15382214D01*
X15840786Y-15067929D02*
X15769357Y-15282214D01*
X15955071Y-15282214D01*
X16297928Y-15382214D02*
X16297928Y-15082214D01*
X16426500Y-15382214D02*
X16426500Y-15225071D01*
X16412214Y-15196500D01*
X16383643Y-15182214D01*
X16340786Y-15182214D01*
X16312214Y-15196500D01*
X16297928Y-15210786D01*
X16612214Y-15382214D02*
X16583643Y-15367929D01*
X16569357Y-15353643D01*
X16555071Y-15325071D01*
X16555071Y-15239357D01*
X16569357Y-15210786D01*
X16583643Y-15196500D01*
X16612214Y-15182214D01*
X16655071Y-15182214D01*
X16683643Y-15196500D01*
X16697928Y-15210786D01*
X16712214Y-15239357D01*
X16712214Y-15325071D01*
X16697928Y-15353643D01*
X16683643Y-15367929D01*
X16655071Y-15382214D01*
X16612214Y-15382214D01*
X16883643Y-15382214D02*
X16855071Y-15367929D01*
X16840786Y-15339357D01*
X16840786Y-15082214D01*
X17112214Y-15367929D02*
X17083643Y-15382214D01*
X17026500Y-15382214D01*
X16997928Y-15367929D01*
X16983643Y-15339357D01*
X16983643Y-15225071D01*
X16997928Y-15196500D01*
X17026500Y-15182214D01*
X17083643Y-15182214D01*
X17112214Y-15196500D01*
X17126500Y-15225071D01*
X17126500Y-15253643D01*
X16983643Y-15282214D01*
X17240786Y-15367929D02*
X17269357Y-15382214D01*
X17326500Y-15382214D01*
X17355071Y-15367929D01*
X17369357Y-15339357D01*
X17369357Y-15325071D01*
X17355071Y-15296500D01*
X17326500Y-15282214D01*
X17283643Y-15282214D01*
X17255071Y-15267929D01*
X17240786Y-15239357D01*
X17240786Y-15225071D01*
X17255071Y-15196500D01*
X17283643Y-15182214D01*
X17326500Y-15182214D01*
X17355071Y-15196500D01*
X17469357Y-15496500D02*
X17483643Y-15482214D01*
X17512214Y-15439357D01*
X17526500Y-15410786D01*
X17540786Y-15367929D01*
X17555071Y-15296500D01*
X17555071Y-15239357D01*
X17540786Y-15167929D01*
X17526500Y-15125071D01*
X17512214Y-15096500D01*
X17483643Y-15053643D01*
X17469357Y-15039357D01*
M02*
