G04 #@! TF.GenerationSoftware,KiCad,Pcbnew,(5.1.10)-1*
G04 #@! TF.CreationDate,2021-10-01T13:30:07-07:00*
G04 #@! TF.ProjectId,BumbasiRylan_ElectronicSpeedController,42756d62-6173-4695-9279-6c616e5f456c,rev?*
G04 #@! TF.SameCoordinates,Original*
G04 #@! TF.FileFunction,Copper,L1,Top*
G04 #@! TF.FilePolarity,Positive*
%FSLAX46Y46*%
G04 Gerber Fmt 4.6, Leading zero omitted, Abs format (unit mm)*
G04 Created by KiCad (PCBNEW (5.1.10)-1) date 2021-10-01 13:30:07*
%MOMM*%
%LPD*%
G01*
G04 APERTURE LIST*
G04 #@! TA.AperFunction,ComponentPad*
%ADD10C,0.800000*%
G04 #@! TD*
G04 #@! TA.AperFunction,ComponentPad*
%ADD11C,6.000000*%
G04 #@! TD*
G04 #@! TA.AperFunction,ComponentPad*
%ADD12O,1.600000X1.600000*%
G04 #@! TD*
G04 #@! TA.AperFunction,ComponentPad*
%ADD13C,1.600000*%
G04 #@! TD*
G04 #@! TA.AperFunction,ComponentPad*
%ADD14C,1.800000*%
G04 #@! TD*
G04 #@! TA.AperFunction,ComponentPad*
%ADD15R,1.800000X1.800000*%
G04 #@! TD*
G04 #@! TA.AperFunction,ComponentPad*
%ADD16R,1.600000X1.600000*%
G04 #@! TD*
G04 #@! TA.AperFunction,ComponentPad*
%ADD17O,1.700000X1.700000*%
G04 #@! TD*
G04 #@! TA.AperFunction,ComponentPad*
%ADD18R,1.700000X1.700000*%
G04 #@! TD*
G04 #@! TA.AperFunction,Conductor*
%ADD19C,0.250000*%
G04 #@! TD*
G04 #@! TA.AperFunction,Conductor*
%ADD20C,0.500000*%
G04 #@! TD*
G04 #@! TA.AperFunction,Conductor*
%ADD21C,0.254000*%
G04 #@! TD*
G04 #@! TA.AperFunction,Conductor*
%ADD22C,0.100000*%
G04 #@! TD*
G04 APERTURE END LIST*
D10*
X159070990Y-79746010D03*
X157480000Y-79087000D03*
X155889010Y-79746010D03*
X155230000Y-81337000D03*
X155889010Y-82927990D03*
X157480000Y-83587000D03*
X159070990Y-82927990D03*
X159730000Y-81337000D03*
D11*
X157480000Y-81337000D03*
D10*
X110810990Y-79689010D03*
X109220000Y-79030000D03*
X107629010Y-79689010D03*
X106970000Y-81280000D03*
X107629010Y-82870990D03*
X109220000Y-83530000D03*
X110810990Y-82870990D03*
X111470000Y-81280000D03*
D11*
X109220000Y-81280000D03*
D10*
X110810990Y-120329010D03*
X109220000Y-119670000D03*
X107629010Y-120329010D03*
X106970000Y-121920000D03*
X107629010Y-123510990D03*
X109220000Y-124170000D03*
X110810990Y-123510990D03*
X111470000Y-121920000D03*
D11*
X109220000Y-121920000D03*
D10*
X159070990Y-120329010D03*
X157480000Y-119670000D03*
X155889010Y-120329010D03*
X155230000Y-121920000D03*
X155889010Y-123510990D03*
X157480000Y-124170000D03*
X159070990Y-123510990D03*
X159730000Y-121920000D03*
D11*
X157480000Y-121920000D03*
D12*
X116840000Y-106680000D03*
D13*
X127000000Y-106680000D03*
D12*
X116840000Y-101600000D03*
D13*
X127000000Y-101600000D03*
D12*
X116840000Y-96520000D03*
D13*
X127000000Y-96520000D03*
D14*
X111640000Y-114380000D03*
D15*
X109100000Y-114380000D03*
D14*
X111540000Y-106220000D03*
D15*
X109000000Y-106220000D03*
D14*
X111540000Y-96520000D03*
D15*
X109000000Y-96520000D03*
D12*
X150145001Y-118385001D03*
X134905001Y-118385001D03*
X150145001Y-82825001D03*
X134905001Y-115845001D03*
X150145001Y-85365001D03*
X134905001Y-113305001D03*
X150145001Y-87905001D03*
X134905001Y-110765001D03*
X150145001Y-90445001D03*
X134905001Y-108225001D03*
X150145001Y-92985001D03*
X134905001Y-105685001D03*
X150145001Y-95525001D03*
X134905001Y-103145001D03*
X150145001Y-98065001D03*
X134905001Y-100605001D03*
X150145001Y-100605001D03*
X134905001Y-98065001D03*
X150145001Y-103145001D03*
X134905001Y-95525001D03*
X150145001Y-105685001D03*
X134905001Y-92985001D03*
X150145001Y-108225001D03*
X134905001Y-90445001D03*
X150145001Y-110765001D03*
X134905001Y-87905001D03*
X150145001Y-113305001D03*
X134905001Y-85365001D03*
X150145001Y-115845001D03*
D16*
X134905001Y-82825001D03*
D17*
X128244600Y-118516400D03*
X128244600Y-115976400D03*
D18*
X128244600Y-113436400D03*
D14*
X158750000Y-104140000D03*
X158750000Y-101640000D03*
X158750000Y-99140000D03*
D19*
X111540000Y-96520000D02*
X116840000Y-96520000D01*
X116160000Y-101600000D02*
X116840000Y-101600000D01*
X111540000Y-106220000D02*
X116160000Y-101600000D01*
X116850000Y-106690000D02*
X116840000Y-106680000D01*
X116850000Y-108750000D02*
X116850000Y-106690000D01*
X111640000Y-113960000D02*
X116850000Y-108750000D01*
X111640000Y-114380000D02*
X111640000Y-113960000D01*
D20*
X158750000Y-104140000D02*
X156108400Y-104140000D01*
X156108400Y-104140000D02*
X154838400Y-102870000D01*
X154838400Y-95138400D02*
X150145001Y-90445001D01*
X154838400Y-102870000D02*
X154838400Y-95138400D01*
D19*
X127020000Y-96520000D02*
X127000000Y-96520000D01*
X134714999Y-92985001D02*
X134905001Y-92985001D01*
X131180000Y-96520000D02*
X134714999Y-92985001D01*
X127000000Y-96520000D02*
X131180000Y-96520000D01*
X128830002Y-101600000D02*
X134905001Y-95525001D01*
X127000000Y-101600000D02*
X128830002Y-101600000D01*
X127000000Y-106680000D02*
X127000000Y-104900000D01*
X133834999Y-98065001D02*
X134905001Y-98065001D01*
X127000000Y-104900000D02*
X133834999Y-98065001D01*
X128375999Y-113305001D02*
X128244600Y-113436400D01*
X134905001Y-113305001D02*
X128375999Y-113305001D01*
D21*
X158262249Y-76932437D02*
X159019774Y-77139672D01*
X159728625Y-77477777D01*
X160366404Y-77936067D01*
X160912946Y-78500055D01*
X161350977Y-79151913D01*
X161666651Y-79871038D01*
X161851206Y-80639768D01*
X161900000Y-81304207D01*
X161900001Y-121890597D01*
X161827563Y-122702249D01*
X161620328Y-123459774D01*
X161282221Y-124168627D01*
X160823928Y-124806410D01*
X160259945Y-125352946D01*
X159608085Y-125790978D01*
X158888963Y-126106651D01*
X158120232Y-126291206D01*
X157455792Y-126340000D01*
X109249392Y-126340000D01*
X108437751Y-126267563D01*
X107680226Y-126060328D01*
X106971373Y-125722221D01*
X106333590Y-125263928D01*
X105787054Y-124699945D01*
X105638375Y-124478686D01*
X106840919Y-124478686D01*
X107177106Y-124947868D01*
X107807068Y-125288237D01*
X108491327Y-125499166D01*
X109203589Y-125572550D01*
X109916482Y-125505569D01*
X110602609Y-125300796D01*
X111235603Y-124966102D01*
X111262894Y-124947868D01*
X111599081Y-124478686D01*
X155100919Y-124478686D01*
X155437106Y-124947868D01*
X156067068Y-125288237D01*
X156751327Y-125499166D01*
X157463589Y-125572550D01*
X158176482Y-125505569D01*
X158862609Y-125300796D01*
X159495603Y-124966102D01*
X159522894Y-124947868D01*
X159859081Y-124478686D01*
X157480000Y-122099605D01*
X155100919Y-124478686D01*
X111599081Y-124478686D01*
X109220000Y-122099605D01*
X106840919Y-124478686D01*
X105638375Y-124478686D01*
X105349022Y-124048085D01*
X105033349Y-123328963D01*
X104848794Y-122560232D01*
X104800573Y-121903589D01*
X105567450Y-121903589D01*
X105634431Y-122616482D01*
X105839204Y-123302609D01*
X106173898Y-123935603D01*
X106192132Y-123962894D01*
X106661314Y-124299081D01*
X109040395Y-121920000D01*
X109399605Y-121920000D01*
X111778686Y-124299081D01*
X112247868Y-123962894D01*
X112588237Y-123332932D01*
X112799166Y-122648673D01*
X112872550Y-121936411D01*
X112869467Y-121903589D01*
X153827450Y-121903589D01*
X153894431Y-122616482D01*
X154099204Y-123302609D01*
X154433898Y-123935603D01*
X154452132Y-123962894D01*
X154921314Y-124299081D01*
X157300395Y-121920000D01*
X157659605Y-121920000D01*
X160038686Y-124299081D01*
X160507868Y-123962894D01*
X160848237Y-123332932D01*
X161059166Y-122648673D01*
X161132550Y-121936411D01*
X161065569Y-121223518D01*
X160860796Y-120537391D01*
X160526102Y-119904397D01*
X160507868Y-119877106D01*
X160038686Y-119540919D01*
X157659605Y-121920000D01*
X157300395Y-121920000D01*
X154921314Y-119540919D01*
X154452132Y-119877106D01*
X154111763Y-120507068D01*
X153900834Y-121191327D01*
X153827450Y-121903589D01*
X112869467Y-121903589D01*
X112805569Y-121223518D01*
X112600796Y-120537391D01*
X112266102Y-119904397D01*
X112247868Y-119877106D01*
X111778686Y-119540919D01*
X109399605Y-121920000D01*
X109040395Y-121920000D01*
X106661314Y-119540919D01*
X106192132Y-119877106D01*
X105851763Y-120507068D01*
X105640834Y-121191327D01*
X105567450Y-121903589D01*
X104800573Y-121903589D01*
X104800000Y-121895792D01*
X104800000Y-119361314D01*
X106840919Y-119361314D01*
X109220000Y-121740395D01*
X111599081Y-119361314D01*
X111262894Y-118892132D01*
X111228021Y-118873290D01*
X126803124Y-118873290D01*
X126847775Y-119020499D01*
X126972959Y-119283320D01*
X127147012Y-119516669D01*
X127363245Y-119711578D01*
X127613348Y-119860557D01*
X127887709Y-119957881D01*
X128117600Y-119837214D01*
X128117600Y-118643400D01*
X128371600Y-118643400D01*
X128371600Y-119837214D01*
X128601491Y-119957881D01*
X128875852Y-119860557D01*
X129125955Y-119711578D01*
X129342188Y-119516669D01*
X129516241Y-119283320D01*
X129641425Y-119020499D01*
X129686076Y-118873290D01*
X129564755Y-118643400D01*
X128371600Y-118643400D01*
X128117600Y-118643400D01*
X126924445Y-118643400D01*
X126803124Y-118873290D01*
X111228021Y-118873290D01*
X110632932Y-118551763D01*
X109948673Y-118340834D01*
X109236411Y-118267450D01*
X108523518Y-118334431D01*
X107837391Y-118539204D01*
X107204397Y-118873898D01*
X107177106Y-118892132D01*
X106840919Y-119361314D01*
X104800000Y-119361314D01*
X104800000Y-115280000D01*
X107561928Y-115280000D01*
X107574188Y-115404482D01*
X107610498Y-115524180D01*
X107669463Y-115634494D01*
X107748815Y-115731185D01*
X107845506Y-115810537D01*
X107955820Y-115869502D01*
X108075518Y-115905812D01*
X108200000Y-115918072D01*
X108814250Y-115915000D01*
X108973000Y-115756250D01*
X108973000Y-114507000D01*
X107723750Y-114507000D01*
X107565000Y-114665750D01*
X107561928Y-115280000D01*
X104800000Y-115280000D01*
X104800000Y-113480000D01*
X107561928Y-113480000D01*
X107565000Y-114094250D01*
X107723750Y-114253000D01*
X108973000Y-114253000D01*
X108973000Y-113003750D01*
X109227000Y-113003750D01*
X109227000Y-114253000D01*
X109247000Y-114253000D01*
X109247000Y-114507000D01*
X109227000Y-114507000D01*
X109227000Y-115756250D01*
X109385750Y-115915000D01*
X110000000Y-115918072D01*
X110124482Y-115905812D01*
X110244180Y-115869502D01*
X110354494Y-115810537D01*
X110451185Y-115731185D01*
X110530537Y-115634494D01*
X110589502Y-115524180D01*
X110595056Y-115505873D01*
X110661495Y-115572312D01*
X110912905Y-115740299D01*
X111192257Y-115856011D01*
X111488816Y-115915000D01*
X111791184Y-115915000D01*
X112087743Y-115856011D01*
X112367095Y-115740299D01*
X112618505Y-115572312D01*
X112832312Y-115358505D01*
X113000299Y-115107095D01*
X113116011Y-114827743D01*
X113175000Y-114531184D01*
X113175000Y-114228816D01*
X113116011Y-113932257D01*
X113006625Y-113668176D01*
X117361004Y-109313798D01*
X117390001Y-109290001D01*
X117484974Y-109174276D01*
X117555546Y-109042247D01*
X117599003Y-108898986D01*
X117610000Y-108787333D01*
X117610000Y-108787325D01*
X117613676Y-108750000D01*
X117610000Y-108712675D01*
X117610000Y-107891362D01*
X117754759Y-107794637D01*
X117954637Y-107594759D01*
X118111680Y-107359727D01*
X118219853Y-107098574D01*
X118275000Y-106821335D01*
X118275000Y-106538665D01*
X118219853Y-106261426D01*
X118111680Y-106000273D01*
X117954637Y-105765241D01*
X117754759Y-105565363D01*
X117519727Y-105408320D01*
X117258574Y-105300147D01*
X116981335Y-105245000D01*
X116698665Y-105245000D01*
X116421426Y-105300147D01*
X116160273Y-105408320D01*
X115925241Y-105565363D01*
X115725363Y-105765241D01*
X115568320Y-106000273D01*
X115460147Y-106261426D01*
X115405000Y-106538665D01*
X115405000Y-106821335D01*
X115460147Y-107098574D01*
X115568320Y-107359727D01*
X115725363Y-107594759D01*
X115925241Y-107794637D01*
X116090000Y-107904725D01*
X116090000Y-108435198D01*
X111680199Y-112845000D01*
X111488816Y-112845000D01*
X111192257Y-112903989D01*
X110912905Y-113019701D01*
X110661495Y-113187688D01*
X110595056Y-113254127D01*
X110589502Y-113235820D01*
X110530537Y-113125506D01*
X110451185Y-113028815D01*
X110354494Y-112949463D01*
X110244180Y-112890498D01*
X110124482Y-112854188D01*
X110000000Y-112841928D01*
X109385750Y-112845000D01*
X109227000Y-113003750D01*
X108973000Y-113003750D01*
X108814250Y-112845000D01*
X108200000Y-112841928D01*
X108075518Y-112854188D01*
X107955820Y-112890498D01*
X107845506Y-112949463D01*
X107748815Y-113028815D01*
X107669463Y-113125506D01*
X107610498Y-113235820D01*
X107574188Y-113355518D01*
X107561928Y-113480000D01*
X104800000Y-113480000D01*
X104800000Y-107120000D01*
X107461928Y-107120000D01*
X107474188Y-107244482D01*
X107510498Y-107364180D01*
X107569463Y-107474494D01*
X107648815Y-107571185D01*
X107745506Y-107650537D01*
X107855820Y-107709502D01*
X107975518Y-107745812D01*
X108100000Y-107758072D01*
X108714250Y-107755000D01*
X108873000Y-107596250D01*
X108873000Y-106347000D01*
X107623750Y-106347000D01*
X107465000Y-106505750D01*
X107461928Y-107120000D01*
X104800000Y-107120000D01*
X104800000Y-105320000D01*
X107461928Y-105320000D01*
X107465000Y-105934250D01*
X107623750Y-106093000D01*
X108873000Y-106093000D01*
X108873000Y-104843750D01*
X109127000Y-104843750D01*
X109127000Y-106093000D01*
X109147000Y-106093000D01*
X109147000Y-106347000D01*
X109127000Y-106347000D01*
X109127000Y-107596250D01*
X109285750Y-107755000D01*
X109900000Y-107758072D01*
X110024482Y-107745812D01*
X110144180Y-107709502D01*
X110254494Y-107650537D01*
X110351185Y-107571185D01*
X110430537Y-107474494D01*
X110489502Y-107364180D01*
X110495056Y-107345873D01*
X110561495Y-107412312D01*
X110812905Y-107580299D01*
X111092257Y-107696011D01*
X111388816Y-107755000D01*
X111691184Y-107755000D01*
X111987743Y-107696011D01*
X112267095Y-107580299D01*
X112518505Y-107412312D01*
X112732312Y-107198505D01*
X112900299Y-106947095D01*
X113016011Y-106667743D01*
X113075000Y-106371184D01*
X113075000Y-106068816D01*
X113023731Y-105811070D01*
X116042089Y-102792712D01*
X116160273Y-102871680D01*
X116421426Y-102979853D01*
X116698665Y-103035000D01*
X116981335Y-103035000D01*
X117258574Y-102979853D01*
X117519727Y-102871680D01*
X117754759Y-102714637D01*
X117954637Y-102514759D01*
X118111680Y-102279727D01*
X118219853Y-102018574D01*
X118275000Y-101741335D01*
X118275000Y-101458665D01*
X118219853Y-101181426D01*
X118111680Y-100920273D01*
X117954637Y-100685241D01*
X117754759Y-100485363D01*
X117519727Y-100328320D01*
X117258574Y-100220147D01*
X116981335Y-100165000D01*
X116698665Y-100165000D01*
X116421426Y-100220147D01*
X116160273Y-100328320D01*
X115925241Y-100485363D01*
X115725363Y-100685241D01*
X115568320Y-100920273D01*
X115460147Y-101181426D01*
X115449315Y-101235883D01*
X111948930Y-104736269D01*
X111691184Y-104685000D01*
X111388816Y-104685000D01*
X111092257Y-104743989D01*
X110812905Y-104859701D01*
X110561495Y-105027688D01*
X110495056Y-105094127D01*
X110489502Y-105075820D01*
X110430537Y-104965506D01*
X110351185Y-104868815D01*
X110254494Y-104789463D01*
X110144180Y-104730498D01*
X110024482Y-104694188D01*
X109900000Y-104681928D01*
X109285750Y-104685000D01*
X109127000Y-104843750D01*
X108873000Y-104843750D01*
X108714250Y-104685000D01*
X108100000Y-104681928D01*
X107975518Y-104694188D01*
X107855820Y-104730498D01*
X107745506Y-104789463D01*
X107648815Y-104868815D01*
X107569463Y-104965506D01*
X107510498Y-105075820D01*
X107474188Y-105195518D01*
X107461928Y-105320000D01*
X104800000Y-105320000D01*
X104800000Y-97420000D01*
X107461928Y-97420000D01*
X107474188Y-97544482D01*
X107510498Y-97664180D01*
X107569463Y-97774494D01*
X107648815Y-97871185D01*
X107745506Y-97950537D01*
X107855820Y-98009502D01*
X107975518Y-98045812D01*
X108100000Y-98058072D01*
X108714250Y-98055000D01*
X108873000Y-97896250D01*
X108873000Y-96647000D01*
X107623750Y-96647000D01*
X107465000Y-96805750D01*
X107461928Y-97420000D01*
X104800000Y-97420000D01*
X104800000Y-95620000D01*
X107461928Y-95620000D01*
X107465000Y-96234250D01*
X107623750Y-96393000D01*
X108873000Y-96393000D01*
X108873000Y-95143750D01*
X109127000Y-95143750D01*
X109127000Y-96393000D01*
X109147000Y-96393000D01*
X109147000Y-96647000D01*
X109127000Y-96647000D01*
X109127000Y-97896250D01*
X109285750Y-98055000D01*
X109900000Y-98058072D01*
X110024482Y-98045812D01*
X110144180Y-98009502D01*
X110254494Y-97950537D01*
X110351185Y-97871185D01*
X110430537Y-97774494D01*
X110489502Y-97664180D01*
X110495056Y-97645873D01*
X110561495Y-97712312D01*
X110812905Y-97880299D01*
X111092257Y-97996011D01*
X111388816Y-98055000D01*
X111691184Y-98055000D01*
X111987743Y-97996011D01*
X112267095Y-97880299D01*
X112518505Y-97712312D01*
X112732312Y-97498505D01*
X112878313Y-97280000D01*
X115621957Y-97280000D01*
X115725363Y-97434759D01*
X115925241Y-97634637D01*
X116160273Y-97791680D01*
X116421426Y-97899853D01*
X116698665Y-97955000D01*
X116981335Y-97955000D01*
X117258574Y-97899853D01*
X117519727Y-97791680D01*
X117754759Y-97634637D01*
X117954637Y-97434759D01*
X118111680Y-97199727D01*
X118219853Y-96938574D01*
X118275000Y-96661335D01*
X118275000Y-96378665D01*
X125565000Y-96378665D01*
X125565000Y-96661335D01*
X125620147Y-96938574D01*
X125728320Y-97199727D01*
X125885363Y-97434759D01*
X126085241Y-97634637D01*
X126320273Y-97791680D01*
X126581426Y-97899853D01*
X126858665Y-97955000D01*
X127141335Y-97955000D01*
X127418574Y-97899853D01*
X127679727Y-97791680D01*
X127914759Y-97634637D01*
X128114637Y-97434759D01*
X128218043Y-97280000D01*
X131142678Y-97280000D01*
X131180000Y-97283676D01*
X131217322Y-97280000D01*
X131217333Y-97280000D01*
X131328986Y-97269003D01*
X131472247Y-97225546D01*
X131604276Y-97154974D01*
X131720001Y-97060001D01*
X131743804Y-97030997D01*
X133489584Y-95285218D01*
X133470001Y-95383666D01*
X133470001Y-95666336D01*
X133506313Y-95848887D01*
X128515201Y-100840000D01*
X128218043Y-100840000D01*
X128114637Y-100685241D01*
X127914759Y-100485363D01*
X127679727Y-100328320D01*
X127418574Y-100220147D01*
X127141335Y-100165000D01*
X126858665Y-100165000D01*
X126581426Y-100220147D01*
X126320273Y-100328320D01*
X126085241Y-100485363D01*
X125885363Y-100685241D01*
X125728320Y-100920273D01*
X125620147Y-101181426D01*
X125565000Y-101458665D01*
X125565000Y-101741335D01*
X125620147Y-102018574D01*
X125728320Y-102279727D01*
X125885363Y-102514759D01*
X126085241Y-102714637D01*
X126320273Y-102871680D01*
X126581426Y-102979853D01*
X126858665Y-103035000D01*
X127141335Y-103035000D01*
X127418574Y-102979853D01*
X127679727Y-102871680D01*
X127914759Y-102714637D01*
X128114637Y-102514759D01*
X128218043Y-102360000D01*
X128465199Y-102360000D01*
X126488998Y-104336201D01*
X126460000Y-104359999D01*
X126436202Y-104388997D01*
X126436201Y-104388998D01*
X126365026Y-104475724D01*
X126294454Y-104607754D01*
X126271023Y-104685000D01*
X126257222Y-104730498D01*
X126250998Y-104751015D01*
X126236324Y-104900000D01*
X126240001Y-104937332D01*
X126240001Y-105461956D01*
X126085241Y-105565363D01*
X125885363Y-105765241D01*
X125728320Y-106000273D01*
X125620147Y-106261426D01*
X125565000Y-106538665D01*
X125565000Y-106821335D01*
X125620147Y-107098574D01*
X125728320Y-107359727D01*
X125885363Y-107594759D01*
X126085241Y-107794637D01*
X126320273Y-107951680D01*
X126581426Y-108059853D01*
X126858665Y-108115000D01*
X127141335Y-108115000D01*
X127418574Y-108059853D01*
X127679727Y-107951680D01*
X127914759Y-107794637D01*
X128114637Y-107594759D01*
X128271680Y-107359727D01*
X128379853Y-107098574D01*
X128435000Y-106821335D01*
X128435000Y-106538665D01*
X128379853Y-106261426D01*
X128271680Y-106000273D01*
X128114637Y-105765241D01*
X127914759Y-105565363D01*
X127760000Y-105461957D01*
X127760000Y-105214801D01*
X133892703Y-99082099D01*
X133990242Y-99179638D01*
X134222760Y-99335001D01*
X133990242Y-99490364D01*
X133790364Y-99690242D01*
X133633321Y-99925274D01*
X133525148Y-100186427D01*
X133470001Y-100463666D01*
X133470001Y-100746336D01*
X133525148Y-101023575D01*
X133633321Y-101284728D01*
X133790364Y-101519760D01*
X133990242Y-101719638D01*
X134222760Y-101875001D01*
X133990242Y-102030364D01*
X133790364Y-102230242D01*
X133633321Y-102465274D01*
X133525148Y-102726427D01*
X133470001Y-103003666D01*
X133470001Y-103286336D01*
X133525148Y-103563575D01*
X133633321Y-103824728D01*
X133790364Y-104059760D01*
X133990242Y-104259638D01*
X134222760Y-104415001D01*
X133990242Y-104570364D01*
X133790364Y-104770242D01*
X133633321Y-105005274D01*
X133525148Y-105266427D01*
X133470001Y-105543666D01*
X133470001Y-105826336D01*
X133525148Y-106103575D01*
X133633321Y-106364728D01*
X133790364Y-106599760D01*
X133990242Y-106799638D01*
X134222760Y-106955001D01*
X133990242Y-107110364D01*
X133790364Y-107310242D01*
X133633321Y-107545274D01*
X133525148Y-107806427D01*
X133470001Y-108083666D01*
X133470001Y-108366336D01*
X133525148Y-108643575D01*
X133633321Y-108904728D01*
X133790364Y-109139760D01*
X133990242Y-109339638D01*
X134222760Y-109495001D01*
X133990242Y-109650364D01*
X133790364Y-109850242D01*
X133633321Y-110085274D01*
X133525148Y-110346427D01*
X133470001Y-110623666D01*
X133470001Y-110906336D01*
X133525148Y-111183575D01*
X133633321Y-111444728D01*
X133790364Y-111679760D01*
X133990242Y-111879638D01*
X134222760Y-112035001D01*
X133990242Y-112190364D01*
X133790364Y-112390242D01*
X133686958Y-112545001D01*
X129728595Y-112545001D01*
X129720412Y-112461918D01*
X129684102Y-112342220D01*
X129625137Y-112231906D01*
X129545785Y-112135215D01*
X129449094Y-112055863D01*
X129338780Y-111996898D01*
X129219082Y-111960588D01*
X129094600Y-111948328D01*
X127394600Y-111948328D01*
X127270118Y-111960588D01*
X127150420Y-111996898D01*
X127040106Y-112055863D01*
X126943415Y-112135215D01*
X126864063Y-112231906D01*
X126805098Y-112342220D01*
X126768788Y-112461918D01*
X126756528Y-112586400D01*
X126756528Y-114286400D01*
X126768788Y-114410882D01*
X126805098Y-114530580D01*
X126864063Y-114640894D01*
X126943415Y-114737585D01*
X127040106Y-114816937D01*
X127150420Y-114875902D01*
X127222980Y-114897913D01*
X127091125Y-115029768D01*
X126928610Y-115272989D01*
X126816668Y-115543242D01*
X126759600Y-115830140D01*
X126759600Y-116122660D01*
X126816668Y-116409558D01*
X126928610Y-116679811D01*
X127091125Y-116923032D01*
X127297968Y-117129875D01*
X127480134Y-117251595D01*
X127363245Y-117321222D01*
X127147012Y-117516131D01*
X126972959Y-117749480D01*
X126847775Y-118012301D01*
X126803124Y-118159510D01*
X126924445Y-118389400D01*
X128117600Y-118389400D01*
X128117600Y-118369400D01*
X128371600Y-118369400D01*
X128371600Y-118389400D01*
X129564755Y-118389400D01*
X129686076Y-118159510D01*
X129641425Y-118012301D01*
X129516241Y-117749480D01*
X129342188Y-117516131D01*
X129125955Y-117321222D01*
X129009066Y-117251595D01*
X129191232Y-117129875D01*
X129398075Y-116923032D01*
X129560590Y-116679811D01*
X129672532Y-116409558D01*
X129729600Y-116122660D01*
X129729600Y-115830140D01*
X129672532Y-115543242D01*
X129560590Y-115272989D01*
X129398075Y-115029768D01*
X129266220Y-114897913D01*
X129338780Y-114875902D01*
X129449094Y-114816937D01*
X129545785Y-114737585D01*
X129625137Y-114640894D01*
X129684102Y-114530580D01*
X129720412Y-114410882D01*
X129732672Y-114286400D01*
X129732672Y-114065001D01*
X133686958Y-114065001D01*
X133790364Y-114219760D01*
X133990242Y-114419638D01*
X134222760Y-114575001D01*
X133990242Y-114730364D01*
X133790364Y-114930242D01*
X133633321Y-115165274D01*
X133525148Y-115426427D01*
X133470001Y-115703666D01*
X133470001Y-115986336D01*
X133525148Y-116263575D01*
X133633321Y-116524728D01*
X133790364Y-116759760D01*
X133990242Y-116959638D01*
X134222760Y-117115001D01*
X133990242Y-117270364D01*
X133790364Y-117470242D01*
X133633321Y-117705274D01*
X133525148Y-117966427D01*
X133470001Y-118243666D01*
X133470001Y-118526336D01*
X133525148Y-118803575D01*
X133633321Y-119064728D01*
X133790364Y-119299760D01*
X133990242Y-119499638D01*
X134225274Y-119656681D01*
X134486427Y-119764854D01*
X134763666Y-119820001D01*
X135046336Y-119820001D01*
X135323575Y-119764854D01*
X135584728Y-119656681D01*
X135819760Y-119499638D01*
X136019638Y-119299760D01*
X136176681Y-119064728D01*
X136284854Y-118803575D01*
X136340001Y-118526336D01*
X136340001Y-118243666D01*
X136284854Y-117966427D01*
X136176681Y-117705274D01*
X136019638Y-117470242D01*
X135819760Y-117270364D01*
X135587242Y-117115001D01*
X135819760Y-116959638D01*
X136019638Y-116759760D01*
X136176681Y-116524728D01*
X136284854Y-116263575D01*
X136340001Y-115986336D01*
X136340001Y-115703666D01*
X136284854Y-115426427D01*
X136176681Y-115165274D01*
X136019638Y-114930242D01*
X135819760Y-114730364D01*
X135587242Y-114575001D01*
X135819760Y-114419638D01*
X136019638Y-114219760D01*
X136176681Y-113984728D01*
X136284854Y-113723575D01*
X136340001Y-113446336D01*
X136340001Y-113163666D01*
X136284854Y-112886427D01*
X136176681Y-112625274D01*
X136019638Y-112390242D01*
X135819760Y-112190364D01*
X135587242Y-112035001D01*
X135819760Y-111879638D01*
X136019638Y-111679760D01*
X136176681Y-111444728D01*
X136284854Y-111183575D01*
X136340001Y-110906336D01*
X136340001Y-110623666D01*
X136284854Y-110346427D01*
X136176681Y-110085274D01*
X136019638Y-109850242D01*
X135819760Y-109650364D01*
X135587242Y-109495001D01*
X135819760Y-109339638D01*
X136019638Y-109139760D01*
X136176681Y-108904728D01*
X136284854Y-108643575D01*
X136340001Y-108366336D01*
X136340001Y-108083666D01*
X136284854Y-107806427D01*
X136176681Y-107545274D01*
X136019638Y-107310242D01*
X135819760Y-107110364D01*
X135587242Y-106955001D01*
X135819760Y-106799638D01*
X136019638Y-106599760D01*
X136176681Y-106364728D01*
X136284854Y-106103575D01*
X136340001Y-105826336D01*
X136340001Y-105543666D01*
X136284854Y-105266427D01*
X136176681Y-105005274D01*
X136019638Y-104770242D01*
X135819760Y-104570364D01*
X135587242Y-104415001D01*
X135819760Y-104259638D01*
X136019638Y-104059760D01*
X136176681Y-103824728D01*
X136284854Y-103563575D01*
X136340001Y-103286336D01*
X136340001Y-103003666D01*
X136284854Y-102726427D01*
X136176681Y-102465274D01*
X136019638Y-102230242D01*
X135819760Y-102030364D01*
X135587242Y-101875001D01*
X135819760Y-101719638D01*
X136019638Y-101519760D01*
X136176681Y-101284728D01*
X136284854Y-101023575D01*
X136340001Y-100746336D01*
X136340001Y-100463666D01*
X136284854Y-100186427D01*
X136176681Y-99925274D01*
X136019638Y-99690242D01*
X135819760Y-99490364D01*
X135587242Y-99335001D01*
X135819760Y-99179638D01*
X136019638Y-98979760D01*
X136176681Y-98744728D01*
X136284854Y-98483575D01*
X136340001Y-98206336D01*
X136340001Y-97923666D01*
X136284854Y-97646427D01*
X136176681Y-97385274D01*
X136019638Y-97150242D01*
X135819760Y-96950364D01*
X135587242Y-96795001D01*
X135819760Y-96639638D01*
X136019638Y-96439760D01*
X136176681Y-96204728D01*
X136284854Y-95943575D01*
X136340001Y-95666336D01*
X136340001Y-95383666D01*
X136284854Y-95106427D01*
X136176681Y-94845274D01*
X136019638Y-94610242D01*
X135819760Y-94410364D01*
X135587242Y-94255001D01*
X135819760Y-94099638D01*
X136019638Y-93899760D01*
X136176681Y-93664728D01*
X136284854Y-93403575D01*
X136340001Y-93126336D01*
X136340001Y-92843666D01*
X136284854Y-92566427D01*
X136176681Y-92305274D01*
X136019638Y-92070242D01*
X135819760Y-91870364D01*
X135584728Y-91713321D01*
X135574136Y-91708934D01*
X135760132Y-91597386D01*
X135968520Y-91408415D01*
X136136038Y-91182421D01*
X136256247Y-90928088D01*
X136296905Y-90794040D01*
X136174916Y-90572001D01*
X135032001Y-90572001D01*
X135032001Y-90592001D01*
X134778001Y-90592001D01*
X134778001Y-90572001D01*
X133635086Y-90572001D01*
X133513097Y-90794040D01*
X133553755Y-90928088D01*
X133673964Y-91182421D01*
X133841482Y-91408415D01*
X134049870Y-91597386D01*
X134235866Y-91708934D01*
X134225274Y-91713321D01*
X133990242Y-91870364D01*
X133790364Y-92070242D01*
X133633321Y-92305274D01*
X133525148Y-92566427D01*
X133470001Y-92843666D01*
X133470001Y-93126336D01*
X133474789Y-93150409D01*
X130865199Y-95760000D01*
X128218043Y-95760000D01*
X128114637Y-95605241D01*
X127914759Y-95405363D01*
X127679727Y-95248320D01*
X127418574Y-95140147D01*
X127141335Y-95085000D01*
X126858665Y-95085000D01*
X126581426Y-95140147D01*
X126320273Y-95248320D01*
X126085241Y-95405363D01*
X125885363Y-95605241D01*
X125728320Y-95840273D01*
X125620147Y-96101426D01*
X125565000Y-96378665D01*
X118275000Y-96378665D01*
X118219853Y-96101426D01*
X118111680Y-95840273D01*
X117954637Y-95605241D01*
X117754759Y-95405363D01*
X117519727Y-95248320D01*
X117258574Y-95140147D01*
X116981335Y-95085000D01*
X116698665Y-95085000D01*
X116421426Y-95140147D01*
X116160273Y-95248320D01*
X115925241Y-95405363D01*
X115725363Y-95605241D01*
X115621957Y-95760000D01*
X112878313Y-95760000D01*
X112732312Y-95541495D01*
X112518505Y-95327688D01*
X112267095Y-95159701D01*
X111987743Y-95043989D01*
X111691184Y-94985000D01*
X111388816Y-94985000D01*
X111092257Y-95043989D01*
X110812905Y-95159701D01*
X110561495Y-95327688D01*
X110495056Y-95394127D01*
X110489502Y-95375820D01*
X110430537Y-95265506D01*
X110351185Y-95168815D01*
X110254494Y-95089463D01*
X110144180Y-95030498D01*
X110024482Y-94994188D01*
X109900000Y-94981928D01*
X109285750Y-94985000D01*
X109127000Y-95143750D01*
X108873000Y-95143750D01*
X108714250Y-94985000D01*
X108100000Y-94981928D01*
X107975518Y-94994188D01*
X107855820Y-95030498D01*
X107745506Y-95089463D01*
X107648815Y-95168815D01*
X107569463Y-95265506D01*
X107510498Y-95375820D01*
X107474188Y-95495518D01*
X107461928Y-95620000D01*
X104800000Y-95620000D01*
X104800000Y-83838686D01*
X106840919Y-83838686D01*
X107177106Y-84307868D01*
X107807068Y-84648237D01*
X108491327Y-84859166D01*
X109203589Y-84932550D01*
X109916482Y-84865569D01*
X110602609Y-84660796D01*
X111235603Y-84326102D01*
X111262894Y-84307868D01*
X111599081Y-83838686D01*
X109220000Y-81459605D01*
X106840919Y-83838686D01*
X104800000Y-83838686D01*
X104800000Y-81309392D01*
X104804087Y-81263589D01*
X105567450Y-81263589D01*
X105634431Y-81976482D01*
X105839204Y-82662609D01*
X106173898Y-83295603D01*
X106192132Y-83322894D01*
X106661314Y-83659081D01*
X109040395Y-81280000D01*
X109399605Y-81280000D01*
X111778686Y-83659081D01*
X112247868Y-83322894D01*
X112588237Y-82692932D01*
X112794132Y-82025001D01*
X133466929Y-82025001D01*
X133466929Y-83625001D01*
X133479189Y-83749483D01*
X133515499Y-83869181D01*
X133574464Y-83979495D01*
X133653816Y-84076186D01*
X133750507Y-84155538D01*
X133860821Y-84214503D01*
X133980519Y-84250813D01*
X133988962Y-84251644D01*
X133790364Y-84450242D01*
X133633321Y-84685274D01*
X133525148Y-84946427D01*
X133470001Y-85223666D01*
X133470001Y-85506336D01*
X133525148Y-85783575D01*
X133633321Y-86044728D01*
X133790364Y-86279760D01*
X133990242Y-86479638D01*
X134222760Y-86635001D01*
X133990242Y-86790364D01*
X133790364Y-86990242D01*
X133633321Y-87225274D01*
X133525148Y-87486427D01*
X133470001Y-87763666D01*
X133470001Y-88046336D01*
X133525148Y-88323575D01*
X133633321Y-88584728D01*
X133790364Y-88819760D01*
X133990242Y-89019638D01*
X134225274Y-89176681D01*
X134235866Y-89181068D01*
X134049870Y-89292616D01*
X133841482Y-89481587D01*
X133673964Y-89707581D01*
X133553755Y-89961914D01*
X133513097Y-90095962D01*
X133635086Y-90318001D01*
X134778001Y-90318001D01*
X134778001Y-90298001D01*
X135032001Y-90298001D01*
X135032001Y-90318001D01*
X136174916Y-90318001D01*
X136296905Y-90095962D01*
X136256247Y-89961914D01*
X136136038Y-89707581D01*
X135968520Y-89481587D01*
X135760132Y-89292616D01*
X135574136Y-89181068D01*
X135584728Y-89176681D01*
X135819760Y-89019638D01*
X136019638Y-88819760D01*
X136176681Y-88584728D01*
X136284854Y-88323575D01*
X136340001Y-88046336D01*
X136340001Y-87763666D01*
X148710001Y-87763666D01*
X148710001Y-88046336D01*
X148765148Y-88323575D01*
X148873321Y-88584728D01*
X149030364Y-88819760D01*
X149230242Y-89019638D01*
X149462760Y-89175001D01*
X149230242Y-89330364D01*
X149030364Y-89530242D01*
X148873321Y-89765274D01*
X148765148Y-90026427D01*
X148710001Y-90303666D01*
X148710001Y-90586336D01*
X148765148Y-90863575D01*
X148873321Y-91124728D01*
X149030364Y-91359760D01*
X149230242Y-91559638D01*
X149462760Y-91715001D01*
X149230242Y-91870364D01*
X149030364Y-92070242D01*
X148873321Y-92305274D01*
X148765148Y-92566427D01*
X148710001Y-92843666D01*
X148710001Y-93126336D01*
X148765148Y-93403575D01*
X148873321Y-93664728D01*
X149030364Y-93899760D01*
X149230242Y-94099638D01*
X149462760Y-94255001D01*
X149230242Y-94410364D01*
X149030364Y-94610242D01*
X148873321Y-94845274D01*
X148765148Y-95106427D01*
X148710001Y-95383666D01*
X148710001Y-95666336D01*
X148765148Y-95943575D01*
X148873321Y-96204728D01*
X149030364Y-96439760D01*
X149230242Y-96639638D01*
X149462760Y-96795001D01*
X149230242Y-96950364D01*
X149030364Y-97150242D01*
X148873321Y-97385274D01*
X148765148Y-97646427D01*
X148710001Y-97923666D01*
X148710001Y-98206336D01*
X148765148Y-98483575D01*
X148873321Y-98744728D01*
X149030364Y-98979760D01*
X149230242Y-99179638D01*
X149462760Y-99335001D01*
X149230242Y-99490364D01*
X149030364Y-99690242D01*
X148873321Y-99925274D01*
X148765148Y-100186427D01*
X148710001Y-100463666D01*
X148710001Y-100746336D01*
X148765148Y-101023575D01*
X148873321Y-101284728D01*
X149030364Y-101519760D01*
X149230242Y-101719638D01*
X149462760Y-101875001D01*
X149230242Y-102030364D01*
X149030364Y-102230242D01*
X148873321Y-102465274D01*
X148765148Y-102726427D01*
X148710001Y-103003666D01*
X148710001Y-103286336D01*
X148765148Y-103563575D01*
X148873321Y-103824728D01*
X149030364Y-104059760D01*
X149230242Y-104259638D01*
X149462760Y-104415001D01*
X149230242Y-104570364D01*
X149030364Y-104770242D01*
X148873321Y-105005274D01*
X148765148Y-105266427D01*
X148710001Y-105543666D01*
X148710001Y-105826336D01*
X148765148Y-106103575D01*
X148873321Y-106364728D01*
X149030364Y-106599760D01*
X149230242Y-106799638D01*
X149462760Y-106955001D01*
X149230242Y-107110364D01*
X149030364Y-107310242D01*
X148873321Y-107545274D01*
X148765148Y-107806427D01*
X148710001Y-108083666D01*
X148710001Y-108366336D01*
X148765148Y-108643575D01*
X148873321Y-108904728D01*
X149030364Y-109139760D01*
X149230242Y-109339638D01*
X149462760Y-109495001D01*
X149230242Y-109650364D01*
X149030364Y-109850242D01*
X148873321Y-110085274D01*
X148765148Y-110346427D01*
X148710001Y-110623666D01*
X148710001Y-110906336D01*
X148765148Y-111183575D01*
X148873321Y-111444728D01*
X149030364Y-111679760D01*
X149230242Y-111879638D01*
X149462760Y-112035001D01*
X149230242Y-112190364D01*
X149030364Y-112390242D01*
X148873321Y-112625274D01*
X148765148Y-112886427D01*
X148710001Y-113163666D01*
X148710001Y-113446336D01*
X148765148Y-113723575D01*
X148873321Y-113984728D01*
X149030364Y-114219760D01*
X149230242Y-114419638D01*
X149462760Y-114575001D01*
X149230242Y-114730364D01*
X149030364Y-114930242D01*
X148873321Y-115165274D01*
X148765148Y-115426427D01*
X148710001Y-115703666D01*
X148710001Y-115986336D01*
X148765148Y-116263575D01*
X148873321Y-116524728D01*
X149030364Y-116759760D01*
X149230242Y-116959638D01*
X149462760Y-117115001D01*
X149230242Y-117270364D01*
X149030364Y-117470242D01*
X148873321Y-117705274D01*
X148765148Y-117966427D01*
X148710001Y-118243666D01*
X148710001Y-118526336D01*
X148765148Y-118803575D01*
X148873321Y-119064728D01*
X149030364Y-119299760D01*
X149230242Y-119499638D01*
X149465274Y-119656681D01*
X149726427Y-119764854D01*
X150003666Y-119820001D01*
X150286336Y-119820001D01*
X150563575Y-119764854D01*
X150824728Y-119656681D01*
X151059760Y-119499638D01*
X151198084Y-119361314D01*
X155100919Y-119361314D01*
X157480000Y-121740395D01*
X159859081Y-119361314D01*
X159522894Y-118892132D01*
X158892932Y-118551763D01*
X158208673Y-118340834D01*
X157496411Y-118267450D01*
X156783518Y-118334431D01*
X156097391Y-118539204D01*
X155464397Y-118873898D01*
X155437106Y-118892132D01*
X155100919Y-119361314D01*
X151198084Y-119361314D01*
X151259638Y-119299760D01*
X151416681Y-119064728D01*
X151524854Y-118803575D01*
X151580001Y-118526336D01*
X151580001Y-118243666D01*
X151524854Y-117966427D01*
X151416681Y-117705274D01*
X151259638Y-117470242D01*
X151059760Y-117270364D01*
X150827242Y-117115001D01*
X151059760Y-116959638D01*
X151259638Y-116759760D01*
X151416681Y-116524728D01*
X151524854Y-116263575D01*
X151580001Y-115986336D01*
X151580001Y-115703666D01*
X151524854Y-115426427D01*
X151416681Y-115165274D01*
X151259638Y-114930242D01*
X151059760Y-114730364D01*
X150827242Y-114575001D01*
X151059760Y-114419638D01*
X151259638Y-114219760D01*
X151416681Y-113984728D01*
X151524854Y-113723575D01*
X151580001Y-113446336D01*
X151580001Y-113163666D01*
X151524854Y-112886427D01*
X151416681Y-112625274D01*
X151259638Y-112390242D01*
X151059760Y-112190364D01*
X150827242Y-112035001D01*
X151059760Y-111879638D01*
X151259638Y-111679760D01*
X151416681Y-111444728D01*
X151524854Y-111183575D01*
X151580001Y-110906336D01*
X151580001Y-110623666D01*
X151524854Y-110346427D01*
X151416681Y-110085274D01*
X151259638Y-109850242D01*
X151059760Y-109650364D01*
X150827242Y-109495001D01*
X151059760Y-109339638D01*
X151259638Y-109139760D01*
X151416681Y-108904728D01*
X151524854Y-108643575D01*
X151580001Y-108366336D01*
X151580001Y-108083666D01*
X151524854Y-107806427D01*
X151416681Y-107545274D01*
X151259638Y-107310242D01*
X151059760Y-107110364D01*
X150827242Y-106955001D01*
X151059760Y-106799638D01*
X151259638Y-106599760D01*
X151416681Y-106364728D01*
X151524854Y-106103575D01*
X151580001Y-105826336D01*
X151580001Y-105543666D01*
X151524854Y-105266427D01*
X151416681Y-105005274D01*
X151259638Y-104770242D01*
X151059760Y-104570364D01*
X150827242Y-104415001D01*
X151059760Y-104259638D01*
X151259638Y-104059760D01*
X151416681Y-103824728D01*
X151524854Y-103563575D01*
X151580001Y-103286336D01*
X151580001Y-103003666D01*
X151524854Y-102726427D01*
X151416681Y-102465274D01*
X151259638Y-102230242D01*
X151059760Y-102030364D01*
X150827242Y-101875001D01*
X151059760Y-101719638D01*
X151259638Y-101519760D01*
X151416681Y-101284728D01*
X151524854Y-101023575D01*
X151580001Y-100746336D01*
X151580001Y-100463666D01*
X151524854Y-100186427D01*
X151416681Y-99925274D01*
X151259638Y-99690242D01*
X151059760Y-99490364D01*
X150827242Y-99335001D01*
X151059760Y-99179638D01*
X151259638Y-98979760D01*
X151416681Y-98744728D01*
X151524854Y-98483575D01*
X151580001Y-98206336D01*
X151580001Y-97923666D01*
X151524854Y-97646427D01*
X151416681Y-97385274D01*
X151259638Y-97150242D01*
X151059760Y-96950364D01*
X150827242Y-96795001D01*
X151059760Y-96639638D01*
X151259638Y-96439760D01*
X151416681Y-96204728D01*
X151524854Y-95943575D01*
X151580001Y-95666336D01*
X151580001Y-95383666D01*
X151524854Y-95106427D01*
X151416681Y-94845274D01*
X151259638Y-94610242D01*
X151059760Y-94410364D01*
X150827242Y-94255001D01*
X151059760Y-94099638D01*
X151259638Y-93899760D01*
X151416681Y-93664728D01*
X151524854Y-93403575D01*
X151579131Y-93130709D01*
X153953401Y-95504980D01*
X153953400Y-102826531D01*
X153949119Y-102870000D01*
X153953400Y-102913469D01*
X153953400Y-102913476D01*
X153966205Y-103043489D01*
X154016811Y-103210312D01*
X154098989Y-103364058D01*
X154209583Y-103498817D01*
X154243356Y-103526534D01*
X155451870Y-104735049D01*
X155479583Y-104768817D01*
X155513351Y-104796530D01*
X155513353Y-104796532D01*
X155570888Y-104843750D01*
X155614341Y-104879411D01*
X155768087Y-104961589D01*
X155934910Y-105012195D01*
X156064923Y-105025000D01*
X156064933Y-105025000D01*
X156108399Y-105029281D01*
X156151865Y-105025000D01*
X157495210Y-105025000D01*
X157557688Y-105118505D01*
X157771495Y-105332312D01*
X158022905Y-105500299D01*
X158302257Y-105616011D01*
X158598816Y-105675000D01*
X158901184Y-105675000D01*
X159197743Y-105616011D01*
X159477095Y-105500299D01*
X159728505Y-105332312D01*
X159942312Y-105118505D01*
X160110299Y-104867095D01*
X160226011Y-104587743D01*
X160285000Y-104291184D01*
X160285000Y-103988816D01*
X160226011Y-103692257D01*
X160110299Y-103412905D01*
X159942312Y-103161495D01*
X159728505Y-102947688D01*
X159642169Y-102890000D01*
X159728505Y-102832312D01*
X159942312Y-102618505D01*
X160110299Y-102367095D01*
X160226011Y-102087743D01*
X160285000Y-101791184D01*
X160285000Y-101488816D01*
X160226011Y-101192257D01*
X160110299Y-100912905D01*
X159942312Y-100661495D01*
X159728505Y-100447688D01*
X159585690Y-100352262D01*
X159634475Y-100204080D01*
X158750000Y-99319605D01*
X157865525Y-100204080D01*
X157914310Y-100352262D01*
X157771495Y-100447688D01*
X157557688Y-100661495D01*
X157389701Y-100912905D01*
X157273989Y-101192257D01*
X157215000Y-101488816D01*
X157215000Y-101791184D01*
X157273989Y-102087743D01*
X157389701Y-102367095D01*
X157557688Y-102618505D01*
X157771495Y-102832312D01*
X157857831Y-102890000D01*
X157771495Y-102947688D01*
X157557688Y-103161495D01*
X157495210Y-103255000D01*
X156474979Y-103255000D01*
X155723400Y-102503422D01*
X155723400Y-99206553D01*
X157209009Y-99206553D01*
X157251603Y-99505907D01*
X157351778Y-99791199D01*
X157431739Y-99940792D01*
X157685920Y-100024475D01*
X158570395Y-99140000D01*
X158929605Y-99140000D01*
X159814080Y-100024475D01*
X160068261Y-99940792D01*
X160199158Y-99668225D01*
X160274365Y-99375358D01*
X160290991Y-99073447D01*
X160248397Y-98774093D01*
X160148222Y-98488801D01*
X160068261Y-98339208D01*
X159814080Y-98255525D01*
X158929605Y-99140000D01*
X158570395Y-99140000D01*
X157685920Y-98255525D01*
X157431739Y-98339208D01*
X157300842Y-98611775D01*
X157225635Y-98904642D01*
X157209009Y-99206553D01*
X155723400Y-99206553D01*
X155723400Y-98075920D01*
X157865525Y-98075920D01*
X158750000Y-98960395D01*
X159634475Y-98075920D01*
X159550792Y-97821739D01*
X159278225Y-97690842D01*
X158985358Y-97615635D01*
X158683447Y-97599009D01*
X158384093Y-97641603D01*
X158098801Y-97741778D01*
X157949208Y-97821739D01*
X157865525Y-98075920D01*
X155723400Y-98075920D01*
X155723400Y-95181869D01*
X155727681Y-95138400D01*
X155723400Y-95094931D01*
X155723400Y-95094923D01*
X155710595Y-94964910D01*
X155659989Y-94798087D01*
X155659989Y-94798086D01*
X155577811Y-94644341D01*
X155494932Y-94543353D01*
X155494930Y-94543351D01*
X155467217Y-94509583D01*
X155433449Y-94481870D01*
X151573018Y-90621440D01*
X151580001Y-90586336D01*
X151580001Y-90303666D01*
X151524854Y-90026427D01*
X151416681Y-89765274D01*
X151259638Y-89530242D01*
X151059760Y-89330364D01*
X150827242Y-89175001D01*
X151059760Y-89019638D01*
X151259638Y-88819760D01*
X151416681Y-88584728D01*
X151524854Y-88323575D01*
X151580001Y-88046336D01*
X151580001Y-87763666D01*
X151524854Y-87486427D01*
X151416681Y-87225274D01*
X151259638Y-86990242D01*
X151059760Y-86790364D01*
X150824728Y-86633321D01*
X150814136Y-86628934D01*
X151000132Y-86517386D01*
X151208520Y-86328415D01*
X151376038Y-86102421D01*
X151496247Y-85848088D01*
X151536905Y-85714040D01*
X151414916Y-85492001D01*
X150272001Y-85492001D01*
X150272001Y-85512001D01*
X150018001Y-85512001D01*
X150018001Y-85492001D01*
X148875086Y-85492001D01*
X148753097Y-85714040D01*
X148793755Y-85848088D01*
X148913964Y-86102421D01*
X149081482Y-86328415D01*
X149289870Y-86517386D01*
X149475866Y-86628934D01*
X149465274Y-86633321D01*
X149230242Y-86790364D01*
X149030364Y-86990242D01*
X148873321Y-87225274D01*
X148765148Y-87486427D01*
X148710001Y-87763666D01*
X136340001Y-87763666D01*
X136284854Y-87486427D01*
X136176681Y-87225274D01*
X136019638Y-86990242D01*
X135819760Y-86790364D01*
X135587242Y-86635001D01*
X135819760Y-86479638D01*
X136019638Y-86279760D01*
X136176681Y-86044728D01*
X136284854Y-85783575D01*
X136340001Y-85506336D01*
X136340001Y-85223666D01*
X136284854Y-84946427D01*
X136176681Y-84685274D01*
X136019638Y-84450242D01*
X135821040Y-84251644D01*
X135829483Y-84250813D01*
X135949181Y-84214503D01*
X136059495Y-84155538D01*
X136156186Y-84076186D01*
X136235538Y-83979495D01*
X136294503Y-83869181D01*
X136330813Y-83749483D01*
X136343073Y-83625001D01*
X136343073Y-82683666D01*
X148710001Y-82683666D01*
X148710001Y-82966336D01*
X148765148Y-83243575D01*
X148873321Y-83504728D01*
X149030364Y-83739760D01*
X149230242Y-83939638D01*
X149465274Y-84096681D01*
X149475866Y-84101068D01*
X149289870Y-84212616D01*
X149081482Y-84401587D01*
X148913964Y-84627581D01*
X148793755Y-84881914D01*
X148753097Y-85015962D01*
X148875086Y-85238001D01*
X150018001Y-85238001D01*
X150018001Y-85218001D01*
X150272001Y-85218001D01*
X150272001Y-85238001D01*
X151414916Y-85238001D01*
X151536905Y-85015962D01*
X151496247Y-84881914D01*
X151376038Y-84627581D01*
X151208520Y-84401587D01*
X151000132Y-84212616D01*
X150814136Y-84101068D01*
X150824728Y-84096681D01*
X151059760Y-83939638D01*
X151103712Y-83895686D01*
X155100919Y-83895686D01*
X155437106Y-84364868D01*
X156067068Y-84705237D01*
X156751327Y-84916166D01*
X157463589Y-84989550D01*
X158176482Y-84922569D01*
X158862609Y-84717796D01*
X159495603Y-84383102D01*
X159522894Y-84364868D01*
X159859081Y-83895686D01*
X157480000Y-81516605D01*
X155100919Y-83895686D01*
X151103712Y-83895686D01*
X151259638Y-83739760D01*
X151416681Y-83504728D01*
X151524854Y-83243575D01*
X151580001Y-82966336D01*
X151580001Y-82683666D01*
X151524854Y-82406427D01*
X151416681Y-82145274D01*
X151259638Y-81910242D01*
X151059760Y-81710364D01*
X150824728Y-81553321D01*
X150563575Y-81445148D01*
X150286336Y-81390001D01*
X150003666Y-81390001D01*
X149726427Y-81445148D01*
X149465274Y-81553321D01*
X149230242Y-81710364D01*
X149030364Y-81910242D01*
X148873321Y-82145274D01*
X148765148Y-82406427D01*
X148710001Y-82683666D01*
X136343073Y-82683666D01*
X136343073Y-82025001D01*
X136330813Y-81900519D01*
X136294503Y-81780821D01*
X136235538Y-81670507D01*
X136156186Y-81573816D01*
X136059495Y-81494464D01*
X135949181Y-81435499D01*
X135829483Y-81399189D01*
X135705001Y-81386929D01*
X134105001Y-81386929D01*
X133980519Y-81399189D01*
X133860821Y-81435499D01*
X133750507Y-81494464D01*
X133653816Y-81573816D01*
X133574464Y-81670507D01*
X133515499Y-81780821D01*
X133479189Y-81900519D01*
X133466929Y-82025001D01*
X112794132Y-82025001D01*
X112799166Y-82008673D01*
X112870058Y-81320589D01*
X153827450Y-81320589D01*
X153894431Y-82033482D01*
X154099204Y-82719609D01*
X154433898Y-83352603D01*
X154452132Y-83379894D01*
X154921314Y-83716081D01*
X157300395Y-81337000D01*
X157659605Y-81337000D01*
X160038686Y-83716081D01*
X160507868Y-83379894D01*
X160848237Y-82749932D01*
X161059166Y-82065673D01*
X161132550Y-81353411D01*
X161065569Y-80640518D01*
X160860796Y-79954391D01*
X160526102Y-79321397D01*
X160507868Y-79294106D01*
X160038686Y-78957919D01*
X157659605Y-81337000D01*
X157300395Y-81337000D01*
X154921314Y-78957919D01*
X154452132Y-79294106D01*
X154111763Y-79924068D01*
X153900834Y-80608327D01*
X153827450Y-81320589D01*
X112870058Y-81320589D01*
X112872550Y-81296411D01*
X112805569Y-80583518D01*
X112600796Y-79897391D01*
X112266102Y-79264397D01*
X112247868Y-79237106D01*
X111778686Y-78900919D01*
X109399605Y-81280000D01*
X109040395Y-81280000D01*
X106661314Y-78900919D01*
X106192132Y-79237106D01*
X105851763Y-79867068D01*
X105640834Y-80551327D01*
X105567450Y-81263589D01*
X104804087Y-81263589D01*
X104872437Y-80497751D01*
X105079672Y-79740226D01*
X105417777Y-79031375D01*
X105640578Y-78721314D01*
X106840919Y-78721314D01*
X109220000Y-81100395D01*
X111542081Y-78778314D01*
X155100919Y-78778314D01*
X157480000Y-81157395D01*
X159859081Y-78778314D01*
X159522894Y-78309132D01*
X158892932Y-77968763D01*
X158208673Y-77757834D01*
X157496411Y-77684450D01*
X156783518Y-77751431D01*
X156097391Y-77956204D01*
X155464397Y-78290898D01*
X155437106Y-78309132D01*
X155100919Y-78778314D01*
X111542081Y-78778314D01*
X111599081Y-78721314D01*
X111262894Y-78252132D01*
X110632932Y-77911763D01*
X109948673Y-77700834D01*
X109236411Y-77627450D01*
X108523518Y-77694431D01*
X107837391Y-77899204D01*
X107204397Y-78233898D01*
X107177106Y-78252132D01*
X106840919Y-78721314D01*
X105640578Y-78721314D01*
X105876067Y-78393596D01*
X106440055Y-77847054D01*
X107091913Y-77409023D01*
X107811038Y-77093349D01*
X108579768Y-76908794D01*
X109244207Y-76860000D01*
X157450608Y-76860000D01*
X158262249Y-76932437D01*
G04 #@! TA.AperFunction,Conductor*
D22*
G36*
X158262249Y-76932437D02*
G01*
X159019774Y-77139672D01*
X159728625Y-77477777D01*
X160366404Y-77936067D01*
X160912946Y-78500055D01*
X161350977Y-79151913D01*
X161666651Y-79871038D01*
X161851206Y-80639768D01*
X161900000Y-81304207D01*
X161900001Y-121890597D01*
X161827563Y-122702249D01*
X161620328Y-123459774D01*
X161282221Y-124168627D01*
X160823928Y-124806410D01*
X160259945Y-125352946D01*
X159608085Y-125790978D01*
X158888963Y-126106651D01*
X158120232Y-126291206D01*
X157455792Y-126340000D01*
X109249392Y-126340000D01*
X108437751Y-126267563D01*
X107680226Y-126060328D01*
X106971373Y-125722221D01*
X106333590Y-125263928D01*
X105787054Y-124699945D01*
X105638375Y-124478686D01*
X106840919Y-124478686D01*
X107177106Y-124947868D01*
X107807068Y-125288237D01*
X108491327Y-125499166D01*
X109203589Y-125572550D01*
X109916482Y-125505569D01*
X110602609Y-125300796D01*
X111235603Y-124966102D01*
X111262894Y-124947868D01*
X111599081Y-124478686D01*
X155100919Y-124478686D01*
X155437106Y-124947868D01*
X156067068Y-125288237D01*
X156751327Y-125499166D01*
X157463589Y-125572550D01*
X158176482Y-125505569D01*
X158862609Y-125300796D01*
X159495603Y-124966102D01*
X159522894Y-124947868D01*
X159859081Y-124478686D01*
X157480000Y-122099605D01*
X155100919Y-124478686D01*
X111599081Y-124478686D01*
X109220000Y-122099605D01*
X106840919Y-124478686D01*
X105638375Y-124478686D01*
X105349022Y-124048085D01*
X105033349Y-123328963D01*
X104848794Y-122560232D01*
X104800573Y-121903589D01*
X105567450Y-121903589D01*
X105634431Y-122616482D01*
X105839204Y-123302609D01*
X106173898Y-123935603D01*
X106192132Y-123962894D01*
X106661314Y-124299081D01*
X109040395Y-121920000D01*
X109399605Y-121920000D01*
X111778686Y-124299081D01*
X112247868Y-123962894D01*
X112588237Y-123332932D01*
X112799166Y-122648673D01*
X112872550Y-121936411D01*
X112869467Y-121903589D01*
X153827450Y-121903589D01*
X153894431Y-122616482D01*
X154099204Y-123302609D01*
X154433898Y-123935603D01*
X154452132Y-123962894D01*
X154921314Y-124299081D01*
X157300395Y-121920000D01*
X157659605Y-121920000D01*
X160038686Y-124299081D01*
X160507868Y-123962894D01*
X160848237Y-123332932D01*
X161059166Y-122648673D01*
X161132550Y-121936411D01*
X161065569Y-121223518D01*
X160860796Y-120537391D01*
X160526102Y-119904397D01*
X160507868Y-119877106D01*
X160038686Y-119540919D01*
X157659605Y-121920000D01*
X157300395Y-121920000D01*
X154921314Y-119540919D01*
X154452132Y-119877106D01*
X154111763Y-120507068D01*
X153900834Y-121191327D01*
X153827450Y-121903589D01*
X112869467Y-121903589D01*
X112805569Y-121223518D01*
X112600796Y-120537391D01*
X112266102Y-119904397D01*
X112247868Y-119877106D01*
X111778686Y-119540919D01*
X109399605Y-121920000D01*
X109040395Y-121920000D01*
X106661314Y-119540919D01*
X106192132Y-119877106D01*
X105851763Y-120507068D01*
X105640834Y-121191327D01*
X105567450Y-121903589D01*
X104800573Y-121903589D01*
X104800000Y-121895792D01*
X104800000Y-119361314D01*
X106840919Y-119361314D01*
X109220000Y-121740395D01*
X111599081Y-119361314D01*
X111262894Y-118892132D01*
X111228021Y-118873290D01*
X126803124Y-118873290D01*
X126847775Y-119020499D01*
X126972959Y-119283320D01*
X127147012Y-119516669D01*
X127363245Y-119711578D01*
X127613348Y-119860557D01*
X127887709Y-119957881D01*
X128117600Y-119837214D01*
X128117600Y-118643400D01*
X128371600Y-118643400D01*
X128371600Y-119837214D01*
X128601491Y-119957881D01*
X128875852Y-119860557D01*
X129125955Y-119711578D01*
X129342188Y-119516669D01*
X129516241Y-119283320D01*
X129641425Y-119020499D01*
X129686076Y-118873290D01*
X129564755Y-118643400D01*
X128371600Y-118643400D01*
X128117600Y-118643400D01*
X126924445Y-118643400D01*
X126803124Y-118873290D01*
X111228021Y-118873290D01*
X110632932Y-118551763D01*
X109948673Y-118340834D01*
X109236411Y-118267450D01*
X108523518Y-118334431D01*
X107837391Y-118539204D01*
X107204397Y-118873898D01*
X107177106Y-118892132D01*
X106840919Y-119361314D01*
X104800000Y-119361314D01*
X104800000Y-115280000D01*
X107561928Y-115280000D01*
X107574188Y-115404482D01*
X107610498Y-115524180D01*
X107669463Y-115634494D01*
X107748815Y-115731185D01*
X107845506Y-115810537D01*
X107955820Y-115869502D01*
X108075518Y-115905812D01*
X108200000Y-115918072D01*
X108814250Y-115915000D01*
X108973000Y-115756250D01*
X108973000Y-114507000D01*
X107723750Y-114507000D01*
X107565000Y-114665750D01*
X107561928Y-115280000D01*
X104800000Y-115280000D01*
X104800000Y-113480000D01*
X107561928Y-113480000D01*
X107565000Y-114094250D01*
X107723750Y-114253000D01*
X108973000Y-114253000D01*
X108973000Y-113003750D01*
X109227000Y-113003750D01*
X109227000Y-114253000D01*
X109247000Y-114253000D01*
X109247000Y-114507000D01*
X109227000Y-114507000D01*
X109227000Y-115756250D01*
X109385750Y-115915000D01*
X110000000Y-115918072D01*
X110124482Y-115905812D01*
X110244180Y-115869502D01*
X110354494Y-115810537D01*
X110451185Y-115731185D01*
X110530537Y-115634494D01*
X110589502Y-115524180D01*
X110595056Y-115505873D01*
X110661495Y-115572312D01*
X110912905Y-115740299D01*
X111192257Y-115856011D01*
X111488816Y-115915000D01*
X111791184Y-115915000D01*
X112087743Y-115856011D01*
X112367095Y-115740299D01*
X112618505Y-115572312D01*
X112832312Y-115358505D01*
X113000299Y-115107095D01*
X113116011Y-114827743D01*
X113175000Y-114531184D01*
X113175000Y-114228816D01*
X113116011Y-113932257D01*
X113006625Y-113668176D01*
X117361004Y-109313798D01*
X117390001Y-109290001D01*
X117484974Y-109174276D01*
X117555546Y-109042247D01*
X117599003Y-108898986D01*
X117610000Y-108787333D01*
X117610000Y-108787325D01*
X117613676Y-108750000D01*
X117610000Y-108712675D01*
X117610000Y-107891362D01*
X117754759Y-107794637D01*
X117954637Y-107594759D01*
X118111680Y-107359727D01*
X118219853Y-107098574D01*
X118275000Y-106821335D01*
X118275000Y-106538665D01*
X118219853Y-106261426D01*
X118111680Y-106000273D01*
X117954637Y-105765241D01*
X117754759Y-105565363D01*
X117519727Y-105408320D01*
X117258574Y-105300147D01*
X116981335Y-105245000D01*
X116698665Y-105245000D01*
X116421426Y-105300147D01*
X116160273Y-105408320D01*
X115925241Y-105565363D01*
X115725363Y-105765241D01*
X115568320Y-106000273D01*
X115460147Y-106261426D01*
X115405000Y-106538665D01*
X115405000Y-106821335D01*
X115460147Y-107098574D01*
X115568320Y-107359727D01*
X115725363Y-107594759D01*
X115925241Y-107794637D01*
X116090000Y-107904725D01*
X116090000Y-108435198D01*
X111680199Y-112845000D01*
X111488816Y-112845000D01*
X111192257Y-112903989D01*
X110912905Y-113019701D01*
X110661495Y-113187688D01*
X110595056Y-113254127D01*
X110589502Y-113235820D01*
X110530537Y-113125506D01*
X110451185Y-113028815D01*
X110354494Y-112949463D01*
X110244180Y-112890498D01*
X110124482Y-112854188D01*
X110000000Y-112841928D01*
X109385750Y-112845000D01*
X109227000Y-113003750D01*
X108973000Y-113003750D01*
X108814250Y-112845000D01*
X108200000Y-112841928D01*
X108075518Y-112854188D01*
X107955820Y-112890498D01*
X107845506Y-112949463D01*
X107748815Y-113028815D01*
X107669463Y-113125506D01*
X107610498Y-113235820D01*
X107574188Y-113355518D01*
X107561928Y-113480000D01*
X104800000Y-113480000D01*
X104800000Y-107120000D01*
X107461928Y-107120000D01*
X107474188Y-107244482D01*
X107510498Y-107364180D01*
X107569463Y-107474494D01*
X107648815Y-107571185D01*
X107745506Y-107650537D01*
X107855820Y-107709502D01*
X107975518Y-107745812D01*
X108100000Y-107758072D01*
X108714250Y-107755000D01*
X108873000Y-107596250D01*
X108873000Y-106347000D01*
X107623750Y-106347000D01*
X107465000Y-106505750D01*
X107461928Y-107120000D01*
X104800000Y-107120000D01*
X104800000Y-105320000D01*
X107461928Y-105320000D01*
X107465000Y-105934250D01*
X107623750Y-106093000D01*
X108873000Y-106093000D01*
X108873000Y-104843750D01*
X109127000Y-104843750D01*
X109127000Y-106093000D01*
X109147000Y-106093000D01*
X109147000Y-106347000D01*
X109127000Y-106347000D01*
X109127000Y-107596250D01*
X109285750Y-107755000D01*
X109900000Y-107758072D01*
X110024482Y-107745812D01*
X110144180Y-107709502D01*
X110254494Y-107650537D01*
X110351185Y-107571185D01*
X110430537Y-107474494D01*
X110489502Y-107364180D01*
X110495056Y-107345873D01*
X110561495Y-107412312D01*
X110812905Y-107580299D01*
X111092257Y-107696011D01*
X111388816Y-107755000D01*
X111691184Y-107755000D01*
X111987743Y-107696011D01*
X112267095Y-107580299D01*
X112518505Y-107412312D01*
X112732312Y-107198505D01*
X112900299Y-106947095D01*
X113016011Y-106667743D01*
X113075000Y-106371184D01*
X113075000Y-106068816D01*
X113023731Y-105811070D01*
X116042089Y-102792712D01*
X116160273Y-102871680D01*
X116421426Y-102979853D01*
X116698665Y-103035000D01*
X116981335Y-103035000D01*
X117258574Y-102979853D01*
X117519727Y-102871680D01*
X117754759Y-102714637D01*
X117954637Y-102514759D01*
X118111680Y-102279727D01*
X118219853Y-102018574D01*
X118275000Y-101741335D01*
X118275000Y-101458665D01*
X118219853Y-101181426D01*
X118111680Y-100920273D01*
X117954637Y-100685241D01*
X117754759Y-100485363D01*
X117519727Y-100328320D01*
X117258574Y-100220147D01*
X116981335Y-100165000D01*
X116698665Y-100165000D01*
X116421426Y-100220147D01*
X116160273Y-100328320D01*
X115925241Y-100485363D01*
X115725363Y-100685241D01*
X115568320Y-100920273D01*
X115460147Y-101181426D01*
X115449315Y-101235883D01*
X111948930Y-104736269D01*
X111691184Y-104685000D01*
X111388816Y-104685000D01*
X111092257Y-104743989D01*
X110812905Y-104859701D01*
X110561495Y-105027688D01*
X110495056Y-105094127D01*
X110489502Y-105075820D01*
X110430537Y-104965506D01*
X110351185Y-104868815D01*
X110254494Y-104789463D01*
X110144180Y-104730498D01*
X110024482Y-104694188D01*
X109900000Y-104681928D01*
X109285750Y-104685000D01*
X109127000Y-104843750D01*
X108873000Y-104843750D01*
X108714250Y-104685000D01*
X108100000Y-104681928D01*
X107975518Y-104694188D01*
X107855820Y-104730498D01*
X107745506Y-104789463D01*
X107648815Y-104868815D01*
X107569463Y-104965506D01*
X107510498Y-105075820D01*
X107474188Y-105195518D01*
X107461928Y-105320000D01*
X104800000Y-105320000D01*
X104800000Y-97420000D01*
X107461928Y-97420000D01*
X107474188Y-97544482D01*
X107510498Y-97664180D01*
X107569463Y-97774494D01*
X107648815Y-97871185D01*
X107745506Y-97950537D01*
X107855820Y-98009502D01*
X107975518Y-98045812D01*
X108100000Y-98058072D01*
X108714250Y-98055000D01*
X108873000Y-97896250D01*
X108873000Y-96647000D01*
X107623750Y-96647000D01*
X107465000Y-96805750D01*
X107461928Y-97420000D01*
X104800000Y-97420000D01*
X104800000Y-95620000D01*
X107461928Y-95620000D01*
X107465000Y-96234250D01*
X107623750Y-96393000D01*
X108873000Y-96393000D01*
X108873000Y-95143750D01*
X109127000Y-95143750D01*
X109127000Y-96393000D01*
X109147000Y-96393000D01*
X109147000Y-96647000D01*
X109127000Y-96647000D01*
X109127000Y-97896250D01*
X109285750Y-98055000D01*
X109900000Y-98058072D01*
X110024482Y-98045812D01*
X110144180Y-98009502D01*
X110254494Y-97950537D01*
X110351185Y-97871185D01*
X110430537Y-97774494D01*
X110489502Y-97664180D01*
X110495056Y-97645873D01*
X110561495Y-97712312D01*
X110812905Y-97880299D01*
X111092257Y-97996011D01*
X111388816Y-98055000D01*
X111691184Y-98055000D01*
X111987743Y-97996011D01*
X112267095Y-97880299D01*
X112518505Y-97712312D01*
X112732312Y-97498505D01*
X112878313Y-97280000D01*
X115621957Y-97280000D01*
X115725363Y-97434759D01*
X115925241Y-97634637D01*
X116160273Y-97791680D01*
X116421426Y-97899853D01*
X116698665Y-97955000D01*
X116981335Y-97955000D01*
X117258574Y-97899853D01*
X117519727Y-97791680D01*
X117754759Y-97634637D01*
X117954637Y-97434759D01*
X118111680Y-97199727D01*
X118219853Y-96938574D01*
X118275000Y-96661335D01*
X118275000Y-96378665D01*
X125565000Y-96378665D01*
X125565000Y-96661335D01*
X125620147Y-96938574D01*
X125728320Y-97199727D01*
X125885363Y-97434759D01*
X126085241Y-97634637D01*
X126320273Y-97791680D01*
X126581426Y-97899853D01*
X126858665Y-97955000D01*
X127141335Y-97955000D01*
X127418574Y-97899853D01*
X127679727Y-97791680D01*
X127914759Y-97634637D01*
X128114637Y-97434759D01*
X128218043Y-97280000D01*
X131142678Y-97280000D01*
X131180000Y-97283676D01*
X131217322Y-97280000D01*
X131217333Y-97280000D01*
X131328986Y-97269003D01*
X131472247Y-97225546D01*
X131604276Y-97154974D01*
X131720001Y-97060001D01*
X131743804Y-97030997D01*
X133489584Y-95285218D01*
X133470001Y-95383666D01*
X133470001Y-95666336D01*
X133506313Y-95848887D01*
X128515201Y-100840000D01*
X128218043Y-100840000D01*
X128114637Y-100685241D01*
X127914759Y-100485363D01*
X127679727Y-100328320D01*
X127418574Y-100220147D01*
X127141335Y-100165000D01*
X126858665Y-100165000D01*
X126581426Y-100220147D01*
X126320273Y-100328320D01*
X126085241Y-100485363D01*
X125885363Y-100685241D01*
X125728320Y-100920273D01*
X125620147Y-101181426D01*
X125565000Y-101458665D01*
X125565000Y-101741335D01*
X125620147Y-102018574D01*
X125728320Y-102279727D01*
X125885363Y-102514759D01*
X126085241Y-102714637D01*
X126320273Y-102871680D01*
X126581426Y-102979853D01*
X126858665Y-103035000D01*
X127141335Y-103035000D01*
X127418574Y-102979853D01*
X127679727Y-102871680D01*
X127914759Y-102714637D01*
X128114637Y-102514759D01*
X128218043Y-102360000D01*
X128465199Y-102360000D01*
X126488998Y-104336201D01*
X126460000Y-104359999D01*
X126436202Y-104388997D01*
X126436201Y-104388998D01*
X126365026Y-104475724D01*
X126294454Y-104607754D01*
X126271023Y-104685000D01*
X126257222Y-104730498D01*
X126250998Y-104751015D01*
X126236324Y-104900000D01*
X126240001Y-104937332D01*
X126240001Y-105461956D01*
X126085241Y-105565363D01*
X125885363Y-105765241D01*
X125728320Y-106000273D01*
X125620147Y-106261426D01*
X125565000Y-106538665D01*
X125565000Y-106821335D01*
X125620147Y-107098574D01*
X125728320Y-107359727D01*
X125885363Y-107594759D01*
X126085241Y-107794637D01*
X126320273Y-107951680D01*
X126581426Y-108059853D01*
X126858665Y-108115000D01*
X127141335Y-108115000D01*
X127418574Y-108059853D01*
X127679727Y-107951680D01*
X127914759Y-107794637D01*
X128114637Y-107594759D01*
X128271680Y-107359727D01*
X128379853Y-107098574D01*
X128435000Y-106821335D01*
X128435000Y-106538665D01*
X128379853Y-106261426D01*
X128271680Y-106000273D01*
X128114637Y-105765241D01*
X127914759Y-105565363D01*
X127760000Y-105461957D01*
X127760000Y-105214801D01*
X133892703Y-99082099D01*
X133990242Y-99179638D01*
X134222760Y-99335001D01*
X133990242Y-99490364D01*
X133790364Y-99690242D01*
X133633321Y-99925274D01*
X133525148Y-100186427D01*
X133470001Y-100463666D01*
X133470001Y-100746336D01*
X133525148Y-101023575D01*
X133633321Y-101284728D01*
X133790364Y-101519760D01*
X133990242Y-101719638D01*
X134222760Y-101875001D01*
X133990242Y-102030364D01*
X133790364Y-102230242D01*
X133633321Y-102465274D01*
X133525148Y-102726427D01*
X133470001Y-103003666D01*
X133470001Y-103286336D01*
X133525148Y-103563575D01*
X133633321Y-103824728D01*
X133790364Y-104059760D01*
X133990242Y-104259638D01*
X134222760Y-104415001D01*
X133990242Y-104570364D01*
X133790364Y-104770242D01*
X133633321Y-105005274D01*
X133525148Y-105266427D01*
X133470001Y-105543666D01*
X133470001Y-105826336D01*
X133525148Y-106103575D01*
X133633321Y-106364728D01*
X133790364Y-106599760D01*
X133990242Y-106799638D01*
X134222760Y-106955001D01*
X133990242Y-107110364D01*
X133790364Y-107310242D01*
X133633321Y-107545274D01*
X133525148Y-107806427D01*
X133470001Y-108083666D01*
X133470001Y-108366336D01*
X133525148Y-108643575D01*
X133633321Y-108904728D01*
X133790364Y-109139760D01*
X133990242Y-109339638D01*
X134222760Y-109495001D01*
X133990242Y-109650364D01*
X133790364Y-109850242D01*
X133633321Y-110085274D01*
X133525148Y-110346427D01*
X133470001Y-110623666D01*
X133470001Y-110906336D01*
X133525148Y-111183575D01*
X133633321Y-111444728D01*
X133790364Y-111679760D01*
X133990242Y-111879638D01*
X134222760Y-112035001D01*
X133990242Y-112190364D01*
X133790364Y-112390242D01*
X133686958Y-112545001D01*
X129728595Y-112545001D01*
X129720412Y-112461918D01*
X129684102Y-112342220D01*
X129625137Y-112231906D01*
X129545785Y-112135215D01*
X129449094Y-112055863D01*
X129338780Y-111996898D01*
X129219082Y-111960588D01*
X129094600Y-111948328D01*
X127394600Y-111948328D01*
X127270118Y-111960588D01*
X127150420Y-111996898D01*
X127040106Y-112055863D01*
X126943415Y-112135215D01*
X126864063Y-112231906D01*
X126805098Y-112342220D01*
X126768788Y-112461918D01*
X126756528Y-112586400D01*
X126756528Y-114286400D01*
X126768788Y-114410882D01*
X126805098Y-114530580D01*
X126864063Y-114640894D01*
X126943415Y-114737585D01*
X127040106Y-114816937D01*
X127150420Y-114875902D01*
X127222980Y-114897913D01*
X127091125Y-115029768D01*
X126928610Y-115272989D01*
X126816668Y-115543242D01*
X126759600Y-115830140D01*
X126759600Y-116122660D01*
X126816668Y-116409558D01*
X126928610Y-116679811D01*
X127091125Y-116923032D01*
X127297968Y-117129875D01*
X127480134Y-117251595D01*
X127363245Y-117321222D01*
X127147012Y-117516131D01*
X126972959Y-117749480D01*
X126847775Y-118012301D01*
X126803124Y-118159510D01*
X126924445Y-118389400D01*
X128117600Y-118389400D01*
X128117600Y-118369400D01*
X128371600Y-118369400D01*
X128371600Y-118389400D01*
X129564755Y-118389400D01*
X129686076Y-118159510D01*
X129641425Y-118012301D01*
X129516241Y-117749480D01*
X129342188Y-117516131D01*
X129125955Y-117321222D01*
X129009066Y-117251595D01*
X129191232Y-117129875D01*
X129398075Y-116923032D01*
X129560590Y-116679811D01*
X129672532Y-116409558D01*
X129729600Y-116122660D01*
X129729600Y-115830140D01*
X129672532Y-115543242D01*
X129560590Y-115272989D01*
X129398075Y-115029768D01*
X129266220Y-114897913D01*
X129338780Y-114875902D01*
X129449094Y-114816937D01*
X129545785Y-114737585D01*
X129625137Y-114640894D01*
X129684102Y-114530580D01*
X129720412Y-114410882D01*
X129732672Y-114286400D01*
X129732672Y-114065001D01*
X133686958Y-114065001D01*
X133790364Y-114219760D01*
X133990242Y-114419638D01*
X134222760Y-114575001D01*
X133990242Y-114730364D01*
X133790364Y-114930242D01*
X133633321Y-115165274D01*
X133525148Y-115426427D01*
X133470001Y-115703666D01*
X133470001Y-115986336D01*
X133525148Y-116263575D01*
X133633321Y-116524728D01*
X133790364Y-116759760D01*
X133990242Y-116959638D01*
X134222760Y-117115001D01*
X133990242Y-117270364D01*
X133790364Y-117470242D01*
X133633321Y-117705274D01*
X133525148Y-117966427D01*
X133470001Y-118243666D01*
X133470001Y-118526336D01*
X133525148Y-118803575D01*
X133633321Y-119064728D01*
X133790364Y-119299760D01*
X133990242Y-119499638D01*
X134225274Y-119656681D01*
X134486427Y-119764854D01*
X134763666Y-119820001D01*
X135046336Y-119820001D01*
X135323575Y-119764854D01*
X135584728Y-119656681D01*
X135819760Y-119499638D01*
X136019638Y-119299760D01*
X136176681Y-119064728D01*
X136284854Y-118803575D01*
X136340001Y-118526336D01*
X136340001Y-118243666D01*
X136284854Y-117966427D01*
X136176681Y-117705274D01*
X136019638Y-117470242D01*
X135819760Y-117270364D01*
X135587242Y-117115001D01*
X135819760Y-116959638D01*
X136019638Y-116759760D01*
X136176681Y-116524728D01*
X136284854Y-116263575D01*
X136340001Y-115986336D01*
X136340001Y-115703666D01*
X136284854Y-115426427D01*
X136176681Y-115165274D01*
X136019638Y-114930242D01*
X135819760Y-114730364D01*
X135587242Y-114575001D01*
X135819760Y-114419638D01*
X136019638Y-114219760D01*
X136176681Y-113984728D01*
X136284854Y-113723575D01*
X136340001Y-113446336D01*
X136340001Y-113163666D01*
X136284854Y-112886427D01*
X136176681Y-112625274D01*
X136019638Y-112390242D01*
X135819760Y-112190364D01*
X135587242Y-112035001D01*
X135819760Y-111879638D01*
X136019638Y-111679760D01*
X136176681Y-111444728D01*
X136284854Y-111183575D01*
X136340001Y-110906336D01*
X136340001Y-110623666D01*
X136284854Y-110346427D01*
X136176681Y-110085274D01*
X136019638Y-109850242D01*
X135819760Y-109650364D01*
X135587242Y-109495001D01*
X135819760Y-109339638D01*
X136019638Y-109139760D01*
X136176681Y-108904728D01*
X136284854Y-108643575D01*
X136340001Y-108366336D01*
X136340001Y-108083666D01*
X136284854Y-107806427D01*
X136176681Y-107545274D01*
X136019638Y-107310242D01*
X135819760Y-107110364D01*
X135587242Y-106955001D01*
X135819760Y-106799638D01*
X136019638Y-106599760D01*
X136176681Y-106364728D01*
X136284854Y-106103575D01*
X136340001Y-105826336D01*
X136340001Y-105543666D01*
X136284854Y-105266427D01*
X136176681Y-105005274D01*
X136019638Y-104770242D01*
X135819760Y-104570364D01*
X135587242Y-104415001D01*
X135819760Y-104259638D01*
X136019638Y-104059760D01*
X136176681Y-103824728D01*
X136284854Y-103563575D01*
X136340001Y-103286336D01*
X136340001Y-103003666D01*
X136284854Y-102726427D01*
X136176681Y-102465274D01*
X136019638Y-102230242D01*
X135819760Y-102030364D01*
X135587242Y-101875001D01*
X135819760Y-101719638D01*
X136019638Y-101519760D01*
X136176681Y-101284728D01*
X136284854Y-101023575D01*
X136340001Y-100746336D01*
X136340001Y-100463666D01*
X136284854Y-100186427D01*
X136176681Y-99925274D01*
X136019638Y-99690242D01*
X135819760Y-99490364D01*
X135587242Y-99335001D01*
X135819760Y-99179638D01*
X136019638Y-98979760D01*
X136176681Y-98744728D01*
X136284854Y-98483575D01*
X136340001Y-98206336D01*
X136340001Y-97923666D01*
X136284854Y-97646427D01*
X136176681Y-97385274D01*
X136019638Y-97150242D01*
X135819760Y-96950364D01*
X135587242Y-96795001D01*
X135819760Y-96639638D01*
X136019638Y-96439760D01*
X136176681Y-96204728D01*
X136284854Y-95943575D01*
X136340001Y-95666336D01*
X136340001Y-95383666D01*
X136284854Y-95106427D01*
X136176681Y-94845274D01*
X136019638Y-94610242D01*
X135819760Y-94410364D01*
X135587242Y-94255001D01*
X135819760Y-94099638D01*
X136019638Y-93899760D01*
X136176681Y-93664728D01*
X136284854Y-93403575D01*
X136340001Y-93126336D01*
X136340001Y-92843666D01*
X136284854Y-92566427D01*
X136176681Y-92305274D01*
X136019638Y-92070242D01*
X135819760Y-91870364D01*
X135584728Y-91713321D01*
X135574136Y-91708934D01*
X135760132Y-91597386D01*
X135968520Y-91408415D01*
X136136038Y-91182421D01*
X136256247Y-90928088D01*
X136296905Y-90794040D01*
X136174916Y-90572001D01*
X135032001Y-90572001D01*
X135032001Y-90592001D01*
X134778001Y-90592001D01*
X134778001Y-90572001D01*
X133635086Y-90572001D01*
X133513097Y-90794040D01*
X133553755Y-90928088D01*
X133673964Y-91182421D01*
X133841482Y-91408415D01*
X134049870Y-91597386D01*
X134235866Y-91708934D01*
X134225274Y-91713321D01*
X133990242Y-91870364D01*
X133790364Y-92070242D01*
X133633321Y-92305274D01*
X133525148Y-92566427D01*
X133470001Y-92843666D01*
X133470001Y-93126336D01*
X133474789Y-93150409D01*
X130865199Y-95760000D01*
X128218043Y-95760000D01*
X128114637Y-95605241D01*
X127914759Y-95405363D01*
X127679727Y-95248320D01*
X127418574Y-95140147D01*
X127141335Y-95085000D01*
X126858665Y-95085000D01*
X126581426Y-95140147D01*
X126320273Y-95248320D01*
X126085241Y-95405363D01*
X125885363Y-95605241D01*
X125728320Y-95840273D01*
X125620147Y-96101426D01*
X125565000Y-96378665D01*
X118275000Y-96378665D01*
X118219853Y-96101426D01*
X118111680Y-95840273D01*
X117954637Y-95605241D01*
X117754759Y-95405363D01*
X117519727Y-95248320D01*
X117258574Y-95140147D01*
X116981335Y-95085000D01*
X116698665Y-95085000D01*
X116421426Y-95140147D01*
X116160273Y-95248320D01*
X115925241Y-95405363D01*
X115725363Y-95605241D01*
X115621957Y-95760000D01*
X112878313Y-95760000D01*
X112732312Y-95541495D01*
X112518505Y-95327688D01*
X112267095Y-95159701D01*
X111987743Y-95043989D01*
X111691184Y-94985000D01*
X111388816Y-94985000D01*
X111092257Y-95043989D01*
X110812905Y-95159701D01*
X110561495Y-95327688D01*
X110495056Y-95394127D01*
X110489502Y-95375820D01*
X110430537Y-95265506D01*
X110351185Y-95168815D01*
X110254494Y-95089463D01*
X110144180Y-95030498D01*
X110024482Y-94994188D01*
X109900000Y-94981928D01*
X109285750Y-94985000D01*
X109127000Y-95143750D01*
X108873000Y-95143750D01*
X108714250Y-94985000D01*
X108100000Y-94981928D01*
X107975518Y-94994188D01*
X107855820Y-95030498D01*
X107745506Y-95089463D01*
X107648815Y-95168815D01*
X107569463Y-95265506D01*
X107510498Y-95375820D01*
X107474188Y-95495518D01*
X107461928Y-95620000D01*
X104800000Y-95620000D01*
X104800000Y-83838686D01*
X106840919Y-83838686D01*
X107177106Y-84307868D01*
X107807068Y-84648237D01*
X108491327Y-84859166D01*
X109203589Y-84932550D01*
X109916482Y-84865569D01*
X110602609Y-84660796D01*
X111235603Y-84326102D01*
X111262894Y-84307868D01*
X111599081Y-83838686D01*
X109220000Y-81459605D01*
X106840919Y-83838686D01*
X104800000Y-83838686D01*
X104800000Y-81309392D01*
X104804087Y-81263589D01*
X105567450Y-81263589D01*
X105634431Y-81976482D01*
X105839204Y-82662609D01*
X106173898Y-83295603D01*
X106192132Y-83322894D01*
X106661314Y-83659081D01*
X109040395Y-81280000D01*
X109399605Y-81280000D01*
X111778686Y-83659081D01*
X112247868Y-83322894D01*
X112588237Y-82692932D01*
X112794132Y-82025001D01*
X133466929Y-82025001D01*
X133466929Y-83625001D01*
X133479189Y-83749483D01*
X133515499Y-83869181D01*
X133574464Y-83979495D01*
X133653816Y-84076186D01*
X133750507Y-84155538D01*
X133860821Y-84214503D01*
X133980519Y-84250813D01*
X133988962Y-84251644D01*
X133790364Y-84450242D01*
X133633321Y-84685274D01*
X133525148Y-84946427D01*
X133470001Y-85223666D01*
X133470001Y-85506336D01*
X133525148Y-85783575D01*
X133633321Y-86044728D01*
X133790364Y-86279760D01*
X133990242Y-86479638D01*
X134222760Y-86635001D01*
X133990242Y-86790364D01*
X133790364Y-86990242D01*
X133633321Y-87225274D01*
X133525148Y-87486427D01*
X133470001Y-87763666D01*
X133470001Y-88046336D01*
X133525148Y-88323575D01*
X133633321Y-88584728D01*
X133790364Y-88819760D01*
X133990242Y-89019638D01*
X134225274Y-89176681D01*
X134235866Y-89181068D01*
X134049870Y-89292616D01*
X133841482Y-89481587D01*
X133673964Y-89707581D01*
X133553755Y-89961914D01*
X133513097Y-90095962D01*
X133635086Y-90318001D01*
X134778001Y-90318001D01*
X134778001Y-90298001D01*
X135032001Y-90298001D01*
X135032001Y-90318001D01*
X136174916Y-90318001D01*
X136296905Y-90095962D01*
X136256247Y-89961914D01*
X136136038Y-89707581D01*
X135968520Y-89481587D01*
X135760132Y-89292616D01*
X135574136Y-89181068D01*
X135584728Y-89176681D01*
X135819760Y-89019638D01*
X136019638Y-88819760D01*
X136176681Y-88584728D01*
X136284854Y-88323575D01*
X136340001Y-88046336D01*
X136340001Y-87763666D01*
X148710001Y-87763666D01*
X148710001Y-88046336D01*
X148765148Y-88323575D01*
X148873321Y-88584728D01*
X149030364Y-88819760D01*
X149230242Y-89019638D01*
X149462760Y-89175001D01*
X149230242Y-89330364D01*
X149030364Y-89530242D01*
X148873321Y-89765274D01*
X148765148Y-90026427D01*
X148710001Y-90303666D01*
X148710001Y-90586336D01*
X148765148Y-90863575D01*
X148873321Y-91124728D01*
X149030364Y-91359760D01*
X149230242Y-91559638D01*
X149462760Y-91715001D01*
X149230242Y-91870364D01*
X149030364Y-92070242D01*
X148873321Y-92305274D01*
X148765148Y-92566427D01*
X148710001Y-92843666D01*
X148710001Y-93126336D01*
X148765148Y-93403575D01*
X148873321Y-93664728D01*
X149030364Y-93899760D01*
X149230242Y-94099638D01*
X149462760Y-94255001D01*
X149230242Y-94410364D01*
X149030364Y-94610242D01*
X148873321Y-94845274D01*
X148765148Y-95106427D01*
X148710001Y-95383666D01*
X148710001Y-95666336D01*
X148765148Y-95943575D01*
X148873321Y-96204728D01*
X149030364Y-96439760D01*
X149230242Y-96639638D01*
X149462760Y-96795001D01*
X149230242Y-96950364D01*
X149030364Y-97150242D01*
X148873321Y-97385274D01*
X148765148Y-97646427D01*
X148710001Y-97923666D01*
X148710001Y-98206336D01*
X148765148Y-98483575D01*
X148873321Y-98744728D01*
X149030364Y-98979760D01*
X149230242Y-99179638D01*
X149462760Y-99335001D01*
X149230242Y-99490364D01*
X149030364Y-99690242D01*
X148873321Y-99925274D01*
X148765148Y-100186427D01*
X148710001Y-100463666D01*
X148710001Y-100746336D01*
X148765148Y-101023575D01*
X148873321Y-101284728D01*
X149030364Y-101519760D01*
X149230242Y-101719638D01*
X149462760Y-101875001D01*
X149230242Y-102030364D01*
X149030364Y-102230242D01*
X148873321Y-102465274D01*
X148765148Y-102726427D01*
X148710001Y-103003666D01*
X148710001Y-103286336D01*
X148765148Y-103563575D01*
X148873321Y-103824728D01*
X149030364Y-104059760D01*
X149230242Y-104259638D01*
X149462760Y-104415001D01*
X149230242Y-104570364D01*
X149030364Y-104770242D01*
X148873321Y-105005274D01*
X148765148Y-105266427D01*
X148710001Y-105543666D01*
X148710001Y-105826336D01*
X148765148Y-106103575D01*
X148873321Y-106364728D01*
X149030364Y-106599760D01*
X149230242Y-106799638D01*
X149462760Y-106955001D01*
X149230242Y-107110364D01*
X149030364Y-107310242D01*
X148873321Y-107545274D01*
X148765148Y-107806427D01*
X148710001Y-108083666D01*
X148710001Y-108366336D01*
X148765148Y-108643575D01*
X148873321Y-108904728D01*
X149030364Y-109139760D01*
X149230242Y-109339638D01*
X149462760Y-109495001D01*
X149230242Y-109650364D01*
X149030364Y-109850242D01*
X148873321Y-110085274D01*
X148765148Y-110346427D01*
X148710001Y-110623666D01*
X148710001Y-110906336D01*
X148765148Y-111183575D01*
X148873321Y-111444728D01*
X149030364Y-111679760D01*
X149230242Y-111879638D01*
X149462760Y-112035001D01*
X149230242Y-112190364D01*
X149030364Y-112390242D01*
X148873321Y-112625274D01*
X148765148Y-112886427D01*
X148710001Y-113163666D01*
X148710001Y-113446336D01*
X148765148Y-113723575D01*
X148873321Y-113984728D01*
X149030364Y-114219760D01*
X149230242Y-114419638D01*
X149462760Y-114575001D01*
X149230242Y-114730364D01*
X149030364Y-114930242D01*
X148873321Y-115165274D01*
X148765148Y-115426427D01*
X148710001Y-115703666D01*
X148710001Y-115986336D01*
X148765148Y-116263575D01*
X148873321Y-116524728D01*
X149030364Y-116759760D01*
X149230242Y-116959638D01*
X149462760Y-117115001D01*
X149230242Y-117270364D01*
X149030364Y-117470242D01*
X148873321Y-117705274D01*
X148765148Y-117966427D01*
X148710001Y-118243666D01*
X148710001Y-118526336D01*
X148765148Y-118803575D01*
X148873321Y-119064728D01*
X149030364Y-119299760D01*
X149230242Y-119499638D01*
X149465274Y-119656681D01*
X149726427Y-119764854D01*
X150003666Y-119820001D01*
X150286336Y-119820001D01*
X150563575Y-119764854D01*
X150824728Y-119656681D01*
X151059760Y-119499638D01*
X151198084Y-119361314D01*
X155100919Y-119361314D01*
X157480000Y-121740395D01*
X159859081Y-119361314D01*
X159522894Y-118892132D01*
X158892932Y-118551763D01*
X158208673Y-118340834D01*
X157496411Y-118267450D01*
X156783518Y-118334431D01*
X156097391Y-118539204D01*
X155464397Y-118873898D01*
X155437106Y-118892132D01*
X155100919Y-119361314D01*
X151198084Y-119361314D01*
X151259638Y-119299760D01*
X151416681Y-119064728D01*
X151524854Y-118803575D01*
X151580001Y-118526336D01*
X151580001Y-118243666D01*
X151524854Y-117966427D01*
X151416681Y-117705274D01*
X151259638Y-117470242D01*
X151059760Y-117270364D01*
X150827242Y-117115001D01*
X151059760Y-116959638D01*
X151259638Y-116759760D01*
X151416681Y-116524728D01*
X151524854Y-116263575D01*
X151580001Y-115986336D01*
X151580001Y-115703666D01*
X151524854Y-115426427D01*
X151416681Y-115165274D01*
X151259638Y-114930242D01*
X151059760Y-114730364D01*
X150827242Y-114575001D01*
X151059760Y-114419638D01*
X151259638Y-114219760D01*
X151416681Y-113984728D01*
X151524854Y-113723575D01*
X151580001Y-113446336D01*
X151580001Y-113163666D01*
X151524854Y-112886427D01*
X151416681Y-112625274D01*
X151259638Y-112390242D01*
X151059760Y-112190364D01*
X150827242Y-112035001D01*
X151059760Y-111879638D01*
X151259638Y-111679760D01*
X151416681Y-111444728D01*
X151524854Y-111183575D01*
X151580001Y-110906336D01*
X151580001Y-110623666D01*
X151524854Y-110346427D01*
X151416681Y-110085274D01*
X151259638Y-109850242D01*
X151059760Y-109650364D01*
X150827242Y-109495001D01*
X151059760Y-109339638D01*
X151259638Y-109139760D01*
X151416681Y-108904728D01*
X151524854Y-108643575D01*
X151580001Y-108366336D01*
X151580001Y-108083666D01*
X151524854Y-107806427D01*
X151416681Y-107545274D01*
X151259638Y-107310242D01*
X151059760Y-107110364D01*
X150827242Y-106955001D01*
X151059760Y-106799638D01*
X151259638Y-106599760D01*
X151416681Y-106364728D01*
X151524854Y-106103575D01*
X151580001Y-105826336D01*
X151580001Y-105543666D01*
X151524854Y-105266427D01*
X151416681Y-105005274D01*
X151259638Y-104770242D01*
X151059760Y-104570364D01*
X150827242Y-104415001D01*
X151059760Y-104259638D01*
X151259638Y-104059760D01*
X151416681Y-103824728D01*
X151524854Y-103563575D01*
X151580001Y-103286336D01*
X151580001Y-103003666D01*
X151524854Y-102726427D01*
X151416681Y-102465274D01*
X151259638Y-102230242D01*
X151059760Y-102030364D01*
X150827242Y-101875001D01*
X151059760Y-101719638D01*
X151259638Y-101519760D01*
X151416681Y-101284728D01*
X151524854Y-101023575D01*
X151580001Y-100746336D01*
X151580001Y-100463666D01*
X151524854Y-100186427D01*
X151416681Y-99925274D01*
X151259638Y-99690242D01*
X151059760Y-99490364D01*
X150827242Y-99335001D01*
X151059760Y-99179638D01*
X151259638Y-98979760D01*
X151416681Y-98744728D01*
X151524854Y-98483575D01*
X151580001Y-98206336D01*
X151580001Y-97923666D01*
X151524854Y-97646427D01*
X151416681Y-97385274D01*
X151259638Y-97150242D01*
X151059760Y-96950364D01*
X150827242Y-96795001D01*
X151059760Y-96639638D01*
X151259638Y-96439760D01*
X151416681Y-96204728D01*
X151524854Y-95943575D01*
X151580001Y-95666336D01*
X151580001Y-95383666D01*
X151524854Y-95106427D01*
X151416681Y-94845274D01*
X151259638Y-94610242D01*
X151059760Y-94410364D01*
X150827242Y-94255001D01*
X151059760Y-94099638D01*
X151259638Y-93899760D01*
X151416681Y-93664728D01*
X151524854Y-93403575D01*
X151579131Y-93130709D01*
X153953401Y-95504980D01*
X153953400Y-102826531D01*
X153949119Y-102870000D01*
X153953400Y-102913469D01*
X153953400Y-102913476D01*
X153966205Y-103043489D01*
X154016811Y-103210312D01*
X154098989Y-103364058D01*
X154209583Y-103498817D01*
X154243356Y-103526534D01*
X155451870Y-104735049D01*
X155479583Y-104768817D01*
X155513351Y-104796530D01*
X155513353Y-104796532D01*
X155570888Y-104843750D01*
X155614341Y-104879411D01*
X155768087Y-104961589D01*
X155934910Y-105012195D01*
X156064923Y-105025000D01*
X156064933Y-105025000D01*
X156108399Y-105029281D01*
X156151865Y-105025000D01*
X157495210Y-105025000D01*
X157557688Y-105118505D01*
X157771495Y-105332312D01*
X158022905Y-105500299D01*
X158302257Y-105616011D01*
X158598816Y-105675000D01*
X158901184Y-105675000D01*
X159197743Y-105616011D01*
X159477095Y-105500299D01*
X159728505Y-105332312D01*
X159942312Y-105118505D01*
X160110299Y-104867095D01*
X160226011Y-104587743D01*
X160285000Y-104291184D01*
X160285000Y-103988816D01*
X160226011Y-103692257D01*
X160110299Y-103412905D01*
X159942312Y-103161495D01*
X159728505Y-102947688D01*
X159642169Y-102890000D01*
X159728505Y-102832312D01*
X159942312Y-102618505D01*
X160110299Y-102367095D01*
X160226011Y-102087743D01*
X160285000Y-101791184D01*
X160285000Y-101488816D01*
X160226011Y-101192257D01*
X160110299Y-100912905D01*
X159942312Y-100661495D01*
X159728505Y-100447688D01*
X159585690Y-100352262D01*
X159634475Y-100204080D01*
X158750000Y-99319605D01*
X157865525Y-100204080D01*
X157914310Y-100352262D01*
X157771495Y-100447688D01*
X157557688Y-100661495D01*
X157389701Y-100912905D01*
X157273989Y-101192257D01*
X157215000Y-101488816D01*
X157215000Y-101791184D01*
X157273989Y-102087743D01*
X157389701Y-102367095D01*
X157557688Y-102618505D01*
X157771495Y-102832312D01*
X157857831Y-102890000D01*
X157771495Y-102947688D01*
X157557688Y-103161495D01*
X157495210Y-103255000D01*
X156474979Y-103255000D01*
X155723400Y-102503422D01*
X155723400Y-99206553D01*
X157209009Y-99206553D01*
X157251603Y-99505907D01*
X157351778Y-99791199D01*
X157431739Y-99940792D01*
X157685920Y-100024475D01*
X158570395Y-99140000D01*
X158929605Y-99140000D01*
X159814080Y-100024475D01*
X160068261Y-99940792D01*
X160199158Y-99668225D01*
X160274365Y-99375358D01*
X160290991Y-99073447D01*
X160248397Y-98774093D01*
X160148222Y-98488801D01*
X160068261Y-98339208D01*
X159814080Y-98255525D01*
X158929605Y-99140000D01*
X158570395Y-99140000D01*
X157685920Y-98255525D01*
X157431739Y-98339208D01*
X157300842Y-98611775D01*
X157225635Y-98904642D01*
X157209009Y-99206553D01*
X155723400Y-99206553D01*
X155723400Y-98075920D01*
X157865525Y-98075920D01*
X158750000Y-98960395D01*
X159634475Y-98075920D01*
X159550792Y-97821739D01*
X159278225Y-97690842D01*
X158985358Y-97615635D01*
X158683447Y-97599009D01*
X158384093Y-97641603D01*
X158098801Y-97741778D01*
X157949208Y-97821739D01*
X157865525Y-98075920D01*
X155723400Y-98075920D01*
X155723400Y-95181869D01*
X155727681Y-95138400D01*
X155723400Y-95094931D01*
X155723400Y-95094923D01*
X155710595Y-94964910D01*
X155659989Y-94798087D01*
X155659989Y-94798086D01*
X155577811Y-94644341D01*
X155494932Y-94543353D01*
X155494930Y-94543351D01*
X155467217Y-94509583D01*
X155433449Y-94481870D01*
X151573018Y-90621440D01*
X151580001Y-90586336D01*
X151580001Y-90303666D01*
X151524854Y-90026427D01*
X151416681Y-89765274D01*
X151259638Y-89530242D01*
X151059760Y-89330364D01*
X150827242Y-89175001D01*
X151059760Y-89019638D01*
X151259638Y-88819760D01*
X151416681Y-88584728D01*
X151524854Y-88323575D01*
X151580001Y-88046336D01*
X151580001Y-87763666D01*
X151524854Y-87486427D01*
X151416681Y-87225274D01*
X151259638Y-86990242D01*
X151059760Y-86790364D01*
X150824728Y-86633321D01*
X150814136Y-86628934D01*
X151000132Y-86517386D01*
X151208520Y-86328415D01*
X151376038Y-86102421D01*
X151496247Y-85848088D01*
X151536905Y-85714040D01*
X151414916Y-85492001D01*
X150272001Y-85492001D01*
X150272001Y-85512001D01*
X150018001Y-85512001D01*
X150018001Y-85492001D01*
X148875086Y-85492001D01*
X148753097Y-85714040D01*
X148793755Y-85848088D01*
X148913964Y-86102421D01*
X149081482Y-86328415D01*
X149289870Y-86517386D01*
X149475866Y-86628934D01*
X149465274Y-86633321D01*
X149230242Y-86790364D01*
X149030364Y-86990242D01*
X148873321Y-87225274D01*
X148765148Y-87486427D01*
X148710001Y-87763666D01*
X136340001Y-87763666D01*
X136284854Y-87486427D01*
X136176681Y-87225274D01*
X136019638Y-86990242D01*
X135819760Y-86790364D01*
X135587242Y-86635001D01*
X135819760Y-86479638D01*
X136019638Y-86279760D01*
X136176681Y-86044728D01*
X136284854Y-85783575D01*
X136340001Y-85506336D01*
X136340001Y-85223666D01*
X136284854Y-84946427D01*
X136176681Y-84685274D01*
X136019638Y-84450242D01*
X135821040Y-84251644D01*
X135829483Y-84250813D01*
X135949181Y-84214503D01*
X136059495Y-84155538D01*
X136156186Y-84076186D01*
X136235538Y-83979495D01*
X136294503Y-83869181D01*
X136330813Y-83749483D01*
X136343073Y-83625001D01*
X136343073Y-82683666D01*
X148710001Y-82683666D01*
X148710001Y-82966336D01*
X148765148Y-83243575D01*
X148873321Y-83504728D01*
X149030364Y-83739760D01*
X149230242Y-83939638D01*
X149465274Y-84096681D01*
X149475866Y-84101068D01*
X149289870Y-84212616D01*
X149081482Y-84401587D01*
X148913964Y-84627581D01*
X148793755Y-84881914D01*
X148753097Y-85015962D01*
X148875086Y-85238001D01*
X150018001Y-85238001D01*
X150018001Y-85218001D01*
X150272001Y-85218001D01*
X150272001Y-85238001D01*
X151414916Y-85238001D01*
X151536905Y-85015962D01*
X151496247Y-84881914D01*
X151376038Y-84627581D01*
X151208520Y-84401587D01*
X151000132Y-84212616D01*
X150814136Y-84101068D01*
X150824728Y-84096681D01*
X151059760Y-83939638D01*
X151103712Y-83895686D01*
X155100919Y-83895686D01*
X155437106Y-84364868D01*
X156067068Y-84705237D01*
X156751327Y-84916166D01*
X157463589Y-84989550D01*
X158176482Y-84922569D01*
X158862609Y-84717796D01*
X159495603Y-84383102D01*
X159522894Y-84364868D01*
X159859081Y-83895686D01*
X157480000Y-81516605D01*
X155100919Y-83895686D01*
X151103712Y-83895686D01*
X151259638Y-83739760D01*
X151416681Y-83504728D01*
X151524854Y-83243575D01*
X151580001Y-82966336D01*
X151580001Y-82683666D01*
X151524854Y-82406427D01*
X151416681Y-82145274D01*
X151259638Y-81910242D01*
X151059760Y-81710364D01*
X150824728Y-81553321D01*
X150563575Y-81445148D01*
X150286336Y-81390001D01*
X150003666Y-81390001D01*
X149726427Y-81445148D01*
X149465274Y-81553321D01*
X149230242Y-81710364D01*
X149030364Y-81910242D01*
X148873321Y-82145274D01*
X148765148Y-82406427D01*
X148710001Y-82683666D01*
X136343073Y-82683666D01*
X136343073Y-82025001D01*
X136330813Y-81900519D01*
X136294503Y-81780821D01*
X136235538Y-81670507D01*
X136156186Y-81573816D01*
X136059495Y-81494464D01*
X135949181Y-81435499D01*
X135829483Y-81399189D01*
X135705001Y-81386929D01*
X134105001Y-81386929D01*
X133980519Y-81399189D01*
X133860821Y-81435499D01*
X133750507Y-81494464D01*
X133653816Y-81573816D01*
X133574464Y-81670507D01*
X133515499Y-81780821D01*
X133479189Y-81900519D01*
X133466929Y-82025001D01*
X112794132Y-82025001D01*
X112799166Y-82008673D01*
X112870058Y-81320589D01*
X153827450Y-81320589D01*
X153894431Y-82033482D01*
X154099204Y-82719609D01*
X154433898Y-83352603D01*
X154452132Y-83379894D01*
X154921314Y-83716081D01*
X157300395Y-81337000D01*
X157659605Y-81337000D01*
X160038686Y-83716081D01*
X160507868Y-83379894D01*
X160848237Y-82749932D01*
X161059166Y-82065673D01*
X161132550Y-81353411D01*
X161065569Y-80640518D01*
X160860796Y-79954391D01*
X160526102Y-79321397D01*
X160507868Y-79294106D01*
X160038686Y-78957919D01*
X157659605Y-81337000D01*
X157300395Y-81337000D01*
X154921314Y-78957919D01*
X154452132Y-79294106D01*
X154111763Y-79924068D01*
X153900834Y-80608327D01*
X153827450Y-81320589D01*
X112870058Y-81320589D01*
X112872550Y-81296411D01*
X112805569Y-80583518D01*
X112600796Y-79897391D01*
X112266102Y-79264397D01*
X112247868Y-79237106D01*
X111778686Y-78900919D01*
X109399605Y-81280000D01*
X109040395Y-81280000D01*
X106661314Y-78900919D01*
X106192132Y-79237106D01*
X105851763Y-79867068D01*
X105640834Y-80551327D01*
X105567450Y-81263589D01*
X104804087Y-81263589D01*
X104872437Y-80497751D01*
X105079672Y-79740226D01*
X105417777Y-79031375D01*
X105640578Y-78721314D01*
X106840919Y-78721314D01*
X109220000Y-81100395D01*
X111542081Y-78778314D01*
X155100919Y-78778314D01*
X157480000Y-81157395D01*
X159859081Y-78778314D01*
X159522894Y-78309132D01*
X158892932Y-77968763D01*
X158208673Y-77757834D01*
X157496411Y-77684450D01*
X156783518Y-77751431D01*
X156097391Y-77956204D01*
X155464397Y-78290898D01*
X155437106Y-78309132D01*
X155100919Y-78778314D01*
X111542081Y-78778314D01*
X111599081Y-78721314D01*
X111262894Y-78252132D01*
X110632932Y-77911763D01*
X109948673Y-77700834D01*
X109236411Y-77627450D01*
X108523518Y-77694431D01*
X107837391Y-77899204D01*
X107204397Y-78233898D01*
X107177106Y-78252132D01*
X106840919Y-78721314D01*
X105640578Y-78721314D01*
X105876067Y-78393596D01*
X106440055Y-77847054D01*
X107091913Y-77409023D01*
X107811038Y-77093349D01*
X108579768Y-76908794D01*
X109244207Y-76860000D01*
X157450608Y-76860000D01*
X158262249Y-76932437D01*
G37*
G04 #@! TD.AperFunction*
M02*
