M48
; DRILL file {KiCad (5.1.10)-1} date 10/01/21 13:30:17
; FORMAT={-:-/ absolute / metric / decimal}
; #@! TF.CreationDate,2021-10-01T13:30:17-07:00
; #@! TF.GenerationSoftware,Kicad,Pcbnew,(5.1.10)-1
; #@! TF.FileFunction,Plated,1,2,PTH
FMAT,2
METRIC
T1C0.500
T2C0.800
T3C0.900
T4C1.000
T5C3.000
%
G90
G05
T1
X106.97Y-81.28
X106.97Y-121.92
X107.629Y-79.689
X107.629Y-82.871
X107.629Y-120.329
X107.629Y-123.511
X109.22Y-79.03
X109.22Y-83.53
X109.22Y-119.67
X109.22Y-124.17
X110.811Y-79.689
X110.811Y-82.871
X110.811Y-120.329
X110.811Y-123.511
X111.47Y-81.28
X111.47Y-121.92
X155.23Y-81.337
X155.23Y-121.92
X155.889Y-79.746
X155.889Y-82.928
X155.889Y-120.329
X155.889Y-123.511
X157.48Y-79.087
X157.48Y-83.587
X157.48Y-119.67
X157.48Y-124.17
X159.071Y-79.746
X159.071Y-82.928
X159.071Y-120.329
X159.071Y-123.511
X159.73Y-81.337
X159.73Y-121.92
T2
X116.84Y-96.52
X116.84Y-101.6
X116.84Y-106.68
X127.0Y-96.52
X127.0Y-101.6
X127.0Y-106.68
T3
X109.0Y-96.52
X109.0Y-106.22
X109.1Y-114.38
X111.54Y-96.52
X111.54Y-106.22
X111.64Y-114.38
T4
X128.245Y-113.436
X128.245Y-115.976
X128.245Y-118.516
X134.905Y-82.825
X134.905Y-85.365
X134.905Y-87.905
X134.905Y-90.445
X134.905Y-92.985
X134.905Y-95.525
X134.905Y-98.065
X134.905Y-100.605
X134.905Y-103.145
X134.905Y-105.685
X134.905Y-108.225
X134.905Y-110.765
X134.905Y-113.305
X134.905Y-115.845
X134.905Y-118.385
X150.145Y-82.825
X150.145Y-85.365
X150.145Y-87.905
X150.145Y-90.445
X150.145Y-92.985
X150.145Y-95.525
X150.145Y-98.065
X150.145Y-100.605
X150.145Y-103.145
X150.145Y-105.685
X150.145Y-108.225
X150.145Y-110.765
X150.145Y-113.305
X150.145Y-115.845
X150.145Y-118.385
X158.75Y-99.14
X158.75Y-101.64
X158.75Y-104.14
T5
X109.22Y-81.28
X109.22Y-121.92
X157.48Y-81.337
X157.48Y-121.92
T0
M30
