%TF.GenerationSoftware,KiCad,Pcbnew,(5.1.10)-1*%
%TF.CreationDate,2021-09-20T09:52:30-07:00*%
%TF.ProjectId,BumbasiRylan_ElectronicSpeedController,42756d62-6173-4695-9279-6c616e5f456c,rev?*%
%TF.SameCoordinates,Original*%
%TF.FileFunction,Soldermask,Top*%
%TF.FilePolarity,Negative*%
%FSLAX46Y46*%
G04 Gerber Fmt 4.6, Leading zero omitted, Abs format (unit mm)*
G04 Created by KiCad (PCBNEW (5.1.10)-1) date 2021-09-20 09:52:30*
%MOMM*%
%LPD*%
G01*
G04 APERTURE LIST*
%ADD10O,1.600000X1.600000*%
%ADD11C,1.600000*%
%ADD12C,1.800000*%
%ADD13R,1.800000X1.800000*%
%ADD14R,1.600000X1.600000*%
%ADD15O,1.700000X1.700000*%
%ADD16R,1.700000X1.700000*%
G04 APERTURE END LIST*
D10*
%TO.C,R3*%
X116840000Y-106680000D03*
D11*
X127000000Y-106680000D03*
%TD*%
D10*
%TO.C,R2*%
X116840000Y-101600000D03*
D11*
X127000000Y-101600000D03*
%TD*%
D10*
%TO.C,R1*%
X116840000Y-96520000D03*
D11*
X127000000Y-96520000D03*
%TD*%
D12*
%TO.C,LED3*%
X111440000Y-116130000D03*
D13*
X108900000Y-116130000D03*
%TD*%
D12*
%TO.C,LED2*%
X111540000Y-106220000D03*
D13*
X109000000Y-106220000D03*
%TD*%
D12*
%TO.C,LED1*%
X111540000Y-96520000D03*
D13*
X109000000Y-96520000D03*
%TD*%
D10*
%TO.C,ArduinoNano1*%
X150145001Y-118385001D03*
X134905001Y-118385001D03*
X150145001Y-82825001D03*
X134905001Y-115845001D03*
X150145001Y-85365001D03*
X134905001Y-113305001D03*
X150145001Y-87905001D03*
X134905001Y-110765001D03*
X150145001Y-90445001D03*
X134905001Y-108225001D03*
X150145001Y-92985001D03*
X134905001Y-105685001D03*
X150145001Y-95525001D03*
X134905001Y-103145001D03*
X150145001Y-98065001D03*
X134905001Y-100605001D03*
X150145001Y-100605001D03*
X134905001Y-98065001D03*
X150145001Y-103145001D03*
X134905001Y-95525001D03*
X150145001Y-105685001D03*
X134905001Y-92985001D03*
X150145001Y-108225001D03*
X134905001Y-90445001D03*
X150145001Y-110765001D03*
X134905001Y-87905001D03*
X150145001Y-113305001D03*
X134905001Y-85365001D03*
X150145001Y-115845001D03*
D14*
X134905001Y-82825001D03*
%TD*%
D15*
%TO.C,ESC1*%
X120380000Y-113060000D03*
X120380000Y-115600000D03*
D16*
X120380000Y-118140000D03*
%TD*%
D12*
%TO.C,POT1*%
X158750000Y-104140000D03*
X158750000Y-101640000D03*
X158750000Y-99140000D03*
%TD*%
M02*
