M48
; DRILL file {KiCad (5.1.10)-1} date 09/20/21 09:52:17
; FORMAT={-:-/ absolute / inch / decimal}
; #@! TF.CreationDate,2021-09-20T09:52:17-07:00
; #@! TF.GenerationSoftware,Kicad,Pcbnew,(5.1.10)-1
; #@! TF.FileFunction,Plated,1,2,PTH
FMAT,2
INCH
T1C0.0315
T2C0.0354
T3C0.0394
%
G90
G05
T1
X4.6Y-3.8
X4.6Y-4.0
X4.6Y-4.2
X5.0Y-3.8
X5.0Y-4.0
X5.0Y-4.2
T2
X4.2874Y-4.572
X4.2913Y-3.8
X4.2913Y-4.1819
X4.3874Y-4.572
X4.3913Y-3.8
X4.3913Y-4.1819
T3
X4.7394Y-4.4512
X4.7394Y-4.5512
X4.7394Y-4.6512
X5.3112Y-3.2608
X5.3112Y-3.3608
X5.3112Y-3.4608
X5.3112Y-3.5608
X5.3112Y-3.6608
X5.3112Y-3.7608
X5.3112Y-3.8608
X5.3112Y-3.9608
X5.3112Y-4.0608
X5.3112Y-4.1608
X5.3112Y-4.2608
X5.3112Y-4.3608
X5.3112Y-4.4608
X5.3112Y-4.5608
X5.3112Y-4.6608
X5.9112Y-3.2608
X5.9112Y-3.3608
X5.9112Y-3.4608
X5.9112Y-3.5608
X5.9112Y-3.6608
X5.9112Y-3.7608
X5.9112Y-3.8608
X5.9112Y-3.9608
X5.9112Y-4.0608
X5.9112Y-4.1608
X5.9112Y-4.2608
X5.9112Y-4.3608
X5.9112Y-4.4608
X5.9112Y-4.5608
X5.9112Y-4.6608
X6.25Y-3.9031
X6.25Y-4.0016
X6.25Y-4.1
T0
M30
