M48
; DRILL file {KiCad (5.1.10)-1} date 09/20/21 14:14:21
; FORMAT={-:-/ absolute / inch / decimal}
; #@! TF.CreationDate,2021-09-20T14:14:21-07:00
; #@! TF.GenerationSoftware,Kicad,Pcbnew,(5.1.10)-1
; #@! TF.FileFunction,Plated,1,2,PTH
FMAT,2
INCH
T1C0.0197
T2C0.0315
T3C0.0354
T4C0.0394
T5C0.1181
%
G90
G05
T1
X4.2114Y-3.2
X4.2114Y-4.8
X4.2374Y-3.1374
X4.2374Y-3.2626
X4.2374Y-4.7374
X4.2374Y-4.8626
X4.3Y-3.1114
X4.3Y-3.2886
X4.3Y-4.7114
X4.3Y-4.8886
X4.3626Y-3.1374
X4.3626Y-3.2626
X4.3626Y-4.7374
X4.3626Y-4.8626
X4.3886Y-3.2
X4.3886Y-4.8
X6.1114Y-3.2022
X6.1114Y-4.8
X6.1374Y-3.1396
X6.1374Y-3.2649
X6.1374Y-4.7374
X6.1374Y-4.8626
X6.2Y-3.1137
X6.2Y-3.2908
X6.2Y-4.7114
X6.2Y-4.8886
X6.2626Y-3.1396
X6.2626Y-3.2649
X6.2626Y-4.7374
X6.2626Y-4.8626
X6.2886Y-3.2022
X6.2886Y-4.8
T2
X4.6Y-3.8
X4.6Y-4.0
X4.6Y-4.2
X5.0Y-3.8
X5.0Y-4.0
X5.0Y-4.2
T3
X4.2913Y-3.8
X4.2913Y-4.1819
X4.2953Y-4.5031
X4.3913Y-3.8
X4.3913Y-4.1819
X4.3953Y-4.5031
T4
X5.049Y-4.466
X5.049Y-4.566
X5.049Y-4.666
X5.3112Y-3.2608
X5.3112Y-3.3608
X5.3112Y-3.4608
X5.3112Y-3.5608
X5.3112Y-3.6608
X5.3112Y-3.7608
X5.3112Y-3.8608
X5.3112Y-3.9608
X5.3112Y-4.0608
X5.3112Y-4.1608
X5.3112Y-4.2608
X5.3112Y-4.3608
X5.3112Y-4.4608
X5.3112Y-4.5608
X5.3112Y-4.6608
X5.9112Y-3.2608
X5.9112Y-3.3608
X5.9112Y-3.4608
X5.9112Y-3.5608
X5.9112Y-3.6608
X5.9112Y-3.7608
X5.9112Y-3.8608
X5.9112Y-3.9608
X5.9112Y-4.0608
X5.9112Y-4.1608
X5.9112Y-4.2608
X5.9112Y-4.3608
X5.9112Y-4.4608
X5.9112Y-4.5608
X5.9112Y-4.6608
X6.25Y-3.9031
X6.25Y-4.0016
X6.25Y-4.1
T5
X4.3Y-3.2
X4.3Y-4.8
X6.2Y-3.2022
X6.2Y-4.8
T0
M30
