%TF.GenerationSoftware,KiCad,Pcbnew,(7.0.0-0)*%
%TF.CreationDate,2023-02-25T08:41:13-08:00*%
%TF.ProjectId,Intro Projct,496e7472-6f20-4507-926f-6a63742e6b69,rev?*%
%TF.SameCoordinates,Original*%
%TF.FileFunction,Legend,Top*%
%TF.FilePolarity,Positive*%
%FSLAX46Y46*%
G04 Gerber Fmt 4.6, Leading zero omitted, Abs format (unit mm)*
G04 Created by KiCad (PCBNEW (7.0.0-0)) date 2023-02-25 08:41:13*
%MOMM*%
%LPD*%
G01*
G04 APERTURE LIST*
%ADD10C,0.150000*%
%ADD11C,0.120000*%
G04 APERTURE END LIST*
D10*
%TO.C,SW1*%
X161936667Y-94839761D02*
X162079524Y-94887380D01*
X162079524Y-94887380D02*
X162317619Y-94887380D01*
X162317619Y-94887380D02*
X162412857Y-94839761D01*
X162412857Y-94839761D02*
X162460476Y-94792142D01*
X162460476Y-94792142D02*
X162508095Y-94696904D01*
X162508095Y-94696904D02*
X162508095Y-94601666D01*
X162508095Y-94601666D02*
X162460476Y-94506428D01*
X162460476Y-94506428D02*
X162412857Y-94458809D01*
X162412857Y-94458809D02*
X162317619Y-94411190D01*
X162317619Y-94411190D02*
X162127143Y-94363571D01*
X162127143Y-94363571D02*
X162031905Y-94315952D01*
X162031905Y-94315952D02*
X161984286Y-94268333D01*
X161984286Y-94268333D02*
X161936667Y-94173095D01*
X161936667Y-94173095D02*
X161936667Y-94077857D01*
X161936667Y-94077857D02*
X161984286Y-93982619D01*
X161984286Y-93982619D02*
X162031905Y-93935000D01*
X162031905Y-93935000D02*
X162127143Y-93887380D01*
X162127143Y-93887380D02*
X162365238Y-93887380D01*
X162365238Y-93887380D02*
X162508095Y-93935000D01*
X162841429Y-93887380D02*
X163079524Y-94887380D01*
X163079524Y-94887380D02*
X163270000Y-94173095D01*
X163270000Y-94173095D02*
X163460476Y-94887380D01*
X163460476Y-94887380D02*
X163698572Y-93887380D01*
X164603333Y-94887380D02*
X164031905Y-94887380D01*
X164317619Y-94887380D02*
X164317619Y-93887380D01*
X164317619Y-93887380D02*
X164222381Y-94030238D01*
X164222381Y-94030238D02*
X164127143Y-94125476D01*
X164127143Y-94125476D02*
X164031905Y-94173095D01*
%TO.C,R2*%
X139533333Y-32557380D02*
X139200000Y-32081190D01*
X138961905Y-32557380D02*
X138961905Y-31557380D01*
X138961905Y-31557380D02*
X139342857Y-31557380D01*
X139342857Y-31557380D02*
X139438095Y-31605000D01*
X139438095Y-31605000D02*
X139485714Y-31652619D01*
X139485714Y-31652619D02*
X139533333Y-31747857D01*
X139533333Y-31747857D02*
X139533333Y-31890714D01*
X139533333Y-31890714D02*
X139485714Y-31985952D01*
X139485714Y-31985952D02*
X139438095Y-32033571D01*
X139438095Y-32033571D02*
X139342857Y-32081190D01*
X139342857Y-32081190D02*
X138961905Y-32081190D01*
X139914286Y-31652619D02*
X139961905Y-31605000D01*
X139961905Y-31605000D02*
X140057143Y-31557380D01*
X140057143Y-31557380D02*
X140295238Y-31557380D01*
X140295238Y-31557380D02*
X140390476Y-31605000D01*
X140390476Y-31605000D02*
X140438095Y-31652619D01*
X140438095Y-31652619D02*
X140485714Y-31747857D01*
X140485714Y-31747857D02*
X140485714Y-31843095D01*
X140485714Y-31843095D02*
X140438095Y-31985952D01*
X140438095Y-31985952D02*
X139866667Y-32557380D01*
X139866667Y-32557380D02*
X140485714Y-32557380D01*
%TO.C,R1*%
X162097380Y-66206666D02*
X161621190Y-66539999D01*
X162097380Y-66778094D02*
X161097380Y-66778094D01*
X161097380Y-66778094D02*
X161097380Y-66397142D01*
X161097380Y-66397142D02*
X161145000Y-66301904D01*
X161145000Y-66301904D02*
X161192619Y-66254285D01*
X161192619Y-66254285D02*
X161287857Y-66206666D01*
X161287857Y-66206666D02*
X161430714Y-66206666D01*
X161430714Y-66206666D02*
X161525952Y-66254285D01*
X161525952Y-66254285D02*
X161573571Y-66301904D01*
X161573571Y-66301904D02*
X161621190Y-66397142D01*
X161621190Y-66397142D02*
X161621190Y-66778094D01*
X162097380Y-65254285D02*
X162097380Y-65825713D01*
X162097380Y-65539999D02*
X161097380Y-65539999D01*
X161097380Y-65539999D02*
X161240238Y-65635237D01*
X161240238Y-65635237D02*
X161335476Y-65730475D01*
X161335476Y-65730475D02*
X161383095Y-65825713D01*
%TO.C,D1*%
X107211905Y-38047380D02*
X107211905Y-37047380D01*
X107211905Y-37047380D02*
X107450000Y-37047380D01*
X107450000Y-37047380D02*
X107592857Y-37095000D01*
X107592857Y-37095000D02*
X107688095Y-37190238D01*
X107688095Y-37190238D02*
X107735714Y-37285476D01*
X107735714Y-37285476D02*
X107783333Y-37475952D01*
X107783333Y-37475952D02*
X107783333Y-37618809D01*
X107783333Y-37618809D02*
X107735714Y-37809285D01*
X107735714Y-37809285D02*
X107688095Y-37904523D01*
X107688095Y-37904523D02*
X107592857Y-37999761D01*
X107592857Y-37999761D02*
X107450000Y-38047380D01*
X107450000Y-38047380D02*
X107211905Y-38047380D01*
X108735714Y-38047380D02*
X108164286Y-38047380D01*
X108450000Y-38047380D02*
X108450000Y-37047380D01*
X108450000Y-37047380D02*
X108354762Y-37190238D01*
X108354762Y-37190238D02*
X108259524Y-37285476D01*
X108259524Y-37285476D02*
X108164286Y-37333095D01*
%TO.C,A1*%
X134215714Y-51791666D02*
X134691904Y-51791666D01*
X134120476Y-52077380D02*
X134453809Y-51077380D01*
X134453809Y-51077380D02*
X134787142Y-52077380D01*
X135644285Y-52077380D02*
X135072857Y-52077380D01*
X135358571Y-52077380D02*
X135358571Y-51077380D01*
X135358571Y-51077380D02*
X135263333Y-51220238D01*
X135263333Y-51220238D02*
X135168095Y-51315476D01*
X135168095Y-51315476D02*
X135072857Y-51363095D01*
X133668095Y-91717380D02*
X133668095Y-92526904D01*
X133668095Y-92526904D02*
X133715714Y-92622142D01*
X133715714Y-92622142D02*
X133763333Y-92669761D01*
X133763333Y-92669761D02*
X133858571Y-92717380D01*
X133858571Y-92717380D02*
X134049047Y-92717380D01*
X134049047Y-92717380D02*
X134144285Y-92669761D01*
X134144285Y-92669761D02*
X134191904Y-92622142D01*
X134191904Y-92622142D02*
X134239523Y-92526904D01*
X134239523Y-92526904D02*
X134239523Y-91717380D01*
X134668095Y-92669761D02*
X134810952Y-92717380D01*
X134810952Y-92717380D02*
X135049047Y-92717380D01*
X135049047Y-92717380D02*
X135144285Y-92669761D01*
X135144285Y-92669761D02*
X135191904Y-92622142D01*
X135191904Y-92622142D02*
X135239523Y-92526904D01*
X135239523Y-92526904D02*
X135239523Y-92431666D01*
X135239523Y-92431666D02*
X135191904Y-92336428D01*
X135191904Y-92336428D02*
X135144285Y-92288809D01*
X135144285Y-92288809D02*
X135049047Y-92241190D01*
X135049047Y-92241190D02*
X134858571Y-92193571D01*
X134858571Y-92193571D02*
X134763333Y-92145952D01*
X134763333Y-92145952D02*
X134715714Y-92098333D01*
X134715714Y-92098333D02*
X134668095Y-92003095D01*
X134668095Y-92003095D02*
X134668095Y-91907857D01*
X134668095Y-91907857D02*
X134715714Y-91812619D01*
X134715714Y-91812619D02*
X134763333Y-91765000D01*
X134763333Y-91765000D02*
X134858571Y-91717380D01*
X134858571Y-91717380D02*
X135096666Y-91717380D01*
X135096666Y-91717380D02*
X135239523Y-91765000D01*
X136001428Y-92193571D02*
X136144285Y-92241190D01*
X136144285Y-92241190D02*
X136191904Y-92288809D01*
X136191904Y-92288809D02*
X136239523Y-92384047D01*
X136239523Y-92384047D02*
X136239523Y-92526904D01*
X136239523Y-92526904D02*
X136191904Y-92622142D01*
X136191904Y-92622142D02*
X136144285Y-92669761D01*
X136144285Y-92669761D02*
X136049047Y-92717380D01*
X136049047Y-92717380D02*
X135668095Y-92717380D01*
X135668095Y-92717380D02*
X135668095Y-91717380D01*
X135668095Y-91717380D02*
X136001428Y-91717380D01*
X136001428Y-91717380D02*
X136096666Y-91765000D01*
X136096666Y-91765000D02*
X136144285Y-91812619D01*
X136144285Y-91812619D02*
X136191904Y-91907857D01*
X136191904Y-91907857D02*
X136191904Y-92003095D01*
X136191904Y-92003095D02*
X136144285Y-92098333D01*
X136144285Y-92098333D02*
X136096666Y-92145952D01*
X136096666Y-92145952D02*
X136001428Y-92193571D01*
X136001428Y-92193571D02*
X135668095Y-92193571D01*
D11*
%TO.C,SW1*%
X161020000Y-102020000D02*
X165520000Y-102020000D01*
X165520000Y-95520000D02*
X161020000Y-95520000D01*
X166770000Y-99520000D02*
X166770000Y-98020000D01*
X159770000Y-98020000D02*
X159770000Y-99520000D01*
%TO.C,R2*%
X145770000Y-37930000D02*
X145770000Y-33190000D01*
X148420000Y-35560000D02*
X145770000Y-35560000D01*
X130980000Y-35560000D02*
X133630000Y-35560000D01*
X133630000Y-33190000D02*
X133630000Y-37930000D01*
X145770000Y-33190000D02*
X133630000Y-33190000D01*
X133630000Y-37930000D02*
X145770000Y-37930000D01*
%TO.C,R1*%
X167470000Y-59970000D02*
X162730000Y-59970000D01*
X165100000Y-57320000D02*
X165100000Y-59970000D01*
X165100000Y-74760000D02*
X165100000Y-72110000D01*
X162730000Y-72110000D02*
X167470000Y-72110000D01*
X162730000Y-59970000D02*
X162730000Y-72110000D01*
X167470000Y-72110000D02*
X167470000Y-59970000D01*
%TO.C,D1*%
X106390000Y-41720000D02*
X106390000Y-41876000D01*
X106390000Y-39404000D02*
X106390000Y-39560000D01*
X106909040Y-41719999D02*
G75*
G03*
X108991129Y-41719836I1040960J1079999D01*
G01*
X109622334Y-39561392D02*
G75*
G03*
X106390001Y-39404485I-1672334J-1078608D01*
G01*
X106390001Y-41875515D02*
G75*
G03*
X109622334Y-41718608I1559999J1235515D01*
G01*
X108991129Y-39560164D02*
G75*
G03*
X106909040Y-39560001I-1041129J-1079836D01*
G01*
%TO.C,A1*%
X128580000Y-55520000D02*
X125910000Y-55520000D01*
X138870000Y-98830000D02*
X130990000Y-98830000D01*
X143950000Y-96290000D02*
X143950000Y-52850000D01*
X130990000Y-98830000D02*
X130990000Y-88410000D01*
X138870000Y-88410000D02*
X138870000Y-98830000D01*
X143950000Y-96290000D02*
X138870000Y-96290000D01*
X125910000Y-58060000D02*
X125910000Y-96290000D01*
X128580000Y-93620000D02*
X125910000Y-93620000D01*
X141280000Y-55520000D02*
X141280000Y-93620000D01*
X128580000Y-58060000D02*
X128580000Y-55520000D01*
X141280000Y-93620000D02*
X143950000Y-93620000D01*
X141280000Y-55520000D02*
X143950000Y-55520000D01*
X128580000Y-58060000D02*
X125910000Y-58060000D01*
X143950000Y-52850000D02*
X125910000Y-52850000D01*
X125910000Y-96290000D02*
X130990000Y-96290000D01*
X125910000Y-52850000D02*
X125910000Y-55520000D01*
X130990000Y-88410000D02*
X138870000Y-88410000D01*
X128580000Y-58060000D02*
X128580000Y-93620000D01*
%TD*%
M02*
