G04 #@! TF.GenerationSoftware,KiCad,Pcbnew,5.1.5+dfsg1-2build2*
G04 #@! TF.CreationDate,2022-10-07T20:11:41-07:00*
G04 #@! TF.ProjectId,kicad intro project,6b696361-6420-4696-9e74-726f2070726f,rev?*
G04 #@! TF.SameCoordinates,Original*
G04 #@! TF.FileFunction,Copper,L1,Top*
G04 #@! TF.FilePolarity,Positive*
%FSLAX46Y46*%
G04 Gerber Fmt 4.6, Leading zero omitted, Abs format (unit mm)*
G04 Created by KiCad (PCBNEW 5.1.5+dfsg1-2build2) date 2022-10-07 20:11:41*
%MOMM*%
%LPD*%
G04 APERTURE LIST*
%ADD10C,2.500000*%
%ADD11R,2.500000X2.500000*%
%ADD12O,1.400000X1.400000*%
%ADD13C,1.400000*%
%ADD14C,1.800000*%
%ADD15R,1.800000X1.800000*%
%ADD16O,1.600000X1.600000*%
%ADD17R,1.600000X1.600000*%
%ADD18C,0.250000*%
G04 APERTURE END LIST*
D10*
X128190000Y-101600000D03*
D11*
X123190000Y-101600000D03*
D12*
X123190000Y-92710000D03*
D13*
X123190000Y-90810000D03*
D12*
X128270000Y-90810000D03*
D13*
X128270000Y-92710000D03*
D14*
X128270000Y-74930000D03*
D15*
X125730000Y-74930000D03*
D16*
X115570000Y-101600000D03*
X100330000Y-101600000D03*
X115570000Y-66040000D03*
X100330000Y-99060000D03*
X115570000Y-68580000D03*
X100330000Y-96520000D03*
X115570000Y-71120000D03*
X100330000Y-93980000D03*
X115570000Y-73660000D03*
X100330000Y-91440000D03*
X115570000Y-76200000D03*
X100330000Y-88900000D03*
X115570000Y-78740000D03*
X100330000Y-86360000D03*
X115570000Y-81280000D03*
X100330000Y-83820000D03*
X115570000Y-83820000D03*
X100330000Y-81280000D03*
X115570000Y-86360000D03*
X100330000Y-78740000D03*
X115570000Y-88900000D03*
X100330000Y-76200000D03*
X115570000Y-91440000D03*
X100330000Y-73660000D03*
X115570000Y-93980000D03*
X100330000Y-71120000D03*
X115570000Y-96520000D03*
X100330000Y-68580000D03*
X115570000Y-99060000D03*
D17*
X100330000Y-66040000D03*
D18*
X124580000Y-74930000D02*
X125730000Y-74930000D01*
X123190000Y-76320000D02*
X124580000Y-74930000D01*
X123190000Y-90810000D02*
X123190000Y-76320000D01*
X118110000Y-67310000D02*
X125730000Y-74930000D01*
X99060000Y-60960000D02*
X118110000Y-60960000D01*
X97790000Y-62230000D02*
X99060000Y-60960000D01*
X118110000Y-60960000D02*
X118110000Y-67310000D01*
X97790000Y-71120000D02*
X97790000Y-62230000D01*
X100330000Y-73660000D02*
X97790000Y-71120000D01*
X123190000Y-101600000D02*
X115570000Y-101600000D01*
X123190000Y-101600000D02*
X123190000Y-92710000D01*
X128270000Y-90810000D02*
X128270000Y-87630000D01*
X128270000Y-87630000D02*
X130810000Y-85090000D01*
X130810000Y-77470000D02*
X128270000Y-74930000D01*
X130810000Y-85090000D02*
X130810000Y-77470000D01*
X128190000Y-92790000D02*
X128270000Y-92710000D01*
X128190000Y-101600000D02*
X128190000Y-92790000D01*
M02*
