G04 #@! TF.GenerationSoftware,KiCad,Pcbnew,5.1.5+dfsg1-2build2*
G04 #@! TF.CreationDate,2022-10-07T20:11:41-07:00*
G04 #@! TF.ProjectId,kicad intro project,6b696361-6420-4696-9e74-726f2070726f,rev?*
G04 #@! TF.SameCoordinates,Original*
G04 #@! TF.FileFunction,Legend,Top*
G04 #@! TF.FilePolarity,Positive*
%FSLAX46Y46*%
G04 Gerber Fmt 4.6, Leading zero omitted, Abs format (unit mm)*
G04 Created by KiCad (PCBNEW 5.1.5+dfsg1-2build2) date 2022-10-07 20:11:41*
%MOMM*%
%LPD*%
G04 APERTURE LIST*
%ADD10C,0.120000*%
%ADD11C,0.150000*%
G04 APERTURE END LIST*
D10*
X120390000Y-105400000D02*
X120990000Y-105400000D01*
X120390000Y-104560000D02*
X120390000Y-105400000D01*
X127010000Y-102576000D02*
X126916000Y-102669000D01*
X129260000Y-100325000D02*
X129201000Y-100384000D01*
X127180000Y-102816000D02*
X127121000Y-102874000D01*
X129465000Y-100531000D02*
X129371000Y-100624000D01*
X130750000Y-97440000D02*
X130750000Y-105161000D01*
X120630000Y-97440000D02*
X120630000Y-105161000D01*
X120630000Y-105161000D02*
X130750000Y-105161000D01*
X120630000Y-97440000D02*
X130750000Y-97440000D01*
X120630000Y-99200000D02*
X130750000Y-99200000D01*
X120630000Y-103900000D02*
X130750000Y-103900000D01*
X120630000Y-104500000D02*
X130750000Y-104500000D01*
X128740000Y-98600000D02*
G75*
G03X128740000Y-98600000I-550000J0D01*
G01*
X129870000Y-101600000D02*
G75*
G03X129870000Y-101600000I-1680000J0D01*
G01*
X123740000Y-98600000D02*
G75*
G03X123740000Y-98600000I-550000J0D01*
G01*
X123219383Y-103280450D02*
G75*
G02X122401000Y-103084000I-29383J1680450D01*
G01*
X121706047Y-102389088D02*
G75*
G02X121706000Y-100811000I1483953J789088D01*
G01*
X122400912Y-100116047D02*
G75*
G02X123979000Y-100116000I789088J-1483953D01*
G01*
X124673953Y-100810912D02*
G75*
G02X124674000Y-102389000I-1483953J-789088D01*
G01*
X123978712Y-103083352D02*
G75*
G02X123190000Y-103280000I-788712J1483352D01*
G01*
X122440641Y-91130095D02*
G75*
G02X123890000Y-91227133I749359J320095D01*
G01*
X129019359Y-92389905D02*
G75*
G02X127570000Y-92292867I-749359J-320095D01*
G01*
X128270000Y-76010000D02*
X128270000Y-76010000D01*
X128270000Y-78680000D02*
X128270000Y-76010000D01*
X128270000Y-78680000D02*
X128270000Y-78680000D01*
X128270000Y-76010000D02*
X128270000Y-78680000D01*
X125730000Y-76010000D02*
X125730000Y-76010000D01*
X125730000Y-78680000D02*
X125730000Y-76010000D01*
X125730000Y-78680000D02*
X125730000Y-78680000D01*
X125730000Y-76010000D02*
X125730000Y-78680000D01*
X128560000Y-78680000D02*
X128960000Y-78680000D01*
X128560000Y-79800000D02*
X128560000Y-78680000D01*
X128960000Y-79800000D02*
X128560000Y-79800000D01*
X128960000Y-78680000D02*
X128960000Y-79800000D01*
X125440000Y-78680000D02*
X128560000Y-78680000D01*
X128560000Y-78680000D02*
X128560000Y-82540000D01*
X125440000Y-78680000D02*
X125440000Y-82540000D01*
X128560000Y-82540000D02*
G75*
G02X125440000Y-82540000I-1560000J0D01*
G01*
X116970000Y-62100000D02*
X98930000Y-62100000D01*
X116970000Y-105540000D02*
X116970000Y-62100000D01*
X98930000Y-105540000D02*
X116970000Y-105540000D01*
X101600000Y-102870000D02*
X98930000Y-102870000D01*
X101600000Y-67310000D02*
X101600000Y-102870000D01*
X101600000Y-67310000D02*
X98930000Y-67310000D01*
X114300000Y-102870000D02*
X116970000Y-102870000D01*
X114300000Y-64770000D02*
X114300000Y-102870000D01*
X114300000Y-64770000D02*
X116970000Y-64770000D01*
X98930000Y-62100000D02*
X98930000Y-64770000D01*
X98930000Y-67310000D02*
X98930000Y-105540000D01*
X101600000Y-64770000D02*
X98930000Y-64770000D01*
X101600000Y-67310000D02*
X101600000Y-64770000D01*
D11*
X124356666Y-96844761D02*
X124499523Y-96892380D01*
X124737619Y-96892380D01*
X124832857Y-96844761D01*
X124880476Y-96797142D01*
X124928095Y-96701904D01*
X124928095Y-96606666D01*
X124880476Y-96511428D01*
X124832857Y-96463809D01*
X124737619Y-96416190D01*
X124547142Y-96368571D01*
X124451904Y-96320952D01*
X124404285Y-96273333D01*
X124356666Y-96178095D01*
X124356666Y-96082857D01*
X124404285Y-95987619D01*
X124451904Y-95940000D01*
X124547142Y-95892380D01*
X124785238Y-95892380D01*
X124928095Y-95940000D01*
X125261428Y-95892380D02*
X125499523Y-96892380D01*
X125690000Y-96178095D01*
X125880476Y-96892380D01*
X126118571Y-95892380D01*
X127023333Y-96892380D02*
X126451904Y-96892380D01*
X126737619Y-96892380D02*
X126737619Y-95892380D01*
X126642380Y-96035238D01*
X126547142Y-96130476D01*
X126451904Y-96178095D01*
X125562380Y-91926666D02*
X125086190Y-92260000D01*
X125562380Y-92498095D02*
X124562380Y-92498095D01*
X124562380Y-92117142D01*
X124610000Y-92021904D01*
X124657619Y-91974285D01*
X124752857Y-91926666D01*
X124895714Y-91926666D01*
X124990952Y-91974285D01*
X125038571Y-92021904D01*
X125086190Y-92117142D01*
X125086190Y-92498095D01*
X124657619Y-91545714D02*
X124610000Y-91498095D01*
X124562380Y-91402857D01*
X124562380Y-91164761D01*
X124610000Y-91069523D01*
X124657619Y-91021904D01*
X124752857Y-90974285D01*
X124848095Y-90974285D01*
X124990952Y-91021904D01*
X125562380Y-91593333D01*
X125562380Y-90974285D01*
X126802380Y-91926666D02*
X126326190Y-92260000D01*
X126802380Y-92498095D02*
X125802380Y-92498095D01*
X125802380Y-92117142D01*
X125850000Y-92021904D01*
X125897619Y-91974285D01*
X125992857Y-91926666D01*
X126135714Y-91926666D01*
X126230952Y-91974285D01*
X126278571Y-92021904D01*
X126326190Y-92117142D01*
X126326190Y-92498095D01*
X126802380Y-90974285D02*
X126802380Y-91545714D01*
X126802380Y-91260000D02*
X125802380Y-91260000D01*
X125945238Y-91355238D01*
X126040476Y-91450476D01*
X126088095Y-91545714D01*
X126261904Y-73422380D02*
X126261904Y-72422380D01*
X126500000Y-72422380D01*
X126642857Y-72470000D01*
X126738095Y-72565238D01*
X126785714Y-72660476D01*
X126833333Y-72850952D01*
X126833333Y-72993809D01*
X126785714Y-73184285D01*
X126738095Y-73279523D01*
X126642857Y-73374761D01*
X126500000Y-73422380D01*
X126261904Y-73422380D01*
X127785714Y-73422380D02*
X127214285Y-73422380D01*
X127500000Y-73422380D02*
X127500000Y-72422380D01*
X127404761Y-72565238D01*
X127309523Y-72660476D01*
X127214285Y-72708095D01*
X107235714Y-61126666D02*
X107711904Y-61126666D01*
X107140476Y-61412380D02*
X107473809Y-60412380D01*
X107807142Y-61412380D01*
X108664285Y-61412380D02*
X108092857Y-61412380D01*
X108378571Y-61412380D02*
X108378571Y-60412380D01*
X108283333Y-60555238D01*
X108188095Y-60650476D01*
X108092857Y-60698095D01*
M02*
