G04 #@! TF.GenerationSoftware,KiCad,Pcbnew,5.1.5+dfsg1-2build2*
G04 #@! TF.CreationDate,2022-10-07T20:11:41-07:00*
G04 #@! TF.ProjectId,kicad intro project,6b696361-6420-4696-9e74-726f2070726f,rev?*
G04 #@! TF.SameCoordinates,Original*
G04 #@! TF.FileFunction,Soldermask,Bot*
G04 #@! TF.FilePolarity,Negative*
%FSLAX46Y46*%
G04 Gerber Fmt 4.6, Leading zero omitted, Abs format (unit mm)*
G04 Created by KiCad (PCBNEW 5.1.5+dfsg1-2build2) date 2022-10-07 20:11:41*
%MOMM*%
%LPD*%
G04 APERTURE LIST*
%ADD10C,0.100000*%
G04 APERTURE END LIST*
D10*
G36*
X128569487Y-100348996D02*
G01*
X128806253Y-100447068D01*
X128806255Y-100447069D01*
X129019339Y-100589447D01*
X129200553Y-100770661D01*
X129342932Y-100983747D01*
X129441004Y-101220513D01*
X129491000Y-101471861D01*
X129491000Y-101728139D01*
X129441004Y-101979487D01*
X129431224Y-102003097D01*
X129342931Y-102216255D01*
X129200553Y-102429339D01*
X129019339Y-102610553D01*
X128806255Y-102752931D01*
X128806254Y-102752932D01*
X128806253Y-102752932D01*
X128569487Y-102851004D01*
X128318139Y-102901000D01*
X128061861Y-102901000D01*
X127810513Y-102851004D01*
X127573747Y-102752932D01*
X127573746Y-102752932D01*
X127573745Y-102752931D01*
X127360661Y-102610553D01*
X127179447Y-102429339D01*
X127037069Y-102216255D01*
X126948776Y-102003097D01*
X126938996Y-101979487D01*
X126889000Y-101728139D01*
X126889000Y-101471861D01*
X126938996Y-101220513D01*
X127037068Y-100983747D01*
X127179447Y-100770661D01*
X127360661Y-100589447D01*
X127573745Y-100447069D01*
X127573747Y-100447068D01*
X127810513Y-100348996D01*
X128061861Y-100299000D01*
X128318139Y-100299000D01*
X128569487Y-100348996D01*
G37*
G36*
X124491000Y-102901000D02*
G01*
X121889000Y-102901000D01*
X121889000Y-100299000D01*
X124491000Y-100299000D01*
X124491000Y-102901000D01*
G37*
G36*
X115818228Y-100781703D02*
G01*
X115973100Y-100845853D01*
X116112481Y-100938985D01*
X116231015Y-101057519D01*
X116324147Y-101196900D01*
X116388297Y-101351772D01*
X116421000Y-101516184D01*
X116421000Y-101683816D01*
X116388297Y-101848228D01*
X116324147Y-102003100D01*
X116231015Y-102142481D01*
X116112481Y-102261015D01*
X115973100Y-102354147D01*
X115818228Y-102418297D01*
X115653816Y-102451000D01*
X115486184Y-102451000D01*
X115321772Y-102418297D01*
X115166900Y-102354147D01*
X115027519Y-102261015D01*
X114908985Y-102142481D01*
X114815853Y-102003100D01*
X114751703Y-101848228D01*
X114719000Y-101683816D01*
X114719000Y-101516184D01*
X114751703Y-101351772D01*
X114815853Y-101196900D01*
X114908985Y-101057519D01*
X115027519Y-100938985D01*
X115166900Y-100845853D01*
X115321772Y-100781703D01*
X115486184Y-100749000D01*
X115653816Y-100749000D01*
X115818228Y-100781703D01*
G37*
G36*
X100578228Y-100781703D02*
G01*
X100733100Y-100845853D01*
X100872481Y-100938985D01*
X100991015Y-101057519D01*
X101084147Y-101196900D01*
X101148297Y-101351772D01*
X101181000Y-101516184D01*
X101181000Y-101683816D01*
X101148297Y-101848228D01*
X101084147Y-102003100D01*
X100991015Y-102142481D01*
X100872481Y-102261015D01*
X100733100Y-102354147D01*
X100578228Y-102418297D01*
X100413816Y-102451000D01*
X100246184Y-102451000D01*
X100081772Y-102418297D01*
X99926900Y-102354147D01*
X99787519Y-102261015D01*
X99668985Y-102142481D01*
X99575853Y-102003100D01*
X99511703Y-101848228D01*
X99479000Y-101683816D01*
X99479000Y-101516184D01*
X99511703Y-101351772D01*
X99575853Y-101196900D01*
X99668985Y-101057519D01*
X99787519Y-100938985D01*
X99926900Y-100845853D01*
X100081772Y-100781703D01*
X100246184Y-100749000D01*
X100413816Y-100749000D01*
X100578228Y-100781703D01*
G37*
G36*
X115818228Y-98241703D02*
G01*
X115973100Y-98305853D01*
X116112481Y-98398985D01*
X116231015Y-98517519D01*
X116324147Y-98656900D01*
X116388297Y-98811772D01*
X116421000Y-98976184D01*
X116421000Y-99143816D01*
X116388297Y-99308228D01*
X116324147Y-99463100D01*
X116231015Y-99602481D01*
X116112481Y-99721015D01*
X115973100Y-99814147D01*
X115818228Y-99878297D01*
X115653816Y-99911000D01*
X115486184Y-99911000D01*
X115321772Y-99878297D01*
X115166900Y-99814147D01*
X115027519Y-99721015D01*
X114908985Y-99602481D01*
X114815853Y-99463100D01*
X114751703Y-99308228D01*
X114719000Y-99143816D01*
X114719000Y-98976184D01*
X114751703Y-98811772D01*
X114815853Y-98656900D01*
X114908985Y-98517519D01*
X115027519Y-98398985D01*
X115166900Y-98305853D01*
X115321772Y-98241703D01*
X115486184Y-98209000D01*
X115653816Y-98209000D01*
X115818228Y-98241703D01*
G37*
G36*
X100578228Y-98241703D02*
G01*
X100733100Y-98305853D01*
X100872481Y-98398985D01*
X100991015Y-98517519D01*
X101084147Y-98656900D01*
X101148297Y-98811772D01*
X101181000Y-98976184D01*
X101181000Y-99143816D01*
X101148297Y-99308228D01*
X101084147Y-99463100D01*
X100991015Y-99602481D01*
X100872481Y-99721015D01*
X100733100Y-99814147D01*
X100578228Y-99878297D01*
X100413816Y-99911000D01*
X100246184Y-99911000D01*
X100081772Y-99878297D01*
X99926900Y-99814147D01*
X99787519Y-99721015D01*
X99668985Y-99602481D01*
X99575853Y-99463100D01*
X99511703Y-99308228D01*
X99479000Y-99143816D01*
X99479000Y-98976184D01*
X99511703Y-98811772D01*
X99575853Y-98656900D01*
X99668985Y-98517519D01*
X99787519Y-98398985D01*
X99926900Y-98305853D01*
X100081772Y-98241703D01*
X100246184Y-98209000D01*
X100413816Y-98209000D01*
X100578228Y-98241703D01*
G37*
G36*
X115818228Y-95701703D02*
G01*
X115973100Y-95765853D01*
X116112481Y-95858985D01*
X116231015Y-95977519D01*
X116324147Y-96116900D01*
X116388297Y-96271772D01*
X116421000Y-96436184D01*
X116421000Y-96603816D01*
X116388297Y-96768228D01*
X116324147Y-96923100D01*
X116231015Y-97062481D01*
X116112481Y-97181015D01*
X115973100Y-97274147D01*
X115818228Y-97338297D01*
X115653816Y-97371000D01*
X115486184Y-97371000D01*
X115321772Y-97338297D01*
X115166900Y-97274147D01*
X115027519Y-97181015D01*
X114908985Y-97062481D01*
X114815853Y-96923100D01*
X114751703Y-96768228D01*
X114719000Y-96603816D01*
X114719000Y-96436184D01*
X114751703Y-96271772D01*
X114815853Y-96116900D01*
X114908985Y-95977519D01*
X115027519Y-95858985D01*
X115166900Y-95765853D01*
X115321772Y-95701703D01*
X115486184Y-95669000D01*
X115653816Y-95669000D01*
X115818228Y-95701703D01*
G37*
G36*
X100578228Y-95701703D02*
G01*
X100733100Y-95765853D01*
X100872481Y-95858985D01*
X100991015Y-95977519D01*
X101084147Y-96116900D01*
X101148297Y-96271772D01*
X101181000Y-96436184D01*
X101181000Y-96603816D01*
X101148297Y-96768228D01*
X101084147Y-96923100D01*
X100991015Y-97062481D01*
X100872481Y-97181015D01*
X100733100Y-97274147D01*
X100578228Y-97338297D01*
X100413816Y-97371000D01*
X100246184Y-97371000D01*
X100081772Y-97338297D01*
X99926900Y-97274147D01*
X99787519Y-97181015D01*
X99668985Y-97062481D01*
X99575853Y-96923100D01*
X99511703Y-96768228D01*
X99479000Y-96603816D01*
X99479000Y-96436184D01*
X99511703Y-96271772D01*
X99575853Y-96116900D01*
X99668985Y-95977519D01*
X99787519Y-95858985D01*
X99926900Y-95765853D01*
X100081772Y-95701703D01*
X100246184Y-95669000D01*
X100413816Y-95669000D01*
X100578228Y-95701703D01*
G37*
G36*
X115818228Y-93161703D02*
G01*
X115973100Y-93225853D01*
X116112481Y-93318985D01*
X116231015Y-93437519D01*
X116324147Y-93576900D01*
X116388297Y-93731772D01*
X116421000Y-93896184D01*
X116421000Y-94063816D01*
X116388297Y-94228228D01*
X116324147Y-94383100D01*
X116231015Y-94522481D01*
X116112481Y-94641015D01*
X115973100Y-94734147D01*
X115818228Y-94798297D01*
X115653816Y-94831000D01*
X115486184Y-94831000D01*
X115321772Y-94798297D01*
X115166900Y-94734147D01*
X115027519Y-94641015D01*
X114908985Y-94522481D01*
X114815853Y-94383100D01*
X114751703Y-94228228D01*
X114719000Y-94063816D01*
X114719000Y-93896184D01*
X114751703Y-93731772D01*
X114815853Y-93576900D01*
X114908985Y-93437519D01*
X115027519Y-93318985D01*
X115166900Y-93225853D01*
X115321772Y-93161703D01*
X115486184Y-93129000D01*
X115653816Y-93129000D01*
X115818228Y-93161703D01*
G37*
G36*
X100578228Y-93161703D02*
G01*
X100733100Y-93225853D01*
X100872481Y-93318985D01*
X100991015Y-93437519D01*
X101084147Y-93576900D01*
X101148297Y-93731772D01*
X101181000Y-93896184D01*
X101181000Y-94063816D01*
X101148297Y-94228228D01*
X101084147Y-94383100D01*
X100991015Y-94522481D01*
X100872481Y-94641015D01*
X100733100Y-94734147D01*
X100578228Y-94798297D01*
X100413816Y-94831000D01*
X100246184Y-94831000D01*
X100081772Y-94798297D01*
X99926900Y-94734147D01*
X99787519Y-94641015D01*
X99668985Y-94522481D01*
X99575853Y-94383100D01*
X99511703Y-94228228D01*
X99479000Y-94063816D01*
X99479000Y-93896184D01*
X99511703Y-93731772D01*
X99575853Y-93576900D01*
X99668985Y-93437519D01*
X99787519Y-93318985D01*
X99926900Y-93225853D01*
X100081772Y-93161703D01*
X100246184Y-93129000D01*
X100413816Y-93129000D01*
X100578228Y-93161703D01*
G37*
G36*
X123409059Y-91987860D02*
G01*
X123545732Y-92044472D01*
X123668735Y-92126660D01*
X123773340Y-92231265D01*
X123855528Y-92354268D01*
X123912140Y-92490941D01*
X123941000Y-92636033D01*
X123941000Y-92783967D01*
X123912140Y-92929059D01*
X123855528Y-93065732D01*
X123773340Y-93188735D01*
X123668735Y-93293340D01*
X123545732Y-93375528D01*
X123545731Y-93375529D01*
X123545730Y-93375529D01*
X123409059Y-93432140D01*
X123263968Y-93461000D01*
X123116032Y-93461000D01*
X122970941Y-93432140D01*
X122834270Y-93375529D01*
X122834269Y-93375529D01*
X122834268Y-93375528D01*
X122711265Y-93293340D01*
X122606660Y-93188735D01*
X122524472Y-93065732D01*
X122467860Y-92929059D01*
X122439000Y-92783967D01*
X122439000Y-92636033D01*
X122467860Y-92490941D01*
X122524472Y-92354268D01*
X122606660Y-92231265D01*
X122711265Y-92126660D01*
X122834268Y-92044472D01*
X122970941Y-91987860D01*
X123116032Y-91959000D01*
X123263968Y-91959000D01*
X123409059Y-91987860D01*
G37*
G36*
X128489059Y-91987860D02*
G01*
X128625732Y-92044472D01*
X128748735Y-92126660D01*
X128853340Y-92231265D01*
X128935528Y-92354268D01*
X128992140Y-92490941D01*
X129021000Y-92636033D01*
X129021000Y-92783967D01*
X128992140Y-92929059D01*
X128935528Y-93065732D01*
X128853340Y-93188735D01*
X128748735Y-93293340D01*
X128625732Y-93375528D01*
X128625731Y-93375529D01*
X128625730Y-93375529D01*
X128489059Y-93432140D01*
X128343968Y-93461000D01*
X128196032Y-93461000D01*
X128050941Y-93432140D01*
X127914270Y-93375529D01*
X127914269Y-93375529D01*
X127914268Y-93375528D01*
X127791265Y-93293340D01*
X127686660Y-93188735D01*
X127604472Y-93065732D01*
X127547860Y-92929059D01*
X127519000Y-92783967D01*
X127519000Y-92636033D01*
X127547860Y-92490941D01*
X127604472Y-92354268D01*
X127686660Y-92231265D01*
X127791265Y-92126660D01*
X127914268Y-92044472D01*
X128050941Y-91987860D01*
X128196032Y-91959000D01*
X128343968Y-91959000D01*
X128489059Y-91987860D01*
G37*
G36*
X115818228Y-90621703D02*
G01*
X115973100Y-90685853D01*
X116112481Y-90778985D01*
X116231015Y-90897519D01*
X116324147Y-91036900D01*
X116388297Y-91191772D01*
X116421000Y-91356184D01*
X116421000Y-91523816D01*
X116388297Y-91688228D01*
X116324147Y-91843100D01*
X116231015Y-91982481D01*
X116112481Y-92101015D01*
X115973100Y-92194147D01*
X115818228Y-92258297D01*
X115653816Y-92291000D01*
X115486184Y-92291000D01*
X115321772Y-92258297D01*
X115166900Y-92194147D01*
X115027519Y-92101015D01*
X114908985Y-91982481D01*
X114815853Y-91843100D01*
X114751703Y-91688228D01*
X114719000Y-91523816D01*
X114719000Y-91356184D01*
X114751703Y-91191772D01*
X114815853Y-91036900D01*
X114908985Y-90897519D01*
X115027519Y-90778985D01*
X115166900Y-90685853D01*
X115321772Y-90621703D01*
X115486184Y-90589000D01*
X115653816Y-90589000D01*
X115818228Y-90621703D01*
G37*
G36*
X100578228Y-90621703D02*
G01*
X100733100Y-90685853D01*
X100872481Y-90778985D01*
X100991015Y-90897519D01*
X101084147Y-91036900D01*
X101148297Y-91191772D01*
X101181000Y-91356184D01*
X101181000Y-91523816D01*
X101148297Y-91688228D01*
X101084147Y-91843100D01*
X100991015Y-91982481D01*
X100872481Y-92101015D01*
X100733100Y-92194147D01*
X100578228Y-92258297D01*
X100413816Y-92291000D01*
X100246184Y-92291000D01*
X100081772Y-92258297D01*
X99926900Y-92194147D01*
X99787519Y-92101015D01*
X99668985Y-91982481D01*
X99575853Y-91843100D01*
X99511703Y-91688228D01*
X99479000Y-91523816D01*
X99479000Y-91356184D01*
X99511703Y-91191772D01*
X99575853Y-91036900D01*
X99668985Y-90897519D01*
X99787519Y-90778985D01*
X99926900Y-90685853D01*
X100081772Y-90621703D01*
X100246184Y-90589000D01*
X100413816Y-90589000D01*
X100578228Y-90621703D01*
G37*
G36*
X128489059Y-90087860D02*
G01*
X128625732Y-90144472D01*
X128748735Y-90226660D01*
X128853340Y-90331265D01*
X128853341Y-90331267D01*
X128935529Y-90454270D01*
X128992140Y-90590941D01*
X129021000Y-90736032D01*
X129021000Y-90883968D01*
X129018304Y-90897520D01*
X128992140Y-91029059D01*
X128935528Y-91165732D01*
X128853340Y-91288735D01*
X128748735Y-91393340D01*
X128625732Y-91475528D01*
X128625731Y-91475529D01*
X128625730Y-91475529D01*
X128489059Y-91532140D01*
X128343968Y-91561000D01*
X128196032Y-91561000D01*
X128050941Y-91532140D01*
X127914270Y-91475529D01*
X127914269Y-91475529D01*
X127914268Y-91475528D01*
X127791265Y-91393340D01*
X127686660Y-91288735D01*
X127604472Y-91165732D01*
X127547860Y-91029059D01*
X127521696Y-90897520D01*
X127519000Y-90883968D01*
X127519000Y-90736032D01*
X127547860Y-90590941D01*
X127604471Y-90454270D01*
X127686659Y-90331267D01*
X127686660Y-90331265D01*
X127791265Y-90226660D01*
X127914268Y-90144472D01*
X128050941Y-90087860D01*
X128196032Y-90059000D01*
X128343968Y-90059000D01*
X128489059Y-90087860D01*
G37*
G36*
X123409059Y-90087860D02*
G01*
X123545732Y-90144472D01*
X123668735Y-90226660D01*
X123773340Y-90331265D01*
X123773341Y-90331267D01*
X123855529Y-90454270D01*
X123912140Y-90590941D01*
X123941000Y-90736032D01*
X123941000Y-90883968D01*
X123938304Y-90897520D01*
X123912140Y-91029059D01*
X123855528Y-91165732D01*
X123773340Y-91288735D01*
X123668735Y-91393340D01*
X123545732Y-91475528D01*
X123545731Y-91475529D01*
X123545730Y-91475529D01*
X123409059Y-91532140D01*
X123263968Y-91561000D01*
X123116032Y-91561000D01*
X122970941Y-91532140D01*
X122834270Y-91475529D01*
X122834269Y-91475529D01*
X122834268Y-91475528D01*
X122711265Y-91393340D01*
X122606660Y-91288735D01*
X122524472Y-91165732D01*
X122467860Y-91029059D01*
X122441696Y-90897520D01*
X122439000Y-90883968D01*
X122439000Y-90736032D01*
X122467860Y-90590941D01*
X122524471Y-90454270D01*
X122606659Y-90331267D01*
X122606660Y-90331265D01*
X122711265Y-90226660D01*
X122834268Y-90144472D01*
X122970941Y-90087860D01*
X123116032Y-90059000D01*
X123263968Y-90059000D01*
X123409059Y-90087860D01*
G37*
G36*
X100578228Y-88081703D02*
G01*
X100733100Y-88145853D01*
X100872481Y-88238985D01*
X100991015Y-88357519D01*
X101084147Y-88496900D01*
X101148297Y-88651772D01*
X101181000Y-88816184D01*
X101181000Y-88983816D01*
X101148297Y-89148228D01*
X101084147Y-89303100D01*
X100991015Y-89442481D01*
X100872481Y-89561015D01*
X100733100Y-89654147D01*
X100578228Y-89718297D01*
X100413816Y-89751000D01*
X100246184Y-89751000D01*
X100081772Y-89718297D01*
X99926900Y-89654147D01*
X99787519Y-89561015D01*
X99668985Y-89442481D01*
X99575853Y-89303100D01*
X99511703Y-89148228D01*
X99479000Y-88983816D01*
X99479000Y-88816184D01*
X99511703Y-88651772D01*
X99575853Y-88496900D01*
X99668985Y-88357519D01*
X99787519Y-88238985D01*
X99926900Y-88145853D01*
X100081772Y-88081703D01*
X100246184Y-88049000D01*
X100413816Y-88049000D01*
X100578228Y-88081703D01*
G37*
G36*
X115818228Y-88081703D02*
G01*
X115973100Y-88145853D01*
X116112481Y-88238985D01*
X116231015Y-88357519D01*
X116324147Y-88496900D01*
X116388297Y-88651772D01*
X116421000Y-88816184D01*
X116421000Y-88983816D01*
X116388297Y-89148228D01*
X116324147Y-89303100D01*
X116231015Y-89442481D01*
X116112481Y-89561015D01*
X115973100Y-89654147D01*
X115818228Y-89718297D01*
X115653816Y-89751000D01*
X115486184Y-89751000D01*
X115321772Y-89718297D01*
X115166900Y-89654147D01*
X115027519Y-89561015D01*
X114908985Y-89442481D01*
X114815853Y-89303100D01*
X114751703Y-89148228D01*
X114719000Y-88983816D01*
X114719000Y-88816184D01*
X114751703Y-88651772D01*
X114815853Y-88496900D01*
X114908985Y-88357519D01*
X115027519Y-88238985D01*
X115166900Y-88145853D01*
X115321772Y-88081703D01*
X115486184Y-88049000D01*
X115653816Y-88049000D01*
X115818228Y-88081703D01*
G37*
G36*
X100578228Y-85541703D02*
G01*
X100733100Y-85605853D01*
X100872481Y-85698985D01*
X100991015Y-85817519D01*
X101084147Y-85956900D01*
X101148297Y-86111772D01*
X101181000Y-86276184D01*
X101181000Y-86443816D01*
X101148297Y-86608228D01*
X101084147Y-86763100D01*
X100991015Y-86902481D01*
X100872481Y-87021015D01*
X100733100Y-87114147D01*
X100578228Y-87178297D01*
X100413816Y-87211000D01*
X100246184Y-87211000D01*
X100081772Y-87178297D01*
X99926900Y-87114147D01*
X99787519Y-87021015D01*
X99668985Y-86902481D01*
X99575853Y-86763100D01*
X99511703Y-86608228D01*
X99479000Y-86443816D01*
X99479000Y-86276184D01*
X99511703Y-86111772D01*
X99575853Y-85956900D01*
X99668985Y-85817519D01*
X99787519Y-85698985D01*
X99926900Y-85605853D01*
X100081772Y-85541703D01*
X100246184Y-85509000D01*
X100413816Y-85509000D01*
X100578228Y-85541703D01*
G37*
G36*
X115818228Y-85541703D02*
G01*
X115973100Y-85605853D01*
X116112481Y-85698985D01*
X116231015Y-85817519D01*
X116324147Y-85956900D01*
X116388297Y-86111772D01*
X116421000Y-86276184D01*
X116421000Y-86443816D01*
X116388297Y-86608228D01*
X116324147Y-86763100D01*
X116231015Y-86902481D01*
X116112481Y-87021015D01*
X115973100Y-87114147D01*
X115818228Y-87178297D01*
X115653816Y-87211000D01*
X115486184Y-87211000D01*
X115321772Y-87178297D01*
X115166900Y-87114147D01*
X115027519Y-87021015D01*
X114908985Y-86902481D01*
X114815853Y-86763100D01*
X114751703Y-86608228D01*
X114719000Y-86443816D01*
X114719000Y-86276184D01*
X114751703Y-86111772D01*
X114815853Y-85956900D01*
X114908985Y-85817519D01*
X115027519Y-85698985D01*
X115166900Y-85605853D01*
X115321772Y-85541703D01*
X115486184Y-85509000D01*
X115653816Y-85509000D01*
X115818228Y-85541703D01*
G37*
G36*
X115818228Y-83001703D02*
G01*
X115973100Y-83065853D01*
X116112481Y-83158985D01*
X116231015Y-83277519D01*
X116324147Y-83416900D01*
X116388297Y-83571772D01*
X116421000Y-83736184D01*
X116421000Y-83903816D01*
X116388297Y-84068228D01*
X116324147Y-84223100D01*
X116231015Y-84362481D01*
X116112481Y-84481015D01*
X115973100Y-84574147D01*
X115818228Y-84638297D01*
X115653816Y-84671000D01*
X115486184Y-84671000D01*
X115321772Y-84638297D01*
X115166900Y-84574147D01*
X115027519Y-84481015D01*
X114908985Y-84362481D01*
X114815853Y-84223100D01*
X114751703Y-84068228D01*
X114719000Y-83903816D01*
X114719000Y-83736184D01*
X114751703Y-83571772D01*
X114815853Y-83416900D01*
X114908985Y-83277519D01*
X115027519Y-83158985D01*
X115166900Y-83065853D01*
X115321772Y-83001703D01*
X115486184Y-82969000D01*
X115653816Y-82969000D01*
X115818228Y-83001703D01*
G37*
G36*
X100578228Y-83001703D02*
G01*
X100733100Y-83065853D01*
X100872481Y-83158985D01*
X100991015Y-83277519D01*
X101084147Y-83416900D01*
X101148297Y-83571772D01*
X101181000Y-83736184D01*
X101181000Y-83903816D01*
X101148297Y-84068228D01*
X101084147Y-84223100D01*
X100991015Y-84362481D01*
X100872481Y-84481015D01*
X100733100Y-84574147D01*
X100578228Y-84638297D01*
X100413816Y-84671000D01*
X100246184Y-84671000D01*
X100081772Y-84638297D01*
X99926900Y-84574147D01*
X99787519Y-84481015D01*
X99668985Y-84362481D01*
X99575853Y-84223100D01*
X99511703Y-84068228D01*
X99479000Y-83903816D01*
X99479000Y-83736184D01*
X99511703Y-83571772D01*
X99575853Y-83416900D01*
X99668985Y-83277519D01*
X99787519Y-83158985D01*
X99926900Y-83065853D01*
X100081772Y-83001703D01*
X100246184Y-82969000D01*
X100413816Y-82969000D01*
X100578228Y-83001703D01*
G37*
G36*
X100578228Y-80461703D02*
G01*
X100733100Y-80525853D01*
X100872481Y-80618985D01*
X100991015Y-80737519D01*
X101084147Y-80876900D01*
X101148297Y-81031772D01*
X101181000Y-81196184D01*
X101181000Y-81363816D01*
X101148297Y-81528228D01*
X101084147Y-81683100D01*
X100991015Y-81822481D01*
X100872481Y-81941015D01*
X100733100Y-82034147D01*
X100578228Y-82098297D01*
X100413816Y-82131000D01*
X100246184Y-82131000D01*
X100081772Y-82098297D01*
X99926900Y-82034147D01*
X99787519Y-81941015D01*
X99668985Y-81822481D01*
X99575853Y-81683100D01*
X99511703Y-81528228D01*
X99479000Y-81363816D01*
X99479000Y-81196184D01*
X99511703Y-81031772D01*
X99575853Y-80876900D01*
X99668985Y-80737519D01*
X99787519Y-80618985D01*
X99926900Y-80525853D01*
X100081772Y-80461703D01*
X100246184Y-80429000D01*
X100413816Y-80429000D01*
X100578228Y-80461703D01*
G37*
G36*
X115818228Y-80461703D02*
G01*
X115973100Y-80525853D01*
X116112481Y-80618985D01*
X116231015Y-80737519D01*
X116324147Y-80876900D01*
X116388297Y-81031772D01*
X116421000Y-81196184D01*
X116421000Y-81363816D01*
X116388297Y-81528228D01*
X116324147Y-81683100D01*
X116231015Y-81822481D01*
X116112481Y-81941015D01*
X115973100Y-82034147D01*
X115818228Y-82098297D01*
X115653816Y-82131000D01*
X115486184Y-82131000D01*
X115321772Y-82098297D01*
X115166900Y-82034147D01*
X115027519Y-81941015D01*
X114908985Y-81822481D01*
X114815853Y-81683100D01*
X114751703Y-81528228D01*
X114719000Y-81363816D01*
X114719000Y-81196184D01*
X114751703Y-81031772D01*
X114815853Y-80876900D01*
X114908985Y-80737519D01*
X115027519Y-80618985D01*
X115166900Y-80525853D01*
X115321772Y-80461703D01*
X115486184Y-80429000D01*
X115653816Y-80429000D01*
X115818228Y-80461703D01*
G37*
G36*
X115818228Y-77921703D02*
G01*
X115973100Y-77985853D01*
X116112481Y-78078985D01*
X116231015Y-78197519D01*
X116324147Y-78336900D01*
X116388297Y-78491772D01*
X116421000Y-78656184D01*
X116421000Y-78823816D01*
X116388297Y-78988228D01*
X116324147Y-79143100D01*
X116231015Y-79282481D01*
X116112481Y-79401015D01*
X115973100Y-79494147D01*
X115818228Y-79558297D01*
X115653816Y-79591000D01*
X115486184Y-79591000D01*
X115321772Y-79558297D01*
X115166900Y-79494147D01*
X115027519Y-79401015D01*
X114908985Y-79282481D01*
X114815853Y-79143100D01*
X114751703Y-78988228D01*
X114719000Y-78823816D01*
X114719000Y-78656184D01*
X114751703Y-78491772D01*
X114815853Y-78336900D01*
X114908985Y-78197519D01*
X115027519Y-78078985D01*
X115166900Y-77985853D01*
X115321772Y-77921703D01*
X115486184Y-77889000D01*
X115653816Y-77889000D01*
X115818228Y-77921703D01*
G37*
G36*
X100578228Y-77921703D02*
G01*
X100733100Y-77985853D01*
X100872481Y-78078985D01*
X100991015Y-78197519D01*
X101084147Y-78336900D01*
X101148297Y-78491772D01*
X101181000Y-78656184D01*
X101181000Y-78823816D01*
X101148297Y-78988228D01*
X101084147Y-79143100D01*
X100991015Y-79282481D01*
X100872481Y-79401015D01*
X100733100Y-79494147D01*
X100578228Y-79558297D01*
X100413816Y-79591000D01*
X100246184Y-79591000D01*
X100081772Y-79558297D01*
X99926900Y-79494147D01*
X99787519Y-79401015D01*
X99668985Y-79282481D01*
X99575853Y-79143100D01*
X99511703Y-78988228D01*
X99479000Y-78823816D01*
X99479000Y-78656184D01*
X99511703Y-78491772D01*
X99575853Y-78336900D01*
X99668985Y-78197519D01*
X99787519Y-78078985D01*
X99926900Y-77985853D01*
X100081772Y-77921703D01*
X100246184Y-77889000D01*
X100413816Y-77889000D01*
X100578228Y-77921703D01*
G37*
G36*
X115818228Y-75381703D02*
G01*
X115973100Y-75445853D01*
X116112481Y-75538985D01*
X116231015Y-75657519D01*
X116324147Y-75796900D01*
X116388297Y-75951772D01*
X116421000Y-76116184D01*
X116421000Y-76283816D01*
X116388297Y-76448228D01*
X116324147Y-76603100D01*
X116231015Y-76742481D01*
X116112481Y-76861015D01*
X115973100Y-76954147D01*
X115818228Y-77018297D01*
X115653816Y-77051000D01*
X115486184Y-77051000D01*
X115321772Y-77018297D01*
X115166900Y-76954147D01*
X115027519Y-76861015D01*
X114908985Y-76742481D01*
X114815853Y-76603100D01*
X114751703Y-76448228D01*
X114719000Y-76283816D01*
X114719000Y-76116184D01*
X114751703Y-75951772D01*
X114815853Y-75796900D01*
X114908985Y-75657519D01*
X115027519Y-75538985D01*
X115166900Y-75445853D01*
X115321772Y-75381703D01*
X115486184Y-75349000D01*
X115653816Y-75349000D01*
X115818228Y-75381703D01*
G37*
G36*
X100578228Y-75381703D02*
G01*
X100733100Y-75445853D01*
X100872481Y-75538985D01*
X100991015Y-75657519D01*
X101084147Y-75796900D01*
X101148297Y-75951772D01*
X101181000Y-76116184D01*
X101181000Y-76283816D01*
X101148297Y-76448228D01*
X101084147Y-76603100D01*
X100991015Y-76742481D01*
X100872481Y-76861015D01*
X100733100Y-76954147D01*
X100578228Y-77018297D01*
X100413816Y-77051000D01*
X100246184Y-77051000D01*
X100081772Y-77018297D01*
X99926900Y-76954147D01*
X99787519Y-76861015D01*
X99668985Y-76742481D01*
X99575853Y-76603100D01*
X99511703Y-76448228D01*
X99479000Y-76283816D01*
X99479000Y-76116184D01*
X99511703Y-75951772D01*
X99575853Y-75796900D01*
X99668985Y-75657519D01*
X99787519Y-75538985D01*
X99926900Y-75445853D01*
X100081772Y-75381703D01*
X100246184Y-75349000D01*
X100413816Y-75349000D01*
X100578228Y-75381703D01*
G37*
G36*
X128547395Y-74015546D02*
G01*
X128720466Y-74087234D01*
X128720467Y-74087235D01*
X128876227Y-74191310D01*
X129008690Y-74323773D01*
X129008691Y-74323775D01*
X129112766Y-74479534D01*
X129184454Y-74652605D01*
X129221000Y-74836333D01*
X129221000Y-75023667D01*
X129184454Y-75207395D01*
X129112766Y-75380466D01*
X129112765Y-75380467D01*
X129008690Y-75536227D01*
X128876227Y-75668690D01*
X128797818Y-75721081D01*
X128720466Y-75772766D01*
X128547395Y-75844454D01*
X128363667Y-75881000D01*
X128176333Y-75881000D01*
X127992605Y-75844454D01*
X127819534Y-75772766D01*
X127742182Y-75721081D01*
X127663773Y-75668690D01*
X127531310Y-75536227D01*
X127427235Y-75380467D01*
X127427234Y-75380466D01*
X127355546Y-75207395D01*
X127319000Y-75023667D01*
X127319000Y-74836333D01*
X127355546Y-74652605D01*
X127427234Y-74479534D01*
X127531309Y-74323775D01*
X127531310Y-74323773D01*
X127663773Y-74191310D01*
X127819533Y-74087235D01*
X127819534Y-74087234D01*
X127992605Y-74015546D01*
X128176333Y-73979000D01*
X128363667Y-73979000D01*
X128547395Y-74015546D01*
G37*
G36*
X126681000Y-75881000D02*
G01*
X124779000Y-75881000D01*
X124779000Y-73979000D01*
X126681000Y-73979000D01*
X126681000Y-75881000D01*
G37*
G36*
X115818228Y-72841703D02*
G01*
X115973100Y-72905853D01*
X116112481Y-72998985D01*
X116231015Y-73117519D01*
X116324147Y-73256900D01*
X116388297Y-73411772D01*
X116421000Y-73576184D01*
X116421000Y-73743816D01*
X116388297Y-73908228D01*
X116324147Y-74063100D01*
X116231015Y-74202481D01*
X116112481Y-74321015D01*
X115973100Y-74414147D01*
X115818228Y-74478297D01*
X115653816Y-74511000D01*
X115486184Y-74511000D01*
X115321772Y-74478297D01*
X115166900Y-74414147D01*
X115027519Y-74321015D01*
X114908985Y-74202481D01*
X114815853Y-74063100D01*
X114751703Y-73908228D01*
X114719000Y-73743816D01*
X114719000Y-73576184D01*
X114751703Y-73411772D01*
X114815853Y-73256900D01*
X114908985Y-73117519D01*
X115027519Y-72998985D01*
X115166900Y-72905853D01*
X115321772Y-72841703D01*
X115486184Y-72809000D01*
X115653816Y-72809000D01*
X115818228Y-72841703D01*
G37*
G36*
X100578228Y-72841703D02*
G01*
X100733100Y-72905853D01*
X100872481Y-72998985D01*
X100991015Y-73117519D01*
X101084147Y-73256900D01*
X101148297Y-73411772D01*
X101181000Y-73576184D01*
X101181000Y-73743816D01*
X101148297Y-73908228D01*
X101084147Y-74063100D01*
X100991015Y-74202481D01*
X100872481Y-74321015D01*
X100733100Y-74414147D01*
X100578228Y-74478297D01*
X100413816Y-74511000D01*
X100246184Y-74511000D01*
X100081772Y-74478297D01*
X99926900Y-74414147D01*
X99787519Y-74321015D01*
X99668985Y-74202481D01*
X99575853Y-74063100D01*
X99511703Y-73908228D01*
X99479000Y-73743816D01*
X99479000Y-73576184D01*
X99511703Y-73411772D01*
X99575853Y-73256900D01*
X99668985Y-73117519D01*
X99787519Y-72998985D01*
X99926900Y-72905853D01*
X100081772Y-72841703D01*
X100246184Y-72809000D01*
X100413816Y-72809000D01*
X100578228Y-72841703D01*
G37*
G36*
X115818228Y-70301703D02*
G01*
X115973100Y-70365853D01*
X116112481Y-70458985D01*
X116231015Y-70577519D01*
X116324147Y-70716900D01*
X116388297Y-70871772D01*
X116421000Y-71036184D01*
X116421000Y-71203816D01*
X116388297Y-71368228D01*
X116324147Y-71523100D01*
X116231015Y-71662481D01*
X116112481Y-71781015D01*
X115973100Y-71874147D01*
X115818228Y-71938297D01*
X115653816Y-71971000D01*
X115486184Y-71971000D01*
X115321772Y-71938297D01*
X115166900Y-71874147D01*
X115027519Y-71781015D01*
X114908985Y-71662481D01*
X114815853Y-71523100D01*
X114751703Y-71368228D01*
X114719000Y-71203816D01*
X114719000Y-71036184D01*
X114751703Y-70871772D01*
X114815853Y-70716900D01*
X114908985Y-70577519D01*
X115027519Y-70458985D01*
X115166900Y-70365853D01*
X115321772Y-70301703D01*
X115486184Y-70269000D01*
X115653816Y-70269000D01*
X115818228Y-70301703D01*
G37*
G36*
X100578228Y-70301703D02*
G01*
X100733100Y-70365853D01*
X100872481Y-70458985D01*
X100991015Y-70577519D01*
X101084147Y-70716900D01*
X101148297Y-70871772D01*
X101181000Y-71036184D01*
X101181000Y-71203816D01*
X101148297Y-71368228D01*
X101084147Y-71523100D01*
X100991015Y-71662481D01*
X100872481Y-71781015D01*
X100733100Y-71874147D01*
X100578228Y-71938297D01*
X100413816Y-71971000D01*
X100246184Y-71971000D01*
X100081772Y-71938297D01*
X99926900Y-71874147D01*
X99787519Y-71781015D01*
X99668985Y-71662481D01*
X99575853Y-71523100D01*
X99511703Y-71368228D01*
X99479000Y-71203816D01*
X99479000Y-71036184D01*
X99511703Y-70871772D01*
X99575853Y-70716900D01*
X99668985Y-70577519D01*
X99787519Y-70458985D01*
X99926900Y-70365853D01*
X100081772Y-70301703D01*
X100246184Y-70269000D01*
X100413816Y-70269000D01*
X100578228Y-70301703D01*
G37*
G36*
X115818228Y-67761703D02*
G01*
X115973100Y-67825853D01*
X116112481Y-67918985D01*
X116231015Y-68037519D01*
X116324147Y-68176900D01*
X116388297Y-68331772D01*
X116421000Y-68496184D01*
X116421000Y-68663816D01*
X116388297Y-68828228D01*
X116324147Y-68983100D01*
X116231015Y-69122481D01*
X116112481Y-69241015D01*
X115973100Y-69334147D01*
X115818228Y-69398297D01*
X115653816Y-69431000D01*
X115486184Y-69431000D01*
X115321772Y-69398297D01*
X115166900Y-69334147D01*
X115027519Y-69241015D01*
X114908985Y-69122481D01*
X114815853Y-68983100D01*
X114751703Y-68828228D01*
X114719000Y-68663816D01*
X114719000Y-68496184D01*
X114751703Y-68331772D01*
X114815853Y-68176900D01*
X114908985Y-68037519D01*
X115027519Y-67918985D01*
X115166900Y-67825853D01*
X115321772Y-67761703D01*
X115486184Y-67729000D01*
X115653816Y-67729000D01*
X115818228Y-67761703D01*
G37*
G36*
X100578228Y-67761703D02*
G01*
X100733100Y-67825853D01*
X100872481Y-67918985D01*
X100991015Y-68037519D01*
X101084147Y-68176900D01*
X101148297Y-68331772D01*
X101181000Y-68496184D01*
X101181000Y-68663816D01*
X101148297Y-68828228D01*
X101084147Y-68983100D01*
X100991015Y-69122481D01*
X100872481Y-69241015D01*
X100733100Y-69334147D01*
X100578228Y-69398297D01*
X100413816Y-69431000D01*
X100246184Y-69431000D01*
X100081772Y-69398297D01*
X99926900Y-69334147D01*
X99787519Y-69241015D01*
X99668985Y-69122481D01*
X99575853Y-68983100D01*
X99511703Y-68828228D01*
X99479000Y-68663816D01*
X99479000Y-68496184D01*
X99511703Y-68331772D01*
X99575853Y-68176900D01*
X99668985Y-68037519D01*
X99787519Y-67918985D01*
X99926900Y-67825853D01*
X100081772Y-67761703D01*
X100246184Y-67729000D01*
X100413816Y-67729000D01*
X100578228Y-67761703D01*
G37*
G36*
X115818228Y-65221703D02*
G01*
X115973100Y-65285853D01*
X116112481Y-65378985D01*
X116231015Y-65497519D01*
X116324147Y-65636900D01*
X116388297Y-65791772D01*
X116421000Y-65956184D01*
X116421000Y-66123816D01*
X116388297Y-66288228D01*
X116324147Y-66443100D01*
X116231015Y-66582481D01*
X116112481Y-66701015D01*
X115973100Y-66794147D01*
X115818228Y-66858297D01*
X115653816Y-66891000D01*
X115486184Y-66891000D01*
X115321772Y-66858297D01*
X115166900Y-66794147D01*
X115027519Y-66701015D01*
X114908985Y-66582481D01*
X114815853Y-66443100D01*
X114751703Y-66288228D01*
X114719000Y-66123816D01*
X114719000Y-65956184D01*
X114751703Y-65791772D01*
X114815853Y-65636900D01*
X114908985Y-65497519D01*
X115027519Y-65378985D01*
X115166900Y-65285853D01*
X115321772Y-65221703D01*
X115486184Y-65189000D01*
X115653816Y-65189000D01*
X115818228Y-65221703D01*
G37*
G36*
X101181000Y-66891000D02*
G01*
X99479000Y-66891000D01*
X99479000Y-65189000D01*
X101181000Y-65189000D01*
X101181000Y-66891000D01*
G37*
M02*
